<?xml version="1.0" encoding="UTF-8" standalone="no"?>
<!DOCTYPE svg PUBLIC "-//W3C//DTD SVG 1.1//EN"
 "http://www.w3.org/Graphics/SVG/1.1/DTD/svg11.dtd">
<!-- Generated by graphviz version 8.1.0 (20230707.0739)
 -->
<!-- Title: ORG Pages: 1 -->
<svg width="744pt" height="218pt"
 viewBox="0.00 0.00 744.25 218.08" xmlns="http://www.w3.org/2000/svg" xmlns:xlink="http://www.w3.org/1999/xlink">
<g id="graph0" class="graph" transform="scale(1 1) rotate(0) translate(4 214.08)">
<title>ORG</title>
<polygon fill="white" stroke="none" points="-4,4 -4,-214.08 740.25,-214.08 740.25,4 -4,4"/>
<!-- CEO -->
<g id="node1" class="node">
<title>CEO</title>
<polygon fill="none" stroke="black" points="410.5,-210.08 245.5,-210.08 241.5,-206.08 241.5,-159.68 406.5,-159.68 410.5,-163.68 410.5,-210.08"/>
<polyline fill="none" stroke="black" points="406.5,-206.08 241.5,-206.08"/>
<polyline fill="none" stroke="black" points="406.5,-206.08 406.5,-159.68"/>
<polyline fill="none" stroke="black" points="406.5,-206.08 410.5,-210.08"/>
<text text-anchor="middle" x="326" y="-179.45" font-family="Arial" font-size="14.00">Responsable de proyecto</text>
</g>
<!-- hierarchy_1 -->
<g id="node8" class="node">
<title>hierarchy_1</title>
</g>
<!-- CEO&#45;&gt;hierarchy_1 -->
<g id="edge1" class="edge">
<title>CEO&#45;&gt;hierarchy_1</title>
<path fill="none" stroke="black" d="M326,-159.22C326,-142.32 326,-122.75 326,-121.54"/>
</g>
<!-- HR -->
<g id="node2" class="node">
<title>HR</title>
<polygon fill="none" stroke="black" points="549.5,-145.68 348.5,-145.68 344.5,-141.68 344.5,-95.28 545.5,-95.28 549.5,-99.28 549.5,-145.68"/>
<polyline fill="none" stroke="black" points="545.5,-141.68 344.5,-141.68"/>
<polyline fill="none" stroke="black" points="545.5,-141.68 545.5,-95.28"/>
<polyline fill="none" stroke="black" points="545.5,-141.68 549.5,-145.68"/>
<text text-anchor="middle" x="447" y="-115.06" font-family="Arial" font-size="14.00">Responsable de financiamiento</text>
</g>
<!-- CFO -->
<g id="node3" class="node">
<title>CFO</title>
<polygon fill="none" stroke="black" points="308,-145.68 168,-145.68 164,-141.68 164,-95.28 304,-95.28 308,-99.28 308,-145.68"/>
<polyline fill="none" stroke="black" points="304,-141.68 164,-141.68"/>
<polyline fill="none" stroke="black" points="304,-141.68 304,-95.28"/>
<polyline fill="none" stroke="black" points="304,-141.68 308,-145.68"/>
<text text-anchor="middle" x="236" y="-115.06" font-family="Arial" font-size="14.00">Lider de desarrollo</text>
</g>
<!-- CFO&#45;&gt;hierarchy_1 -->
<g id="edge4" class="edge">
<title>CFO&#45;&gt;hierarchy_1</title>
<path fill="none" stroke="black" d="M308.42,-120.48C314.19,-120.48 319.96,-120.48 325.73,-120.48"/>
</g>
<!-- staff_1 -->
<g id="node4" class="node">
<title>staff_1</title>
<polygon fill="none" stroke="black" points="144,-50.4 4,-50.4 0,-46.4 0,0 140,0 144,-4 144,-50.4"/>
<polyline fill="none" stroke="black" points="140,-46.4 0,-46.4"/>
<polyline fill="none" stroke="black" points="140,-46.4 140,0"/>
<polyline fill="none" stroke="black" points="140,-46.4 144,-50.4"/>
<text text-anchor="middle" x="72" y="-19.78" font-family="Arial" font-size="14.00">Científico de datos</text>
</g>
<!-- staff_2 -->
<g id="node5" class="node">
<title>staff_2</title>
<polygon fill="none" stroke="black" points="307.88,-50.4 166.12,-50.4 162.12,-46.4 162.12,0 303.88,0 307.88,-4 307.88,-50.4"/>
<polyline fill="none" stroke="black" points="303.88,-46.4 162.12,-46.4"/>
<polyline fill="none" stroke="black" points="303.88,-46.4 303.88,0"/>
<polyline fill="none" stroke="black" points="303.88,-46.4 307.88,-50.4"/>
<text text-anchor="middle" x="235" y="-19.78" font-family="Arial" font-size="14.00">Ingeniero de software</text>
</g>
<!-- staff_1&#45;&gt;staff_2 -->
<g id="edge6" class="edge">
<title>staff_1&#45;&gt;staff_2</title>
<path fill="none" stroke="black" d="M144.27,-25.2C150.06,-25.2 155.85,-25.2 161.63,-25.2"/>
</g>
<!-- hierarchy_4 -->
<g id="node11" class="node">
<title>hierarchy_4</title>
</g>
<!-- staff_2&#45;&gt;hierarchy_4 -->
<g id="edge7" class="edge">
<title>staff_2&#45;&gt;hierarchy_4</title>
<path fill="none" stroke="black" d="M308.23,-25.2C314.06,-25.2 319.89,-25.2 325.72,-25.2"/>
</g>
<!-- staff_3 -->
<g id="node6" class="node">
<title>staff_3</title>
<polygon fill="none" stroke="black" points="488,-50.4 348,-50.4 344,-46.4 344,0 484,0 488,-4 488,-50.4"/>
<polyline fill="none" stroke="black" points="484,-46.4 344,-46.4"/>
<polyline fill="none" stroke="black" points="484,-46.4 484,0"/>
<polyline fill="none" stroke="black" points="484,-46.4 488,-50.4"/>
<text text-anchor="middle" x="416" y="-19.78" font-family="Arial" font-size="14.00">Ingeniero devops</text>
</g>
<!-- staff_4 -->
<g id="node7" class="node">
<title>staff_4</title>
<polygon fill="none" stroke="black" points="736.25,-50.4 509.75,-50.4 505.75,-46.4 505.75,0 732.25,0 736.25,-4 736.25,-50.4"/>
<polyline fill="none" stroke="black" points="732.25,-46.4 505.75,-46.4"/>
<polyline fill="none" stroke="black" points="732.25,-46.4 732.25,0"/>
<polyline fill="none" stroke="black" points="732.25,-46.4 736.25,-50.4"/>
<text text-anchor="middle" x="621" y="-19.78" font-family="Arial" font-size="14.00">Responsable de manejo de clientes</text>
</g>
<!-- staff_3&#45;&gt;staff_4 -->
<g id="edge9" class="edge">
<title>staff_3&#45;&gt;staff_4</title>
<path fill="none" stroke="black" d="M488.47,-25.2C494.08,-25.2 499.69,-25.2 505.3,-25.2"/>
</g>
<!-- hierarchy_1&#45;&gt;HR -->
<g id="edge5" class="edge">
<title>hierarchy_1&#45;&gt;HR</title>
<path fill="none" stroke="black" d="M326.47,-120.48C332.44,-120.48 338.4,-120.48 344.36,-120.48"/>
</g>
<!-- hierarchy_2 -->
<g id="node9" class="node">
<title>hierarchy_2</title>
</g>
<!-- hierarchy_1&#45;&gt;hierarchy_2 -->
<g id="edge2" class="edge">
<title>hierarchy_1&#45;&gt;hierarchy_2</title>
<path fill="none" stroke="black" d="M326,-119.37C326,-117.2 326,-83.49 326,-81.38"/>
</g>
<!-- hierarchy_3 -->
<g id="node10" class="node">
<title>hierarchy_3</title>
</g>
<!-- hierarchy_2&#45;&gt;hierarchy_3 -->
<g id="edge3" class="edge">
<title>hierarchy_2&#45;&gt;hierarchy_3</title>
<path fill="none" stroke="black" d="M326,-79.68C326,-78.24 326,-67.34 326,-65.98"/>
</g>
<!-- hierarchy_3&#45;&gt;hierarchy_4 -->
<g id="edge10" class="edge">
<title>hierarchy_3&#45;&gt;hierarchy_4</title>
<path fill="none" stroke="black" d="M326,-64.29C326,-62.12 326,-28.41 326,-26.3"/>
</g>
<!-- hierarchy_4&#45;&gt;staff_3 -->
<g id="edge8" class="edge">
<title>hierarchy_4&#45;&gt;staff_3</title>
<path fill="none" stroke="black" d="M326.35,-25.2C332.07,-25.2 337.79,-25.2 343.51,-25.2"/>
</g>
</g>
</svg>
