<svg xmlns="http://www.w3.org/2000/svg" xmlns:xlink="http://www.w3.org/1999/xlink" xmlns:lucid="lucid" width="3788" height="2534"><g transform="translate(-4458 229)" lucid:page-tab-id="0_0"><path d="M-2000-2500h14500v5500H-2000z" fill="#fff"/><path d="M6180 166a6 6 0 0 1 6-6h308a6 6 0 0 1 6 6v228a6 6 0 0 1-6 6h-308a6 6 0 0 1-6-6z" stroke="#3a414a" stroke-width="4" fill="#e3fae3"/><use xlink:href="#a" transform="matrix(1,0,0,1,6188,168) translate(58.99382716049395 46.22222222222217)"/><use xlink:href="#b" transform="matrix(1,0,0,1,6188,168) translate(26.895061728395206 115.55555555555543)"/><use xlink:href="#c" transform="matrix(1,0,0,1,6188,168) translate(184.01851851851848 115.55555555555543)"/><path d="M6980 166a6 6 0 0 1 6-6h308a6 6 0 0 1 6 6v228a6 6 0 0 1-6 6h-308a6 6 0 0 1-6-6z" stroke="#3a414a" stroke-width="4" fill="#e3fae3"/><use xlink:href="#d" transform="matrix(1,0,0,1,6988,168) translate(30.104938271605093 46.22222222222217)"/><path d="M7780 166a6 6 0 0 1 6-6h308a6 6 0 0 1 6 6v228a6 6 0 0 1-6 6h-308a6 6 0 0 1-6-6z" stroke="#3a414a" stroke-width="4" fill="#e3fae3"/><use xlink:href="#e" transform="matrix(1,0,0,1,7788,168) translate(43.024691358024825 46.22222222222217)"/><use xlink:href="#f" transform="matrix(1,0,0,1,7788,168) translate(39.814814814814966 115.55555555555543)"/><path d="M4700 638.3a6 6 0 0 1 6-6h68a6 6 0 0 1 6 6V1954a6 6 0 0 1-6 6h-68a6 6 0 0 1-6-6zM5498.7 638.3a6 6 0 0 1 6-6h69.3a6 6 0 0 1 6 6V1954a6 6 0 0 1-6 6h-69.3a6 6 0 0 1-6-6zM6300 638.3a6 6 0 0 1 6-6h68a6 6 0 0 1 6 6V1254a6 6 0 0 1-6 6h-68a6 6 0 0 1-6-6zM7100 1166a6 6 0 0 1 6-6h68a6 6 0 0 1 6 6v808a6 6 0 0 1-6 6h-68a6 6 0 0 1-6-6z" stroke="#3a414a" stroke-width="4" fill="#e3fae3"/><path d="M6040-114a6 6 0 0 1 6-6h788a6 6 0 0 1 6 6V34a6 6 0 0 1-6 6h-788a6 6 0 0 1-6-6z" fill="#fff" fill-opacity="0"/><use xlink:href="#g" transform="matrix(1,0,0,1,6045,-115) translate(10.50925925925992 91.47916666666657)"/><use xlink:href="#h" transform="matrix(1,0,0,1,6045,-115) translate(347.8425925925927 91.47916666666657)"/><use xlink:href="#i" transform="matrix(1,0,0,1,6045,-115) translate(449.6944444444444 91.47916666666657)"/><path d="M4759.75 179.75c0 10.9-8.84 19.75-19.75 19.75-10.9 0-19.75-8.84-19.75-19.75 0-10.9 8.84-19.75 19.75-19.75 10.9 0 19.75 8.84 19.75 19.75z" stroke="#3a414a" stroke-width="4" fill="#fff"/><path d="M4740 199.5v49.3a20.7 20.7 0 0 0 3.2 11.07L4780 318m-40-63.2l-40 63.2m0-98.75h80" stroke="#3a414a" stroke-width="4" fill="none"/><path d="M4700 166a6 6 0 0 1 6-6h68a6 6 0 0 1 6 6v168a6 6 0 0 1-6 6h-68a6 6 0 0 1-6-6z" fill="none"/><use xlink:href="#j" transform="matrix(1,0,0,1,4620,318) translate(32.188271604938336 40.88888888888886)"/><path d="M5380 166a6 6 0 0 1 6-6h308a6 6 0 0 1 6 6v228a6 6 0 0 1-6 6h-308a6 6 0 0 1-6-6z" stroke="#3a414a" stroke-width="4" fill="#e3fae3"/><use xlink:href="#k" transform="matrix(1,0,0,1,5388,168) translate(27.055555555555713 46.22222222222217)"/><use xlink:href="#l" transform="matrix(1,0,0,1,5388,168) translate(99.11728395061735 115.55555555555543)"/><path d="M5539.35 1965.5v11.33m0 15.1v22.64m0 15.1v22.65m0 15.1v22.65m0 15.1v11.33" stroke="#3a414a" stroke-width="7" fill="none"/><path d="M5542.85 1965.6h-7v-3.6h7z" stroke="#3a414a" stroke-width=".05" fill="#3a414a"/><path d="M5539.35 2116.4v3.6M5540 405.5v11.03m0 14.7v22.08m0 14.72v22.06m0 14.7v11.09l-.02.05v.05l-.04.04-.03.05-.03.03-.05.03-.04.03h-.05l-.05.02h-.1l-.05.03-.04.03-.05.04-.03.04-.03.04-.03.05v.05l-.02.05v11.03m0 14.7v22.08m0 14.7v22.07m0 14.7v11.04" stroke="#3a414a" stroke-width="7" fill="none"/><path d="M5543.5 405.6h-7V402h7zM5542.85 630.3h-7v-3.6h7z" stroke="#3a414a" stroke-width=".05" fill="#3a414a"/><path d="M6340 405.5v11.06m0 14.76v22.13m0 14.75v22.13m0 14.75v22.13m0 14.76v22.13m0 14.75v22.13m0 14.75v11.06" stroke="#3a414a" stroke-width="7" fill="none"/><path d="M6343.5 405.6h-7V402h7zM6343.5 630.3h-7v-3.6h7z" stroke="#3a414a" stroke-width=".05" fill="#3a414a"/><path d="M6340 1265.5v10.64m0 14.18v21.28m0 14.18v21.27m0 14.2v21.26m0 14.2v21.27m0 14.18v21.28m0 14.18v21.3m0 14.17v21.28m0 14.18v21.27m0 14.2v21.26m0 14.2v21.26m0 14.18v21.28m0 14.18v21.28m0 14.18v21.28m0 14.18v21.27m0 14.2V1808m0 14.2v21.27m0 14.18v21.28m0 14.18v21.3m0 14.17v21.28m0 14.18v21.27m0 14.2v21.26m0 14.2v21.26m0 14.18v21.28m0 14.18v10.64" stroke="#3a414a" stroke-width="7" fill="none"/><path d="M6343.5 1265.6h-7v-3.6h7z" stroke="#3a414a" stroke-width=".05" fill="#3a414a"/><path d="M6340 2116.4v3.6M7140 405.5v10.7m0 14.27v21.4m0 14.26v21.4m0 14.27v21.4m0 14.27v21.4m0 14.26v21.4m0 14.27v21.4m0 14.27v21.4m0 14.26v21.4m0 14.27v21.4m0 14.27v21.4m0 14.26v21.4m0 14.27v21.4m0 14.27v21.4m0 14.26v21.4m0 14.27v21.4m0 14.27v21.4m0 14.26v21.4m0 14.27v21.4m0 14.27v21.4m0 14.26v21.4m0 14.27v10.7" stroke="#3a414a" stroke-width="7" fill="none"/><path d="M7143.5 405.6h-7V402h7zM7143.5 1158h-7v-3.6h7z" stroke="#3a414a" stroke-width=".05" fill="#3a414a"/><path d="M7140 1985.5v9.83m0 13.1v19.64m0 13.1v19.65m0 13.1v19.65m0 13.1v9.83" stroke="#3a414a" stroke-width="7" fill="none"/><path d="M7143.5 1985.6h-7v-3.6h7z" stroke="#3a414a" stroke-width=".05" fill="#3a414a"/><path d="M7140 2116.4v3.6M7940 405.5v10.48m0 13.96v20.95m0 13.96v20.95m0 13.98v20.95m0 13.97v20.95m0 13.97v20.95m0 13.96v20.96m0 13.95v20.95m0 13.97v20.95m0 13.97v20.94m0 13.97v20.96m0 13.97v20.95m0 13.96V835m0 13.96v20.95m0 13.98v20.95m0 13.97v20.95m0 13.97v20.95m0 13.97v20.95m0 13.95v20.96m0 13.97v20.95m0 13.97v20.94m0 13.97v20.96m0 13.97v20.95m0 13.97v20.95m0 13.97v20.95m0 13.96v20.95m0 13.97v20.95m0 13.97v20.95m0 13.97v20.95m0 13.96v20.95m0 13.98v20.95m0 13.96v20.94m0 13.97v20.96m0 13.97v20.95m0 13.97v20.95m0 13.97v20.95m0 13.97v20.94m0 13.96v20.95m0 13.97v20.95m0 13.97v20.95m0 13.96v20.95m0 13.98v20.95m0 13.97v20.95m0 13.96v20.96m0 13.97v20.95m0 13.97v20.95m0 13.97v20.95m0 13.97v20.94m0 13.97v20.96m0 13.96v10.48" stroke="#3a414a" stroke-width="7" fill="none"/><path d="M7943.5 405.6h-7V402h7z" stroke="#3a414a" stroke-width=".05" fill="#3a414a"/><path d="M7940 2116.4v3.6M4740 403.5v11.17m0 14.88v22.33m0 14.9v22.32m0 14.88v22.33m0 14.9v22.33m0 14.88v22.34m0 14.9v11.15M4740 403.6V400" stroke="#3a414a" stroke-width="7" fill="none"/><path d="M4743.5 630.3h-7v-3.6h7z" stroke="#3a414a" stroke-width=".05" fill="#3a414a"/><path d="M4740 1965.5v11.33m0 15.1v22.64m0 15.1v22.65m0 15.1v22.65m0 15.1v11.33" stroke="#3a414a" stroke-width="7" fill="none"/><path d="M4743.5 1965.6h-7v-3.6h7z" stroke="#3a414a" stroke-width=".05" fill="#3a414a"/><path d="M4740 2116.4v3.6" stroke="#3a414a" stroke-width="7" fill="none"/><path d="M7900 638.3a6 6 0 0 1 6-6h68a6 6 0 0 1 6 6v739.76a6 6 0 0 1-6 6h-68a6 6 0 0 1-6-6z" stroke="#3a414a" stroke-width="4" fill="#e3fae3"/><path d="M4786.5 901.9h708.95M4786.56 901.9H4784M5477.87 912.1l17.22-10.2-17.23-10.17" stroke="#3a414a" stroke-width="5" fill="none"/><use xlink:href="#m" transform="matrix(1,0,0,1,4770.499899999999,905.9106070629921) translate(0 14.4)"/><use xlink:href="#m" transform="matrix(1,0,0,1,5486.5,866.1297787479789) translate(0 14.4)"/><path d="M4809.77 786a6 6 0 0 1 6-6h656.6a6 6 0 0 1 6 6v128a6 6 0 0 1-6 6h-656.6a6 6 0 0 1-6-6z" stroke="#000" stroke-opacity="0" fill="#fff" fill-opacity="0"/><use xlink:href="#n" transform="matrix(1,0,0,1,4814.765191915353,785) translate(81.39814814814838 44.98263888888885)"/><use xlink:href="#o" transform="matrix(1,0,0,1,4814.765191915353,785) translate(362.0833333333333 44.98263888888885)"/><use xlink:href="#p" transform="matrix(1,0,0,1,4814.765191915353,785) translate(230.1882716049384 106.31597222222211)"/><use xlink:href="#q" transform="matrix(1,0,0,1,4814.765191915353,785) translate(301.175925925926 106.31597222222211)"/><path d="M5588.55 741.9h708.95M5606.13 731.73l-17.22 10.18 17.23 10.2M6297.44 741.9h2.56" stroke="#3a414a" stroke-width="5" fill="none"/><use xlink:href="#m" transform="matrix(1,0,0,1,5570.499899999999,756.0914353779995) translate(0 14.4)"/><use xlink:href="#m" transform="matrix(1,0,0,1,6286.5,716.3106070629863) translate(0 14.4)"/><path d="M5609.77 626a6 6 0 0 1 6-6h656.6a6 6 0 0 1 6 6v128a6 6 0 0 1-6 6h-656.6a6 6 0 0 1-6-6z" stroke="#000" stroke-opacity="0" fill="#fff" fill-opacity="0"/><use xlink:href="#r" transform="matrix(1,0,0,1,5614.765191915353,625) translate(68.69135802469162 77.73263888888886)"/><use xlink:href="#s" transform="matrix(1,0,0,1,5614.765191915353,625) translate(238.63580246913588 77.73263888888886)"/><use xlink:href="#t" transform="matrix(1,0,0,1,5614.765191915353,625) translate(380.46913580246905 77.73263888888886)"/><use xlink:href="#u" transform="matrix(1,0,0,1,5614.765191915353,625) translate(423.0617283950616 77.73263888888886)"/><path d="M5582.5 1041.9h708.95M5582.56 1041.9H5580M6273.87 1052.1l17.22-10.2-17.23-10.17" stroke="#3a414a" stroke-width="5" fill="none"/><use xlink:href="#m" transform="matrix(1,0,0,1,5566.5,1045.9106070629919) translate(0 14.4)"/><use xlink:href="#m" transform="matrix(1,0,0,1,6282.500100000001,1006.1297787479791) translate(0 14.4)"/><path d="M5605.77 926a6 6 0 0 1 6-6h656.6a6 6 0 0 1 6 6v128a6 6 0 0 1-6 6h-656.6a6 6 0 0 1-6-6z" stroke="#000" stroke-opacity="0" fill="#fff" fill-opacity="0"/><use xlink:href="#v" transform="matrix(1,0,0,1,5610.765291915354,925) translate(82.60493827160519 44.98263888888885)"/><use xlink:href="#w" transform="matrix(1,0,0,1,5610.765291915354,925) translate(281.2283950617284 44.98263888888885)"/><use xlink:href="#x" transform="matrix(1,0,0,1,5610.765291915354,925) translate(3.311728395062005 106.31597222222211)"/><use xlink:href="#y" transform="matrix(1,0,0,1,5610.765291915354,925) translate(74.29938271604958 106.31597222222211)"/><use xlink:href="#z" transform="matrix(1,0,0,1,5610.765291915354,925) translate(128.10802469135817 106.31597222222211)"/><use xlink:href="#A" transform="matrix(1,0,0,1,5610.765291915354,925) translate(357.824074074074 106.31597222222211)"/><path d="M5590.62 1160h21.8m21.83 0h4.37m21.8 0h4.38m21.82 0h43.63m21.82 0h4.36m21.82 0h4.37m21.8 0h43.65m21.82 0h4.35m21.82 0h4.36m21.82 0H5966.02m21.94 0h4.4m21.93 0h4.38m21.95 0h43.9m21.93 0h4.4m21.93 0h4.38m21.94 0h43.9m21.94 0h4.4m21.93 0h4.38m21.94 0h21.95M5608.2 1149.82l-17.22 10.18 17.22 10.18M6299.5 1160h2.57" stroke="#3a414a" stroke-width="5" fill="none"/><use xlink:href="#m" transform="matrix(1,0,0,1,5572.570460108181,1174.180828315013) translate(0 14.4)"/><use xlink:href="#m" transform="matrix(1,0,0,1,6288.570560108181,1134.4) translate(0 14.4)"/><path d="M5611.84 1146a6 6 0 0 1 6-6h656.6a6 6 0 0 1 6 6v128a6 6 0 0 1-6 6h-656.6a6 6 0 0 1-6-6z" stroke="#000" stroke-opacity="0" fill="#fff" fill-opacity="0"/><use xlink:href="#B" transform="matrix(1,0,0,1,5616.835752023535,1145) translate(4.5185185185188175 77.73263888888886)"/><use xlink:href="#C" transform="matrix(1,0,0,1,5616.835752023535,1145) translate(262.77160493827165 77.73263888888886)"/><use xlink:href="#D" transform="matrix(1,0,0,1,5616.835752023535,1145) translate(359.3148148148148 77.73263888888886)"/><path d="M5634.7 1386a6 6 0 0 1 6-6H6334a6 6 0 0 1 6 6v128a6 6 0 0 1-6 6h-693.3a6 6 0 0 1-6-6z" stroke="#000" stroke-opacity="0" fill="#fff" fill-opacity="0"/><use xlink:href="#E" transform="matrix(1,0,0,1,5639.697260113984,1385) translate(121.05246913580268 77.73263888888886)"/><use xlink:href="#D" transform="matrix(1,0,0,1,5639.697260113984,1385) translate(279.78086419753095 77.73263888888886)"/><path d="M5582.5 1500h1512.95M5582.56 1500H5580M7077.87 1510.18l17.22-10.18-17.23-10.18" stroke="#3a414a" stroke-width="5" fill="none"/><use xlink:href="#m" transform="matrix(1,0,0,1,5566.5,1504.0000000000055) translate(0 14.4)"/><use xlink:href="#m" transform="matrix(1,0,0,1,7086.5,1464.2191716849925) translate(0 14.4)"/><path d="M7188.55 1281.9h708.95M7206.13 1271.73l-17.22 10.18 17.23 10.2M7897.44 1281.9h2.56" stroke="#3a414a" stroke-width="5" fill="none"/><g><use xlink:href="#m" transform="matrix(1,0,0,1,7170.499899999999,1296.0914353779997) translate(0 14.4)"/></g><g><use xlink:href="#m" transform="matrix(1,0,0,1,7886.5,1256.3106070629863) translate(0 14.4)"/></g><path d="M7209.77 1166a6 6 0 0 1 6-6h656.6a6 6 0 0 1 6 6v128a6 6 0 0 1-6 6h-656.6a6 6 0 0 1-6-6z" stroke="#000" stroke-opacity="0" fill="#fff" fill-opacity="0"/><g><use xlink:href="#F" transform="matrix(1,0,0,1,7214.765191915353,1165) translate(142.37654320987673 44.98263888888885)"/><use xlink:href="#G" transform="matrix(1,0,0,1,7214.765191915353,1165) translate(349.3765432098765 44.98263888888885)"/><use xlink:href="#H" transform="matrix(1,0,0,1,7214.765191915353,1165) translate(214.5709876543211 106.31597222222211)"/></g><path d="M5584.55 1620h23.25m23.26 0h4.65m23.26 0h4.65m23.27 0h46.5m23.26 0h4.65m23.26 0h4.65m23.24 0h46.5m23.27 0h4.66m23.25 0h4.66m23.26 0h46.5m23.26 0h4.65m23.26 0h4.64m23.25 0h46.5m23.26 0h4.65m23.26 0h4.65m23.27 0h46.5m23.26 0h4.65m23.26 0h4.65m23.24 0h46.58m23.32 0h4.66m23.32 0h4.66m23.32 0h46.63m23.32 0h4.67m23.3 0h4.68m23.32 0h46.63m23.32 0h4.66m23.32 0h4.66m23.33 0h46.64m23.32 0h4.65m23.32 0h4.66m23.32 0h46.63m23.32 0h4.66m23.32 0h4.67m23.32 0h46.63m23.32 0h4.66m23.32 0h4.66m23.32 0h23.32M5602.13 1609.82L5584.9 1620l17.23 10.18M7093.44 1620h2.56" stroke="#3a414a" stroke-width="5" fill="none"/><g><use xlink:href="#m" transform="matrix(1,0,0,1,5566.5,1634.1808283150128) translate(0 14.4)"/></g><g><use xlink:href="#m" transform="matrix(1,0,0,1,7082.500100000001,1594.4) translate(0 14.4)"/></g><path d="M6380 1606a6 6 0 0 1 6-6h698.22a6 6 0 0 1 6 6v128a6 6 0 0 1-6 6H6386a6 6 0 0 1-6-6z" stroke="#000" stroke-opacity="0" fill="#fff" fill-opacity="0"/><g><use xlink:href="#B" transform="matrix(1,0,0,1,6385,1605) translate(56.895061728395376 77.73263888888886)"/><use xlink:href="#C" transform="matrix(1,0,0,1,6385,1605) translate(315.1481481481482 77.73263888888886)"/><use xlink:href="#I" transform="matrix(1,0,0,1,6385,1605) translate(411.69135802469134 77.73263888888886)"/></g><path d="M4784.55 1800h21.8m21.83 0h4.36m21.82 0h4.37m21.82 0h43.63m21.82 0h4.36m21.82 0h4.36m21.82 0H5042m21.82 0h4.36m21.82 0h4.36m21.82 0H5159.94m21.95 0h4.38m21.94 0h4.4m21.94 0h43.88m21.95 0h4.38m21.94 0h4.4m21.94 0h43.88m21.95 0h4.38m21.94 0h4.4m21.94 0h21.94M4802.13 1789.82L4784.9 1800l17.23 10.18M5493.44 1800h2.56" stroke="#3a414a" stroke-width="5" fill="none"/><g><use xlink:href="#m" transform="matrix(1,0,0,1,4766.5,1814.1808283150126) translate(0 14.4)"/></g><g><use xlink:href="#m" transform="matrix(1,0,0,1,5482.500100000001,1774.3999999999996) translate(0 14.4)"/></g><path d="M4805.77 1786a6 6 0 0 1 6-6h656.6a6 6 0 0 1 6 6v128a6 6 0 0 1-6 6h-656.6a6 6 0 0 1-6-6z" stroke="#000" stroke-opacity="0" fill="#fff" fill-opacity="0"/><g><use xlink:href="#J" transform="matrix(1,0,0,1,4810.765291915354,1784.9999999999995) translate(119.80246913580271 77.73263888888886)"/><use xlink:href="#I" transform="matrix(1,0,0,1,4810.765291915354,1784.9999999999995) translate(306.78395061728395 77.73263888888886)"/></g><defs><path fill="#3a414a" d="M143 4C61 4 22-44 18-125c-5-107 100-154 193-111 17 8 29 25 37 43l-32 9c-13-25-37-40-76-40-61 0-88 39-88 99 0 61 29 100 91 101 35 0 62-11 79-27v-45h-74v-28h105v86C228-13 192 4 143 4" id="K"/><path fill="#3a414a" d="M100-194c62-1 85 37 85 99 1 63-27 99-86 99S16-35 15-95c0-66 28-99 85-99zM99-20c44 1 53-31 53-75 0-43-8-75-51-75s-53 32-53 75 10 74 51 75" id="L"/><path fill="#3a414a" d="M177-190C167-65 218 103 67 71c-23-6-38-20-44-43l32-5c15 47 100 32 89-28v-30C133-14 115 1 83 1 29 1 15-40 15-95c0-56 16-97 71-98 29-1 48 16 59 35 1-10 0-23 2-32h30zM94-22c36 0 50-32 50-73 0-42-14-75-50-75-39 0-46 34-46 75s6 73 46 73" id="M"/><path fill="#3a414a" d="M24 0v-261h32V0H24" id="N"/><path fill="#3a414a" d="M100-194c63 0 86 42 84 106H49c0 40 14 67 53 68 26 1 43-12 49-29l28 8c-11 28-37 45-77 45C44 4 14-33 15-96c1-61 26-98 85-98zm52 81c6-60-76-77-97-28-3 7-6 17-6 28h103" id="O"/><g id="a"><use transform="matrix(0.16049382716049362,0,0,0.16049382716049362,0,0)" xlink:href="#K"/><use transform="matrix(0.16049382716049362,0,0,0.16049382716049362,44.938271604938215,0)" xlink:href="#L"/><use transform="matrix(0.16049382716049362,0,0,0.16049382716049362,77.03703703703694,0)" xlink:href="#L"/><use transform="matrix(0.16049382716049362,0,0,0.16049382716049362,109.13580246913564,0)" xlink:href="#M"/><use transform="matrix(0.16049382716049362,0,0,0.16049382716049362,141.23456790123439,0)" xlink:href="#N"/><use transform="matrix(0.16049382716049362,0,0,0.16049382716049362,153.91358024691337,0)" xlink:href="#O"/></g><path fill="#3a414a" d="M210-169c-67 3-38 105-44 169h-31v-121c0-29-5-50-35-48C34-165 62-65 56 0H25l-1-190h30c1 10-1 24 2 32 10-44 99-50 107 0 11-21 27-35 58-36 85-2 47 119 55 194h-31v-121c0-29-5-49-35-48" id="P"/><path fill="#3a414a" d="M141-36C126-15 110 5 73 4 37 3 15-17 15-53c-1-64 63-63 125-63 3-35-9-54-41-54-24 1-41 7-42 31l-33-3c5-37 33-52 76-52 45 0 72 20 72 64v82c-1 20 7 32 28 27v20c-31 9-61-2-59-35zM48-53c0 20 12 33 32 33 41-3 63-29 60-74-43 2-92-5-92 41" id="Q"/><path fill="#3a414a" d="M115-194c55 1 70 41 70 98S169 2 115 4C84 4 66-9 55-30l1 105H24l-1-265h31l2 30c10-21 28-34 59-34zm-8 174c40 0 45-34 45-75s-6-73-45-74c-42 0-51 32-51 76 0 43 10 73 51 73" id="R"/><path fill="#3a414a" d="M135-143c-3-34-86-38-87 0 15 53 115 12 119 90S17 21 10-45l28-5c4 36 97 45 98 0-10-56-113-15-118-90-4-57 82-63 122-42 12 7 21 19 24 35" id="S"/><g id="b"><use transform="matrix(0.16049382716049362,0,0,0.16049382716049362,0,0)" xlink:href="#P"/><use transform="matrix(0.16049382716049362,0,0,0.16049382716049362,47.987654320987595,0)" xlink:href="#Q"/><use transform="matrix(0.16049382716049362,0,0,0.16049382716049362,80.08641975308632,0)" xlink:href="#R"/><use transform="matrix(0.16049382716049362,0,0,0.16049382716049362,112.18518518518505,0)" xlink:href="#S"/></g><path fill="#3a414a" d="M205 0l-28-72H64L36 0H1l101-248h38L239 0h-34zm-38-99l-47-123c-12 45-31 82-46 123h93" id="T"/><path fill="#3a414a" d="M30-248c87 1 191-15 191 75 0 78-77 80-158 76V0H30v-248zm33 125c57 0 124 11 124-50 0-59-68-47-124-48v98" id="U"/><path fill="#3a414a" d="M33 0v-248h34V0H33" id="V"/><g id="c"><use transform="matrix(0.16049382716049362,0,0,0.16049382716049362,0,0)" xlink:href="#T"/><use transform="matrix(0.16049382716049362,0,0,0.16049382716049362,38.51851851851847,0)" xlink:href="#U"/><use transform="matrix(0.16049382716049362,0,0,0.16049382716049362,77.03703703703694,0)" xlink:href="#V"/></g><path fill="#3a414a" d="M160-131c35 5 61 23 61 61C221 17 115-2 30 0v-248c76 3 177-17 177 60 0 33-19 50-47 57zm-97-11c50-1 110 9 110-42 0-47-63-36-110-37v79zm0 115c55-2 124 14 124-45 0-56-70-42-124-44v89" id="W"/><path fill="#3a414a" d="M96-169c-40 0-48 33-48 73s9 75 48 75c24 0 41-14 43-38l32 2c-6 37-31 61-74 61-59 0-76-41-82-99-10-93 101-131 147-64 4 7 5 14 7 22l-32 3c-4-21-16-35-41-35" id="X"/><path fill="#3a414a" d="M143 0L79-87 56-68V0H24v-261h32v163l83-92h37l-77 82L181 0h-38" id="Y"/><path fill="#3a414a" d="M16-82v-28h88v28H16" id="Z"/><path fill="#3a414a" d="M117-194c89-4 53 116 60 194h-32v-121c0-31-8-49-39-48C34-167 62-67 57 0H25l-1-190h30c1 10-1 24 2 32 11-22 29-35 61-36" id="aa"/><path fill="#3a414a" d="M85-194c31 0 48 13 60 33l-1-100h32l1 261h-30c-2-10 0-23-3-31C134-8 116 4 85 4 32 4 16-35 15-94c0-66 23-100 70-100zm9 24c-40 0-46 34-46 75 0 40 6 74 45 74 42 0 51-32 51-76 0-42-9-74-50-73" id="ab"/><g id="d"><use transform="matrix(0.16049382716049362,0,0,0.16049382716049362,0,0)" xlink:href="#W"/><use transform="matrix(0.16049382716049362,0,0,0.16049382716049362,38.51851851851847,0)" xlink:href="#Q"/><use transform="matrix(0.16049382716049362,0,0,0.16049382716049362,70.61728395061719,0)" xlink:href="#X"/><use transform="matrix(0.16049382716049362,0,0,0.16049382716049362,99.50617283950605,0)" xlink:href="#Y"/><use transform="matrix(0.16049382716049362,0,0,0.16049382716049362,128.3950617283949,0)" xlink:href="#Z"/><use transform="matrix(0.16049382716049362,0,0,0.16049382716049362,147.49382716049362,0)" xlink:href="#O"/><use transform="matrix(0.16049382716049362,0,0,0.16049382716049362,179.59259259259235,0)" xlink:href="#aa"/><use transform="matrix(0.16049382716049362,0,0,0.16049382716049362,211.69135802469108,0)" xlink:href="#ab"/></g><path fill="#3a414a" d="M240 0l2-218c-23 76-54 145-80 218h-23L58-218 59 0H30v-248h44l77 211c21-75 51-140 76-211h43V0h-30" id="ac"/><path fill="#3a414a" d="M106-169C34-169 62-67 57 0H25v-261h32l-1 103c12-21 28-36 61-36 89 0 53 116 60 194h-32v-121c2-32-8-49-39-48" id="ad"/><path fill="#3a414a" d="M24-231v-30h32v30H24zM24 0v-190h32V0H24" id="ae"/><g id="e"><use transform="matrix(0.16049382716049362,0,0,0.16049382716049362,0,0)" xlink:href="#ac"/><use transform="matrix(0.16049382716049362,0,0,0.16049382716049362,47.987654320987595,0)" xlink:href="#Q"/><use transform="matrix(0.16049382716049362,0,0,0.16049382716049362,80.08641975308632,0)" xlink:href="#X"/><use transform="matrix(0.16049382716049362,0,0,0.16049382716049362,108.97530864197518,0)" xlink:href="#ad"/><use transform="matrix(0.16049382716049362,0,0,0.16049382716049362,141.0740740740739,0)" xlink:href="#ae"/><use transform="matrix(0.16049382716049362,0,0,0.16049382716049362,153.7530864197529,0)" xlink:href="#aa"/><use transform="matrix(0.16049382716049362,0,0,0.16049382716049362,185.85185185185162,0)" xlink:href="#O"/></g><path fill="#3a414a" d="M30 0v-248h33v221h125V0H30" id="af"/><path fill="#3a414a" d="M114-163C36-179 61-72 57 0H25l-1-190h30c1 12-1 29 2 39 6-27 23-49 58-41v29" id="ag"/><g id="f"><use transform="matrix(0.16049382716049362,0,0,0.16049382716049362,0,0)" xlink:href="#af"/><use transform="matrix(0.16049382716049362,0,0,0.16049382716049362,32.09876543209872,0)" xlink:href="#O"/><use transform="matrix(0.16049382716049362,0,0,0.16049382716049362,64.19753086419745,0)" xlink:href="#Q"/><use transform="matrix(0.16049382716049362,0,0,0.16049382716049362,96.29629629629616,0)" xlink:href="#ag"/><use transform="matrix(0.16049382716049362,0,0,0.16049382716049362,115.39506172839492,0)" xlink:href="#aa"/><use transform="matrix(0.16049382716049362,0,0,0.16049382716049362,147.49382716049362,0)" xlink:href="#ae"/><use transform="matrix(0.16049382716049362,0,0,0.16049382716049362,160.1728395061726,0)" xlink:href="#aa"/><use transform="matrix(0.16049382716049362,0,0,0.16049382716049362,192.27160493827134,0)" xlink:href="#M"/></g><path fill="#3a414a" d="M30-248c118-7 216 8 213 122C240-48 200 0 122 0H30v-248zM63-27c89 8 146-16 146-99s-60-101-146-95v194" id="ah"/><g id="g"><use transform="matrix(0.2037037037037034,0,0,0.2037037037037034,0,0)" xlink:href="#ah"/><use transform="matrix(0.2037037037037034,0,0,0.2037037037037034,52.759259259259174,0)" xlink:href="#ae"/><use transform="matrix(0.2037037037037034,0,0,0.2037037037037034,68.85185185185173,0)" xlink:href="#Q"/><use transform="matrix(0.2037037037037034,0,0,0.2037037037037034,109.5925925925924,0)" xlink:href="#M"/><use transform="matrix(0.2037037037037034,0,0,0.2037037037037034,150.3333333333331,0)" xlink:href="#ag"/><use transform="matrix(0.2037037037037034,0,0,0.2037037037037034,174.5740740740738,0)" xlink:href="#Q"/><use transform="matrix(0.2037037037037034,0,0,0.2037037037037034,215.31481481481447,0)" xlink:href="#P"/><use transform="matrix(0.2037037037037034,0,0,0.2037037037037034,276.2222222222218,0)" xlink:href="#Q"/><path fill="#3a414a" d="M-3.67 5.08H341v5.37H-3.67z"/></g><g id="h"><use transform="matrix(0.2037037037037034,0,0,0.2037037037037034,0,0)" xlink:href="#ab"/><use transform="matrix(0.2037037037037034,0,0,0.2037037037037034,40.74074074074068,0)" xlink:href="#O"/><path fill="#3a414a" d="M-3.67 5.08h109.2v5.37H-3.68z"/></g><path fill="#3a414a" d="M84 4C-5 8 30-112 23-190h32v120c0 31 7 50 39 49 72-2 45-101 50-169h31l1 190h-30c-1-10 1-25-2-33-11 22-28 36-60 37" id="ai"/><g id="i"><use transform="matrix(0.2037037037037034,0,0,0.2037037037037034,0,0)" xlink:href="#S"/><use transform="matrix(0.2037037037037034,0,0,0.2037037037037034,36.66666666666661,0)" xlink:href="#O"/><use transform="matrix(0.2037037037037034,0,0,0.2037037037037034,77.40740740740728,0)" xlink:href="#X"/><use transform="matrix(0.2037037037037034,0,0,0.2037037037037034,114.07407407407388,0)" xlink:href="#ai"/><use transform="matrix(0.2037037037037034,0,0,0.2037037037037034,154.81481481481455,0)" xlink:href="#O"/><use transform="matrix(0.2037037037037034,0,0,0.2037037037037034,195.55555555555523,0)" xlink:href="#aa"/><use transform="matrix(0.2037037037037034,0,0,0.2037037037037034,236.29629629629594,0)" xlink:href="#X"/><use transform="matrix(0.2037037037037034,0,0,0.2037037037037034,272.96296296296254,0)" xlink:href="#ae"/><use transform="matrix(0.2037037037037034,0,0,0.2037037037037034,289.0555555555551,0)" xlink:href="#Q"/><path fill="#3a414a" d="M-3.67 5.08h337.13v5.37H-3.67z"/></g><path fill="#3a414a" d="M232-93c-1 65-40 97-104 97C67 4 28-28 28-90v-158h33c8 89-33 224 67 224 102 0 64-133 71-224h33v155" id="aj"/><g id="j"><use transform="matrix(0.1419753086419752,0,0,0.1419753086419752,0,0)" xlink:href="#aj"/><use transform="matrix(0.1419753086419752,0,0,0.1419753086419752,36.77160493827157,0)" xlink:href="#S"/><use transform="matrix(0.1419753086419752,0,0,0.1419753086419752,62.32716049382711,0)" xlink:href="#ai"/><use transform="matrix(0.1419753086419752,0,0,0.1419753086419752,90.72222222222214,0)" xlink:href="#Q"/><use transform="matrix(0.1419753086419752,0,0,0.1419753086419752,119.11728395061718,0)" xlink:href="#ag"/><use transform="matrix(0.1419753086419752,0,0,0.1419753086419752,136.01234567901224,0)" xlink:href="#ae"/><use transform="matrix(0.1419753086419752,0,0,0.1419753086419752,147.2283950617283,0)" xlink:href="#L"/></g><path fill="#3a414a" d="M63-220v92h138v28H63V0H30v-248h175v28H63" id="ak"/><path fill="#3a414a" d="M59-47c-2 24 18 29 38 22v24C64 9 27 4 27-40v-127H5v-23h24l9-43h21v43h35v23H59v120" id="al"/><g id="k"><use transform="matrix(0.16049382716049362,0,0,0.16049382716049362,0,0)" xlink:href="#ak"/><use transform="matrix(0.16049382716049362,0,0,0.16049382716049362,35.1481481481481,0)" xlink:href="#ag"/><use transform="matrix(0.16049382716049362,0,0,0.16049382716049362,54.24691358024683,0)" xlink:href="#L"/><use transform="matrix(0.16049382716049362,0,0,0.16049382716049362,86.34567901234556,0)" xlink:href="#aa"/><use transform="matrix(0.16049382716049362,0,0,0.16049382716049362,118.4444444444443,0)" xlink:href="#al"/><use transform="matrix(0.16049382716049362,0,0,0.16049382716049362,134.49382716049365,0)" xlink:href="#Z"/><use transform="matrix(0.16049382716049362,0,0,0.16049382716049362,153.59259259259238,0)" xlink:href="#O"/><use transform="matrix(0.16049382716049362,0,0,0.16049382716049362,185.6913580246911,0)" xlink:href="#aa"/><use transform="matrix(0.16049382716049362,0,0,0.16049382716049362,217.79012345678984,0)" xlink:href="#ab"/></g><path fill="#3a414a" d="M206 0h-36l-40-164L89 0H53L-1-190h32L70-26l43-164h34l41 164 42-164h31" id="am"/><path fill="#3a414a" d="M115-194c53 0 69 39 70 98 0 66-23 100-70 100C84 3 66-7 56-30L54 0H23l1-261h32v101c10-23 28-34 59-34zm-8 174c40 0 45-34 45-75 0-40-5-75-45-74-42 0-51 32-51 76 0 43 10 73 51 73" id="an"/><g id="l"><use transform="matrix(0.16049382716049362,0,0,0.16049382716049362,0,0)" xlink:href="#am"/><use transform="matrix(0.16049382716049362,0,0,0.16049382716049362,41.56790123456785,0)" xlink:href="#O"/><use transform="matrix(0.16049382716049362,0,0,0.16049382716049362,73.66666666666657,0)" xlink:href="#an"/></g><path d="M101-251c68 0 85 55 85 127S166 4 100 4C33 4 14-52 14-124c0-73 17-127 87-127zm-1 229c47 0 54-49 54-102s-4-102-53-102c-51 0-55 48-55 102 0 53 5 102 54 102" id="ao"/><path d="M33 0v-38h34V0H33" id="ap"/><path d="M80-196l47-18 7 23-49 13 32 44-20 13-27-46-27 45-21-12 33-44-49-13 8-23 47 19-2-53h23" id="aq"/><g id="m"><use transform="matrix(0.05,0,0,0.05,0,0)" xlink:href="#ao"/><use transform="matrix(0.05,0,0,0.05,10,0)" xlink:href="#ap"/><use transform="matrix(0.05,0,0,0.05,15,0)" xlink:href="#ap"/><use transform="matrix(0.05,0,0,0.05,20,0)" xlink:href="#aq"/></g><path fill="#333" d="M185-189c-5-48-123-54-124 2 14 75 158 14 163 119 3 78-121 87-175 55-17-10-28-26-33-46l33-7c5 56 141 63 141-1 0-78-155-14-162-118-5-82 145-84 179-34 5 7 8 16 11 25" id="ar"/><path fill="#333" d="M100-194c63 0 86 42 84 106H49c0 40 14 67 53 68 26 1 43-12 49-29l28 8c-11 28-37 45-77 45C44 4 14-33 15-96c1-61 26-98 85-98zm52 81c6-60-76-77-97-28-3 7-6 17-6 28h103" id="as"/><path fill="#333" d="M24 0v-261h32V0H24" id="at"/><path fill="#333" d="M96-169c-40 0-48 33-48 73s9 75 48 75c24 0 41-14 43-38l32 2c-6 37-31 61-74 61-59 0-76-41-82-99-10-93 101-131 147-64 4 7 5 14 7 22l-32 3c-4-21-16-35-41-35" id="au"/><path fill="#333" d="M24-231v-30h32v30H24zM24 0v-190h32V0H24" id="av"/><path fill="#333" d="M100-194c62-1 85 37 85 99 1 63-27 99-86 99S16-35 15-95c0-66 28-99 85-99zM99-20c44 1 53-31 53-75 0-43-8-75-51-75s-53 32-53 75 10 74 51 75" id="aw"/><path fill="#333" d="M117-194c89-4 53 116 60 194h-32v-121c0-31-8-49-39-48C34-167 62-67 57 0H25l-1-190h30c1 10-1 24 2 32 11-22 29-35 61-36" id="ax"/><path fill="#333" d="M141-36C126-15 110 5 73 4 37 3 15-17 15-53c-1-64 63-63 125-63 3-35-9-54-41-54-24 1-41 7-42 31l-33-3c5-37 33-52 76-52 45 0 72 20 72 64v82c-1 20 7 32 28 27v20c-31 9-61-2-59-35zM48-53c0 20 12 33 32 33 41-3 63-29 60-74-43 2-92-5-92 41" id="ay"/><path fill="#333" d="M114-163C36-179 61-72 57 0H25l-1-190h30c1 12-1 29 2 39 6-27 23-49 58-41v29" id="az"/><g id="n"><use transform="matrix(0.14197530864197516,0,0,0.14197530864197516,0,0)" xlink:href="#ar"/><use transform="matrix(0.14197530864197516,0,0,0.14197530864197516,34.07407407407404,0)" xlink:href="#as"/><use transform="matrix(0.14197530864197516,0,0,0.14197530864197516,62.46913580246907,0)" xlink:href="#at"/><use transform="matrix(0.14197530864197516,0,0,0.14197530864197516,73.6851851851851,0)" xlink:href="#as"/><use transform="matrix(0.14197530864197516,0,0,0.14197530864197516,102.08024691358014,0)" xlink:href="#au"/><use transform="matrix(0.14197530864197516,0,0,0.14197530864197516,127.63580246913567,0)" xlink:href="#au"/><use transform="matrix(0.14197530864197516,0,0,0.14197530864197516,153.1913580246912,0)" xlink:href="#av"/><use transform="matrix(0.14197530864197516,0,0,0.14197530864197516,164.40740740740725,0)" xlink:href="#aw"/><use transform="matrix(0.14197530864197516,0,0,0.14197530864197516,192.80246913580228,0)" xlink:href="#ax"/><use transform="matrix(0.14197530864197516,0,0,0.14197530864197516,221.19753086419735,0)" xlink:href="#ay"/><use transform="matrix(0.14197530864197516,0,0,0.14197530864197516,249.59259259259235,0)" xlink:href="#az"/></g><path fill="#333" d="M84 4C-5 8 30-112 23-190h32v120c0 31 7 50 39 49 72-2 45-101 50-169h31l1 190h-30c-1-10 1-25-2-33-11 22-28 36-60 37" id="aA"/><path fill="#333" d="M115-194c53 0 69 39 70 98 0 66-23 100-70 100C84 3 66-7 56-30L54 0H23l1-261h32v101c10-23 28-34 59-34zm-8 174c40 0 45-34 45-75 0-40-5-75-45-74-42 0-51 32-51 76 0 43 10 73 51 73" id="aB"/><path fill="#333" d="M100-194c62-1 85 37 85 99 1 63-27 99-86 99S16-35 15-95c0-66 28-99 85-99zM99-20c44 1 53-31 53-75 0-43-8-75-51-75s-53 32-53 75 10 74 51 75zM76-211c8-23 27-35 38-54h36v5l-58 49H76" id="aC"/><g id="o"><use transform="matrix(0.14197530864197516,0,0,0.14197530864197516,0,0)" xlink:href="#aA"/><use transform="matrix(0.14197530864197516,0,0,0.14197530864197516,28.39506172839503,0)" xlink:href="#aB"/><use transform="matrix(0.14197530864197516,0,0,0.14197530864197516,56.79012345679006,0)" xlink:href="#av"/><use transform="matrix(0.14197530864197516,0,0,0.14197530864197516,68.0061728395061,0)" xlink:href="#au"/><use transform="matrix(0.14197530864197516,0,0,0.14197530864197516,93.56172839506164,0)" xlink:href="#ay"/><use transform="matrix(0.14197530864197516,0,0,0.14197530864197516,121.95679012345667,0)" xlink:href="#au"/><use transform="matrix(0.14197530864197516,0,0,0.14197530864197516,147.51234567901218,0)" xlink:href="#av"/><use transform="matrix(0.14197530864197516,0,0,0.14197530864197516,158.72839506172824,0)" xlink:href="#aC"/><use transform="matrix(0.14197530864197516,0,0,0.14197530864197516,187.12345679012327,0)" xlink:href="#ax"/></g><g id="p"><use transform="matrix(0.14197530864197516,0,0,0.14197530864197516,0,0)" xlink:href="#as"/><use transform="matrix(0.14197530864197516,0,0,0.14197530864197516,28.39506172839503,0)" xlink:href="#ax"/></g><path fill="#333" d="M210-169c-67 3-38 105-44 169h-31v-121c0-29-5-50-35-48C34-165 62-65 56 0H25l-1-190h30c1 10-1 24 2 32 10-44 99-50 107 0 11-21 27-35 58-36 85-2 47 119 55 194h-31v-121c0-29-5-49-35-48" id="aD"/><path fill="#333" d="M115-194c55 1 70 41 70 98S169 2 115 4C84 4 66-9 55-30l1 105H24l-1-265h31l2 30c10-21 28-34 59-34zm-8 174c40 0 45-34 45-75s-6-73-45-74c-42 0-51 32-51 76 0 43 10 73 51 73" id="aE"/><g id="q"><use transform="matrix(0.14197530864197516,0,0,0.14197530864197516,0,0)" xlink:href="#aD"/><use transform="matrix(0.14197530864197516,0,0,0.14197530864197516,42.45061728395057,0)" xlink:href="#ay"/><use transform="matrix(0.14197530864197516,0,0,0.14197530864197516,70.8456790123456,0)" xlink:href="#aE"/><use transform="matrix(0.14197530864197516,0,0,0.14197530864197516,99.24074074074063,0)" xlink:href="#ay"/></g><path fill="#333" d="M212-179c-10-28-35-45-73-45-59 0-87 40-87 99 0 60 29 101 89 101 43 0 62-24 78-52l27 14C228-24 195 4 139 4 59 4 22-46 18-125c-6-104 99-153 187-111 19 9 31 26 39 46" id="aF"/><path fill="#333" d="M177-190C167-65 218 103 67 71c-23-6-38-20-44-43l32-5c15 47 100 32 89-28v-30C133-14 115 1 83 1 29 1 15-40 15-95c0-56 16-97 71-98 29-1 48 16 59 35 1-10 0-23 2-32h30zM94-22c36 0 50-32 50-73 0-42-14-75-50-75-39 0-46 34-46 75s6 73 46 73" id="aG"/><g id="r"><use transform="matrix(0.14197530864197516,0,0,0.14197530864197516,0,0)" xlink:href="#aF"/><use transform="matrix(0.14197530864197516,0,0,0.14197530864197516,36.771604938271565,0)" xlink:href="#ay"/><use transform="matrix(0.14197530864197516,0,0,0.14197530864197516,65.1666666666666,0)" xlink:href="#az"/><use transform="matrix(0.14197530864197516,0,0,0.14197530864197516,82.06172839506165,0)" xlink:href="#aG"/><use transform="matrix(0.14197530864197516,0,0,0.14197530864197516,110.4567901234567,0)" xlink:href="#ay"/><use transform="matrix(0.14197530864197516,0,0,0.14197530864197516,138.8518518518517,0)" xlink:href="#az"/></g><g id="s"><use transform="matrix(0.14197530864197516,0,0,0.14197530864197516,0,0)" xlink:href="#aD"/><use transform="matrix(0.14197530864197516,0,0,0.14197530864197516,42.45061728395057,0)" xlink:href="#ay"/><use transform="matrix(0.14197530864197516,0,0,0.14197530864197516,70.8456790123456,0)" xlink:href="#aE"/><use transform="matrix(0.14197530864197516,0,0,0.14197530864197516,99.24074074074063,0)" xlink:href="#ay"/></g><use transform="matrix(0.14197530864197516,0,0,0.14197530864197516,0,0)" xlink:href="#ay" id="t"/><path fill="#333" d="M59-47c-2 24 18 29 38 22v24C64 9 27 4 27-40v-127H5v-23h24l9-43h21v43h35v23H59v120" id="aH"/><path fill="#333" d="M101-234c-31-9-42 10-38 44h38v23H63V0H32v-167H5v-23h27c-7-52 17-82 69-68v24" id="aI"/><path fill="#333" d="M9 0v-24l116-142H16v-24h144v24L44-24h123V0H9" id="aJ"/><g id="u"><use transform="matrix(0.14197530864197516,0,0,0.14197530864197516,0,0)" xlink:href="#av"/><use transform="matrix(0.14197530864197516,0,0,0.14197530864197516,11.216049382716038,0)" xlink:href="#ax"/><use transform="matrix(0.14197530864197516,0,0,0.14197530864197516,39.61111111111107,0)" xlink:href="#aH"/><use transform="matrix(0.14197530864197516,0,0,0.14197530864197516,53.80864197530859,0)" xlink:href="#as"/><use transform="matrix(0.14197530864197516,0,0,0.14197530864197516,82.20370370370362,0)" xlink:href="#az"/><use transform="matrix(0.14197530864197516,0,0,0.14197530864197516,99.09876543209867,0)" xlink:href="#aI"/><use transform="matrix(0.14197530864197516,0,0,0.14197530864197516,113.29629629629619,0)" xlink:href="#ay"/><use transform="matrix(0.14197530864197516,0,0,0.14197530864197516,141.69135802469123,0)" xlink:href="#aJ"/></g><path fill="#333" d="M140-251c81 0 123 46 123 126C263-46 219 4 140 4 59 4 17-45 17-125s42-126 123-126zm0 227c63 0 89-41 89-101s-29-99-89-99c-61 0-89 39-89 99S79-25 140-24" id="aK"/><g id="v"><use transform="matrix(0.14197530864197516,0,0,0.14197530864197516,0,0)" xlink:href="#aK"/><use transform="matrix(0.14197530864197516,0,0,0.14197530864197516,39.753086419753046,0)" xlink:href="#aB"/><use transform="matrix(0.14197530864197516,0,0,0.14197530864197516,68.14814814814808,0)" xlink:href="#aH"/><use transform="matrix(0.14197530864197516,0,0,0.14197530864197516,82.3456790123456,0)" xlink:href="#as"/><use transform="matrix(0.14197530864197516,0,0,0.14197530864197516,110.74074074074062,0)" xlink:href="#ax"/><use transform="matrix(0.14197530864197516,0,0,0.14197530864197516,139.13580246913565,0)" xlink:href="#as"/><use transform="matrix(0.14197530864197516,0,0,0.14197530864197516,167.5308641975307,0)" xlink:href="#az"/></g><path fill="#333" d="M85-194c31 0 48 13 60 33l-1-100h32l1 261h-30c-2-10 0-23-3-31C134-8 116 4 85 4 32 4 16-35 15-94c0-66 23-100 70-100zm9 24c-40 0-46 34-46 75 0 40 6 74 45 74 42 0 51-32 51-76 0-42-9-74-50-73" id="aL"/><path fill="#333" d="M135-143c-3-34-86-38-87 0 15 53 115 12 119 90S17 21 10-45l28-5c4 36 97 45 98 0-10-56-113-15-118-90-4-57 82-63 122-42 12 7 21 19 24 35" id="aM"/><g id="w"><use transform="matrix(0.14197530864197516,0,0,0.14197530864197516,0,0)" xlink:href="#au"/><use transform="matrix(0.14197530864197516,0,0,0.14197530864197516,25.55555555555553,0)" xlink:href="#aw"/><use transform="matrix(0.14197530864197516,0,0,0.14197530864197516,53.950617283950564,0)" xlink:href="#aw"/><use transform="matrix(0.14197530864197516,0,0,0.14197530864197516,82.3456790123456,0)" xlink:href="#az"/><use transform="matrix(0.14197530864197516,0,0,0.14197530864197516,99.24074074074065,0)" xlink:href="#aL"/><use transform="matrix(0.14197530864197516,0,0,0.14197530864197516,127.63580246913568,0)" xlink:href="#as"/><use transform="matrix(0.14197530864197516,0,0,0.14197530864197516,156.0308641975307,0)" xlink:href="#ax"/><use transform="matrix(0.14197530864197516,0,0,0.14197530864197516,184.42592592592578,0)" xlink:href="#ay"/><use transform="matrix(0.14197530864197516,0,0,0.14197530864197516,212.8209876543208,0)" xlink:href="#aL"/><use transform="matrix(0.14197530864197516,0,0,0.14197530864197516,241.21604938271582,0)" xlink:href="#ay"/><use transform="matrix(0.14197530864197516,0,0,0.14197530864197516,269.61111111111086,0)" xlink:href="#aM"/></g><g id="x"><use transform="matrix(0.14197530864197516,0,0,0.14197530864197516,0,0)" xlink:href="#aL"/><use transform="matrix(0.14197530864197516,0,0,0.14197530864197516,28.39506172839503,0)" xlink:href="#as"/></g><g id="y"><use transform="matrix(0.14197530864197516,0,0,0.14197530864197516,0,0)" xlink:href="#at"/><use transform="matrix(0.14197530864197516,0,0,0.14197530864197516,11.216049382716038,0)" xlink:href="#ay"/></g><g id="z"><use transform="matrix(0.14197530864197516,0,0,0.14197530864197516,0,0)" xlink:href="#aA"/><use transform="matrix(0.14197530864197516,0,0,0.14197530864197516,28.39506172839503,0)" xlink:href="#aB"/><use transform="matrix(0.14197530864197516,0,0,0.14197530864197516,56.79012345679006,0)" xlink:href="#av"/><use transform="matrix(0.14197530864197516,0,0,0.14197530864197516,68.0061728395061,0)" xlink:href="#au"/><use transform="matrix(0.14197530864197516,0,0,0.14197530864197516,93.56172839506164,0)" xlink:href="#ay"/><use transform="matrix(0.14197530864197516,0,0,0.14197530864197516,121.95679012345667,0)" xlink:href="#au"/><use transform="matrix(0.14197530864197516,0,0,0.14197530864197516,147.51234567901218,0)" xlink:href="#av"/><use transform="matrix(0.14197530864197516,0,0,0.14197530864197516,158.72839506172824,0)" xlink:href="#aC"/><use transform="matrix(0.14197530864197516,0,0,0.14197530864197516,187.12345679012327,0)" xlink:href="#ax"/></g><g id="A"><use transform="matrix(0.14197530864197516,0,0,0.14197530864197516,0,0)" xlink:href="#aM"/><use transform="matrix(0.14197530864197516,0,0,0.14197530864197516,25.55555555555553,0)" xlink:href="#as"/><use transform="matrix(0.14197530864197516,0,0,0.14197530864197516,53.950617283950564,0)" xlink:href="#at"/><use transform="matrix(0.14197530864197516,0,0,0.14197530864197516,65.1666666666666,0)" xlink:href="#as"/><use transform="matrix(0.14197530864197516,0,0,0.14197530864197516,93.56172839506164,0)" xlink:href="#au"/><use transform="matrix(0.14197530864197516,0,0,0.14197530864197516,119.11728395061716,0)" xlink:href="#au"/><use transform="matrix(0.14197530864197516,0,0,0.14197530864197516,144.6728395061727,0)" xlink:href="#av"/><use transform="matrix(0.14197530864197516,0,0,0.14197530864197516,155.88888888888872,0)" xlink:href="#aw"/><use transform="matrix(0.14197530864197516,0,0,0.14197530864197516,184.28395061728378,0)" xlink:href="#ax"/><use transform="matrix(0.14197530864197516,0,0,0.14197530864197516,212.6790123456788,0)" xlink:href="#ay"/><use transform="matrix(0.14197530864197516,0,0,0.14197530864197516,241.07407407407385,0)" xlink:href="#aL"/><use transform="matrix(0.14197530864197516,0,0,0.14197530864197516,269.4691358024689,0)" xlink:href="#ay"/></g><path fill="#333" d="M233-177c-1 41-23 64-60 70L243 0h-38l-65-103H63V0H30v-248c88 3 205-21 203 71zM63-129c60-2 137 13 137-47 0-61-80-42-137-45v92" id="aN"/><g id="B"><use transform="matrix(0.14197530864197516,0,0,0.14197530864197516,0,0)" xlink:href="#aN"/><use transform="matrix(0.14197530864197516,0,0,0.14197530864197516,36.771604938271565,0)" xlink:href="#as"/><use transform="matrix(0.14197530864197516,0,0,0.14197530864197516,65.1666666666666,0)" xlink:href="#aM"/><use transform="matrix(0.14197530864197516,0,0,0.14197530864197516,90.72222222222213,0)" xlink:href="#aE"/><use transform="matrix(0.14197530864197516,0,0,0.14197530864197516,119.11728395061716,0)" xlink:href="#aA"/><use transform="matrix(0.14197530864197516,0,0,0.14197530864197516,147.51234567901218,0)" xlink:href="#as"/><use transform="matrix(0.14197530864197516,0,0,0.14197530864197516,175.90740740740722,0)" xlink:href="#aM"/><use transform="matrix(0.14197530864197516,0,0,0.14197530864197516,201.46296296296276,0)" xlink:href="#aH"/><use transform="matrix(0.14197530864197516,0,0,0.14197530864197516,215.66049382716028,0)" xlink:href="#ay"/></g><g id="C"><use transform="matrix(0.14197530864197516,0,0,0.14197530864197516,0,0)" xlink:href="#au"/><use transform="matrix(0.14197530864197516,0,0,0.14197530864197516,25.55555555555553,0)" xlink:href="#aw"/><use transform="matrix(0.14197530864197516,0,0,0.14197530864197516,53.950617283950564,0)" xlink:href="#ax"/></g><g id="D"><use transform="matrix(0.14197530864197516,0,0,0.14197530864197516,0,0)" xlink:href="#au"/><use transform="matrix(0.14197530864197516,0,0,0.14197530864197516,25.55555555555553,0)" xlink:href="#aw"/><use transform="matrix(0.14197530864197516,0,0,0.14197530864197516,53.950617283950564,0)" xlink:href="#aw"/><use transform="matrix(0.14197530864197516,0,0,0.14197530864197516,82.3456790123456,0)" xlink:href="#az"/><use transform="matrix(0.14197530864197516,0,0,0.14197530864197516,99.24074074074065,0)" xlink:href="#aL"/><use transform="matrix(0.14197530864197516,0,0,0.14197530864197516,127.63580246913568,0)" xlink:href="#as"/><use transform="matrix(0.14197530864197516,0,0,0.14197530864197516,156.0308641975307,0)" xlink:href="#ax"/><use transform="matrix(0.14197530864197516,0,0,0.14197530864197516,184.42592592592578,0)" xlink:href="#ay"/><use transform="matrix(0.14197530864197516,0,0,0.14197530864197516,212.8209876543208,0)" xlink:href="#aL"/><use transform="matrix(0.14197530864197516,0,0,0.14197530864197516,241.21604938271582,0)" xlink:href="#ay"/><use transform="matrix(0.14197530864197516,0,0,0.14197530864197516,269.61111111111086,0)" xlink:href="#aM"/></g><path fill="#333" d="M30 0v-248h187v28H63v79h144v27H63v87h162V0H30" id="aO"/><path fill="#333" d="M108 0H70L1-190h34L89-25l56-165h34" id="aP"/><g id="E"><use transform="matrix(0.14197530864197516,0,0,0.14197530864197516,0,0)" xlink:href="#aO"/><use transform="matrix(0.14197530864197516,0,0,0.14197530864197516,34.07407407407404,0)" xlink:href="#ax"/><use transform="matrix(0.14197530864197516,0,0,0.14197530864197516,62.46913580246907,0)" xlink:href="#aP"/><use transform="matrix(0.14197530864197516,0,0,0.14197530864197516,88.0246913580246,0)" xlink:href="#av"/><use transform="matrix(0.14197530864197516,0,0,0.14197530864197516,99.24074074074063,0)" xlink:href="#ay"/><use transform="matrix(0.14197530864197516,0,0,0.14197530864197516,127.63580246913567,0)" xlink:href="#az"/></g><path fill="#333" d="M141 0L90-78 38 0H4l68-98-65-92h35l48 74 47-74h35l-64 92 68 98h-35" id="aQ"/><g id="F"><use transform="matrix(0.14197530864197516,0,0,0.14197530864197516,0,0)" xlink:href="#aO"/><use transform="matrix(0.14197530864197516,0,0,0.14197530864197516,34.07407407407404,0)" xlink:href="#aQ"/><use transform="matrix(0.14197530864197516,0,0,0.14197530864197516,59.62962962962957,0)" xlink:href="#aE"/><use transform="matrix(0.14197530864197516,0,0,0.14197530864197516,88.0246913580246,0)" xlink:href="#aw"/><use transform="matrix(0.14197530864197516,0,0,0.14197530864197516,116.41975308641963,0)" xlink:href="#az"/><use transform="matrix(0.14197530864197516,0,0,0.14197530864197516,133.31481481481467,0)" xlink:href="#aH"/><use transform="matrix(0.14197530864197516,0,0,0.14197530864197516,147.51234567901218,0)" xlink:href="#ay"/><use transform="matrix(0.14197530864197516,0,0,0.14197530864197516,175.90740740740722,0)" xlink:href="#az"/></g><g id="G"><use transform="matrix(0.14197530864197516,0,0,0.14197530864197516,0,0)" xlink:href="#aD"/><use transform="matrix(0.14197530864197516,0,0,0.14197530864197516,42.45061728395057,0)" xlink:href="#aw"/><use transform="matrix(0.14197530864197516,0,0,0.14197530864197516,70.8456790123456,0)" xlink:href="#aL"/><use transform="matrix(0.14197530864197516,0,0,0.14197530864197516,99.24074074074063,0)" xlink:href="#as"/><use transform="matrix(0.14197530864197516,0,0,0.14197530864197516,127.63580246913567,0)" xlink:href="#at"/><use transform="matrix(0.14197530864197516,0,0,0.14197530864197516,138.8518518518517,0)" xlink:href="#aw"/></g><g id="H"><use transform="matrix(0.14197530864197516,0,0,0.14197530864197516,0,0)" xlink:href="#as"/><use transform="matrix(0.14197530864197516,0,0,0.14197530864197516,28.39506172839503,0)" xlink:href="#ax"/><use transform="matrix(0.14197530864197516,0,0,0.14197530864197516,56.79012345679006,0)" xlink:href="#aH"/><use transform="matrix(0.14197530864197516,0,0,0.14197530864197516,70.98765432098757,0)" xlink:href="#az"/><use transform="matrix(0.14197530864197516,0,0,0.14197530864197516,87.88271604938262,0)" xlink:href="#as"/><use transform="matrix(0.14197530864197516,0,0,0.14197530864197516,116.27777777777766,0)" xlink:href="#ax"/><use transform="matrix(0.14197530864197516,0,0,0.14197530864197516,144.6728395061727,0)" xlink:href="#ay"/><use transform="matrix(0.14197530864197516,0,0,0.14197530864197516,173.06790123456773,0)" xlink:href="#aL"/><use transform="matrix(0.14197530864197516,0,0,0.14197530864197516,201.46296296296276,0)" xlink:href="#aw"/></g><g id="I"><use transform="matrix(0.14197530864197516,0,0,0.14197530864197516,0,0)" xlink:href="#aE"/><use transform="matrix(0.14197530864197516,0,0,0.14197530864197516,28.39506172839503,0)" xlink:href="#az"/><use transform="matrix(0.14197530864197516,0,0,0.14197530864197516,45.29012345679008,0)" xlink:href="#as"/><use transform="matrix(0.14197530864197516,0,0,0.14197530864197516,73.6851851851851,0)" xlink:href="#aL"/><use transform="matrix(0.14197530864197516,0,0,0.14197530864197516,102.08024691358014,0)" xlink:href="#av"/><use transform="matrix(0.14197530864197516,0,0,0.14197530864197516,113.29629629629618,0)" xlink:href="#au"/><use transform="matrix(0.14197530864197516,0,0,0.14197530864197516,138.8518518518517,0)" xlink:href="#au"/><use transform="matrix(0.14197530864197516,0,0,0.14197530864197516,164.4074074074072,0)" xlink:href="#av"/><use transform="matrix(0.14197530864197516,0,0,0.14197530864197516,175.62345679012327,0)" xlink:href="#aC"/><use transform="matrix(0.14197530864197516,0,0,0.14197530864197516,204.0185185185183,0)" xlink:href="#ax"/></g><path fill="#333" d="M240 0l2-218c-23 76-54 145-80 218h-23L58-218 59 0H30v-248h44l77 211c21-75 51-140 76-211h43V0h-30" id="aR"/><g id="J"><use transform="matrix(0.14197530864197516,0,0,0.14197530864197516,0,0)" xlink:href="#aR"/><use transform="matrix(0.14197530864197516,0,0,0.14197530864197516,42.45061728395057,0)" xlink:href="#aw"/><use transform="matrix(0.14197530864197516,0,0,0.14197530864197516,70.8456790123456,0)" xlink:href="#aM"/><use transform="matrix(0.14197530864197516,0,0,0.14197530864197516,96.40123456790114,0)" xlink:href="#aH"/><use transform="matrix(0.14197530864197516,0,0,0.14197530864197516,110.59876543209865,0)" xlink:href="#az"/><use transform="matrix(0.14197530864197516,0,0,0.14197530864197516,127.4938271604937,0)" xlink:href="#ay"/><use transform="matrix(0.14197530864197516,0,0,0.14197530864197516,155.88888888888872,0)" xlink:href="#az"/></g></defs></g></svg>