<svg xmlns="http://www.w3.org/2000/svg" xmlns:xlink="http://www.w3.org/1999/xlink" xmlns:lucid="lucid" width="2903" height="1233"><g transform="translate(-447 1981)" lucid:page-tab-id="0_0"><path d="M-2000-2500h14500v5500H-2000z" fill="#fff"/><path d="M1180-1854a6 6 0 0 1 6-6h788a6 6 0 0 1 6 6v206a6 6 0 0 1-6 6h-788a6 6 0 0 1-6-6z" fill="#fff" fill-opacity="0"/><use xlink:href="#a" transform="matrix(1,0,0,1,1185,-1855) translate(198.28395061728412 74.61111111111106)"/><use xlink:href="#b" transform="matrix(1,0,0,1,1185,-1855) translate(515.1728395061727 74.61111111111106)"/><use xlink:href="#c" transform="matrix(1,0,0,1,1185,-1855) translate(188.42901234567918 157.27777777777766)"/><path d="M600-1636a6 6 0 0 1 6-6h348a6 6 0 0 1 6 6v168a6 6 0 0 1-6 6H606a6 6 0 0 1-6-6z" stroke="#3a414a" stroke-width="3" fill="#fff"/><path d="M580-1601a6 6 0 0 1 6-6h28a6 6 0 0 1 6 6v8a6 6 0 0 1-6 6h-28a6 6 0 0 1-6-6zM580-1511a6 6 0 0 1 6-6h28a6 6 0 0 1 6 6v8a6 6 0 0 1-6 6h-28a6 6 0 0 1-6-6z" stroke="#3a414a" stroke-width="3" fill="#fff"/><use xlink:href="#d" transform="matrix(1,0,0,1,656,-1624) translate(19.05555555555567 81.33333333333333)"/><path d="M1360-1244a6 6 0 0 1 6-6h348a6 6 0 0 1 6 6v168a6 6 0 0 1-6 6h-348a6 6 0 0 1-6-6z" stroke="#3a414a" stroke-width="3" fill="#e3fae3"/><path d="M1340-1209a6 6 0 0 1 6-6h28a6 6 0 0 1 6 6v8a6 6 0 0 1-6 6h-28a6 6 0 0 1-6-6zM1340-1119a6 6 0 0 1 6-6h28a6 6 0 0 1 6 6v8a6 6 0 0 1-6 6h-28a6 6 0 0 1-6-6z" stroke="#3a414a" stroke-width="3" fill="#e3fae3"/><use xlink:href="#e" transform="matrix(1,0,0,1,1416,-1232) translate(10.046296296296418 81.33333333333333)"/><use xlink:href="#f" transform="matrix(1,0,0,1,1416,-1232) translate(139.5462962962963 81.33333333333333)"/><path d="M2340-1594a6 6 0 0 1 6-6h348a6 6 0 0 1 6 6v168a6 6 0 0 1-6 6h-348a6 6 0 0 1-6-6z" stroke="#3a414a" stroke-width="3" fill="#f7f4e4"/><path d="M2320-1559a6 6 0 0 1 6-6h28a6 6 0 0 1 6 6v8a6 6 0 0 1-6 6h-28a6 6 0 0 1-6-6zM2320-1469a6 6 0 0 1 6-6h28a6 6 0 0 1 6 6v8a6 6 0 0 1-6 6h-28a6 6 0 0 1-6-6z" stroke="#3a414a" stroke-width="3" fill="#f7f4e4"/><use xlink:href="#g" transform="matrix(1,0,0,1,2396,-1582) translate(44.981481481481566 81.33333333333333)"/><use xlink:href="#h" transform="matrix(1,0,0,1,2396,-1582) translate(125.22222222222223 81.33333333333333)"/><path d="M2000-1340c0 22.1-17.9 40-40 40s-40-17.9-40-40 17.9-40 40-40 40 17.9 40 40z" stroke="#3a414a" stroke-width="3" fill="#6db1ff"/><path d="M1920-1305a6 6 0 0 1 6-6h228a6 6 0 0 1 6 6v110a6 6 0 0 1-6 6h-228a6 6 0 0 1-6-6z" stroke="#000" stroke-opacity="0" fill="#fff" fill-opacity="0"/><use xlink:href="#i" transform="matrix(1,0,0,1,1925,-1306) translate(28.827160493827236 39.055555555555536)"/><use xlink:href="#j" transform="matrix(1,0,0,1,1925,-1306) translate(79.32098765432102 92.38888888888883)"/><path d="M2120-1000c0 22.1-17.9 40-40 40s-40-17.9-40-40 17.9-40 40-40 40 17.9 40 40z" stroke="#3a414a" stroke-width="3" fill="#6db1ff"/><path d="M2040-949a6 6 0 0 1 6-6h228a6 6 0 0 1 6 6v78a6 6 0 0 1-6 6h-228a6 6 0 0 1-6-6z" stroke="#000" stroke-opacity="0" fill="#fff" fill-opacity="0"/><use xlink:href="#k" transform="matrix(1,0,0,1,2045,-950) translate(54.56790123456794 48.055555555555536)"/><path d="M2560-1244a6 6 0 0 1 6-6h308a6 6 0 0 1 6 6v168a6 6 0 0 1-6 6h-308a6 6 0 0 1-6-6z" stroke="#3a414a" stroke-width="3" fill="#fff3d9"/><path d="M2870-1240h-15v20h15z" stroke="#3a414a" fill="#fff3d9"/><path d="M2860-1236.67h-10v3.34h10zm0 10h-10v3.34h10z" stroke="#3a414a" fill="#fff3d9"/><use xlink:href="#l" transform="matrix(1,0,0,1,2560,-1250) translate(87.28895061728402 74.93055555555554)"/><use xlink:href="#m" transform="matrix(1,0,0,1,2560,-1250) translate(84.75808641975316 128.26388888888883)"/><path d="M2510-1395.76v54.76a6 6 0 0 0 6 6h116.67a6 6 0 0 1 6 6v54.76" stroke="#3a414a" stroke-width="4" fill="none"/><path d="M2510-1412.03l4.64 14.27h-9.28zM2638.67-1257.97l-4.64-14.27h9.27z" stroke="#3a414a" stroke-width="4" fill="#3a414a"/><path d="M1180-1344c0 22.1-17.9 40-40 40s-40-17.9-40-40 17.9-40 40-40 40 17.9 40 40z" stroke="#3a414a" stroke-width="3" fill="#6db1ff"/><path d="M980-1285a6 6 0 0 1 6-6h228a6 6 0 0 1 6 6v110a6 6 0 0 1-6 6H986a6 6 0 0 1-6-6z" stroke="#000" stroke-opacity="0" fill="#fff" fill-opacity="0"/><use xlink:href="#n" transform="matrix(1,0,0,1,985,-1286) translate(42.34567901234574 39.055555555555536)"/><use xlink:href="#o" transform="matrix(1,0,0,1,985,-1286) translate(27.592592592592666 92.38888888888883)"/><path d="M962.9-1550.6l150.46 150.46" stroke="#3a414a" stroke-width="4" fill="none"/><path d="M964.37-1551.96l-2.83 2.83-.04-.04v-5.66z" stroke="#3a414a" stroke-width=".05" fill="#3a414a"/><path d="M1124.86-1388.64l-13.37-6.8 6.55-6.57z" stroke="#3a414a" stroke-width="4" fill="#3a414a"/><path d="M1342.42-1176.08l-160.06-160.06" stroke="#3a414a" stroke-width="4" fill="none"/><path d="M1353.92-1164.58l-13.36-6.8 6.55-6.56z" stroke="#3a414a" stroke-width="4" fill="#3a414a"/><path d="M1183.8-1337.52l-2.82 2.83-.5-.48.7-3.6.08-1.3z" stroke="#3a414a" stroke-width=".05" fill="#3a414a"/><path d="M1723.23-1161l217.1-126.08" stroke="#3a414a" stroke-width="4" fill="none"/><path d="M1724.28-1159.3l-2.78 1.6v-4.6l.77-.46z" stroke="#3a414a" stroke-width=".05" fill="#3a414a"/><path d="M1954.4-1295.25l-10 11.17-4.66-8z" stroke="#3a414a" stroke-width="4" fill="#3a414a"/><path d="M2299.32-1543.14l-298 189.82" stroke="#3a414a" stroke-width="4" fill="none"/><path d="M2313.04-1551.88l-9.54 11.58-4.98-7.82z" stroke="#3a414a" stroke-width="4" fill="#3a414a"/><path d="M2002.42-1351.66l-2.27 1.44-.76-2.88-.45-1.1 1.32-.84z" stroke="#3a414a" stroke-width=".05" fill="#3a414a"/><path d="M2317.47-1462.37l-3.18 7m-4.25 9.34l-6.35 14m-4.24 9.35l-6.35 14m-4.23 9.34l-6.36 14m-4.22 9.35l-6.36 14m-4.24 9.35l-6.35 14m-4.24 9.35l-6.36 14m-4.24 9.34l-6.35 14m-4.24 9.34l-6.35 14m-4.23 9.35l-6.36 14m-4.24 9.34l-6.35 14m-4.24 9.35l-6.35 14m-4.24 9.34l-6.35 14m-4.25 9.35l-6.36 14m-4.24 9.35l-6.36 14m-4.23 9.35l-6.36 14m-4.23 9.34l-6.35 14m-4.24 9.34l-6.35 14m-4.24 9.35l-3.2 7" stroke="#3a414a" stroke-width="5" fill="none"/><path d="M2318.5-1467.94v6.1l-3.34-1.5 2.3-5.07z" stroke="#3a414a" stroke-width=".05" fill="#3a414a"/><path d="M2119.9-1026.9l1.66-14.9 8.44 3.82z" stroke="#3a414a" stroke-width="5" fill="#3a414a"/><path d="M1744.87-1106.2l9.1 3.3m18.2 6.58l18.22 6.6m18.2 6.57l18.2 6.6m18.2 6.57l18.2 6.58m18.2 6.6l18.2 6.57m18.22 6.6l18.2 6.57m18.2 6.58l18.2 6.6m18.22 6.57l18.2 6.57m18.2 6.6l9.1 3.28" stroke="#3a414a" stroke-width="5" fill="none"/><path d="M1729.1-1111.9l15 .5-3.15 8.72z" stroke="#3a414a" stroke-width="5" fill="#3a414a"/><path d="M2038.66-1002.6l-.16 2.58.1 2.7-3.36-1.2 1.7-4.7z" stroke="#3a414a" stroke-width=".05" fill="#3a414a"/><path d="M2840-1594a6 6 0 0 1 6-6h348a6 6 0 0 1 6 6v168a6 6 0 0 1-6 6h-348a6 6 0 0 1-6-6z" stroke="#3a414a" stroke-width="3" fill="#ffdda6"/><path d="M2820-1559a6 6 0 0 1 6-6h28a6 6 0 0 1 6 6v8a6 6 0 0 1-6 6h-28a6 6 0 0 1-6-6zM2820-1469a6 6 0 0 1 6-6h28a6 6 0 0 1 6 6v8a6 6 0 0 1-6 6h-28a6 6 0 0 1-6-6z" stroke="#3a414a" stroke-width="3" fill="#ffdda6"/><g><use xlink:href="#p" transform="matrix(1,0,0,1,2896,-1582) translate(90.28703703703708 37.33333333333331)"/><use xlink:href="#q" transform="matrix(1,0,0,1,2896,-1582) translate(42.38888888888897 93.33333333333326)"/><use xlink:href="#r" transform="matrix(1,0,0,1,2896,-1582) translate(-8.101851851851706 149.33333333333323)"/></g><path d="M3010-1416.5v75.5a6 6 0 0 1-6 6h-196.67a6 6 0 0 0-6 6v54.76" stroke="#3a414a" stroke-width="4" fill="none"/><path d="M3012-1416.45h-4v-2.05h4z" stroke="#3a414a" stroke-width=".05" fill="#3a414a"/><path d="M2801.33-1257.97l-4.63-14.27h9.27z" stroke="#3a414a" stroke-width="4" fill="#3a414a"/><defs><path fill="#3a414a" d="M30-248c118-7 216 8 213 122C240-48 200 0 122 0H30v-248zM63-27c89 8 146-16 146-99s-60-101-146-95v194" id="s"/><path fill="#3a414a" d="M24-231v-30h32v30H24zM24 0v-190h32V0H24" id="t"/><path fill="#3a414a" d="M141-36C126-15 110 5 73 4 37 3 15-17 15-53c-1-64 63-63 125-63 3-35-9-54-41-54-24 1-41 7-42 31l-33-3c5-37 33-52 76-52 45 0 72 20 72 64v82c-1 20 7 32 28 27v20c-31 9-61-2-59-35zM48-53c0 20 12 33 32 33 41-3 63-29 60-74-43 2-92-5-92 41" id="u"/><path fill="#3a414a" d="M177-190C167-65 218 103 67 71c-23-6-38-20-44-43l32-5c15 47 100 32 89-28v-30C133-14 115 1 83 1 29 1 15-40 15-95c0-56 16-97 71-98 29-1 48 16 59 35 1-10 0-23 2-32h30zM94-22c36 0 50-32 50-73 0-42-14-75-50-75-39 0-46 34-46 75s6 73 46 73" id="v"/><path fill="#3a414a" d="M114-163C36-179 61-72 57 0H25l-1-190h30c1 12-1 29 2 39 6-27 23-49 58-41v29" id="w"/><path fill="#3a414a" d="M210-169c-67 3-38 105-44 169h-31v-121c0-29-5-50-35-48C34-165 62-65 56 0H25l-1-190h30c1 10-1 24 2 32 10-44 99-50 107 0 11-21 27-35 58-36 85-2 47 119 55 194h-31v-121c0-29-5-49-35-48" id="x"/><g id="a"><use transform="matrix(0.19135802469135785,0,0,0.19135802469135785,0,0)" xlink:href="#s"/><use transform="matrix(0.19135802469135785,0,0,0.19135802469135785,49.561728395061685,0)" xlink:href="#t"/><use transform="matrix(0.19135802469135785,0,0,0.19135802469135785,64.67901234567896,0)" xlink:href="#u"/><use transform="matrix(0.19135802469135785,0,0,0.19135802469135785,102.95061728395052,0)" xlink:href="#v"/><use transform="matrix(0.19135802469135785,0,0,0.19135802469135785,141.2222222222221,0)" xlink:href="#w"/><use transform="matrix(0.19135802469135785,0,0,0.19135802469135785,163.99382716049368,0)" xlink:href="#u"/><use transform="matrix(0.19135802469135785,0,0,0.19135802469135785,202.26543209876525,0)" xlink:href="#x"/><use transform="matrix(0.19135802469135785,0,0,0.19135802469135785,259.48148148148124,0)" xlink:href="#u"/><path fill="#3a414a" d="M-3.44 4.78h323.78v5.05H-3.44z"/></g><path fill="#3a414a" d="M85-194c31 0 48 13 60 33l-1-100h32l1 261h-30c-2-10 0-23-3-31C134-8 116 4 85 4 32 4 16-35 15-94c0-66 23-100 70-100zm9 24c-40 0-46 34-46 75 0 40 6 74 45 74 42 0 51-32 51-76 0-42-9-74-50-73" id="y"/><path fill="#3a414a" d="M100-194c63 0 86 42 84 106H49c0 40 14 67 53 68 26 1 43-12 49-29l28 8c-11 28-37 45-77 45C44 4 14-33 15-96c1-61 26-98 85-98zm52 81c6-60-76-77-97-28-3 7-6 17-6 28h103" id="z"/><g id="b"><use transform="matrix(0.19135802469135785,0,0,0.19135802469135785,0,0)" xlink:href="#y"/><use transform="matrix(0.19135802469135785,0,0,0.19135802469135785,38.27160493827157,0)" xlink:href="#z"/><path fill="#3a414a" d="M-3.44 4.78H80v5.05H-3.45z"/></g><path fill="#3a414a" d="M96-169c-40 0-48 33-48 73s9 75 48 75c24 0 41-14 43-38l32 2c-6 37-31 61-74 61-59 0-76-41-82-99-10-93 101-131 147-64 4 7 5 14 7 22l-32 3c-4-21-16-35-41-35" id="A"/><path fill="#3a414a" d="M100-194c62-1 85 37 85 99 1 63-27 99-86 99S16-35 15-95c0-66 28-99 85-99zM99-20c44 1 53-31 53-75 0-43-8-75-51-75s-53 32-53 75 10 74 51 75" id="B"/><path fill="#3a414a" d="M115-194c55 1 70 41 70 98S169 2 115 4C84 4 66-9 55-30l1 105H24l-1-265h31l2 30c10-21 28-34 59-34zm-8 174c40 0 45-34 45-75s-6-73-45-74c-42 0-51 32-51 76 0 43 10 73 51 73" id="C"/><path fill="#3a414a" d="M117-194c89-4 53 116 60 194h-32v-121c0-31-8-49-39-48C34-167 62-67 57 0H25l-1-190h30c1 10-1 24 2 32 11-22 29-35 61-36" id="D"/><path fill="#3a414a" d="M59-47c-2 24 18 29 38 22v24C64 9 27 4 27-40v-127H5v-23h24l9-43h21v43h35v23H59v120" id="E"/><path fill="#3a414a" d="M135-143c-3-34-86-38-87 0 15 53 115 12 119 90S17 21 10-45l28-5c4 36 97 45 98 0-10-56-113-15-118-90-4-57 82-63 122-42 12 7 21 19 24 35" id="F"/><g id="c"><use transform="matrix(0.19135802469135785,0,0,0.19135802469135785,0,0)" xlink:href="#A"/><use transform="matrix(0.19135802469135785,0,0,0.19135802469135785,34.444444444444414,0)" xlink:href="#B"/><use transform="matrix(0.19135802469135785,0,0,0.19135802469135785,72.716049382716,0)" xlink:href="#x"/><use transform="matrix(0.19135802469135785,0,0,0.19135802469135785,129.932098765432,0)" xlink:href="#C"/><use transform="matrix(0.19135802469135785,0,0,0.19135802469135785,168.20370370370355,0)" xlink:href="#B"/><use transform="matrix(0.19135802469135785,0,0,0.19135802469135785,206.47530864197512,0)" xlink:href="#D"/><use transform="matrix(0.19135802469135785,0,0,0.19135802469135785,244.74691358024668,0)" xlink:href="#z"/><use transform="matrix(0.19135802469135785,0,0,0.19135802469135785,283.01851851851825,0)" xlink:href="#D"/><use transform="matrix(0.19135802469135785,0,0,0.19135802469135785,321.29012345678984,0)" xlink:href="#E"/><use transform="matrix(0.19135802469135785,0,0,0.19135802469135785,340.42592592592564,0)" xlink:href="#z"/><use transform="matrix(0.19135802469135785,0,0,0.19135802469135785,378.69753086419723,0)" xlink:href="#F"/><path fill="#3a414a" d="M-3.44 4.78H416.6v5.05H-3.45z"/></g><path fill="#3a414a" d="M190 0L58-211 59 0H30v-248h39L202-35l-2-213h31V0h-41" id="G"/><path fill="#3a414a" d="M108 0H70L1-190h34L89-25l56-165h34" id="H"/><g id="d"><use transform="matrix(0.1296296296296295,0,0,0.1296296296296295,0,0)" xlink:href="#G"/><use transform="matrix(0.1296296296296295,0,0,0.1296296296296295,33.57407407407404,0)" xlink:href="#u"/><use transform="matrix(0.1296296296296295,0,0,0.1296296296296295,59.49999999999994,0)" xlink:href="#H"/><use transform="matrix(0.1296296296296295,0,0,0.1296296296296295,82.83333333333326,0)" xlink:href="#z"/><use transform="matrix(0.1296296296296295,0,0,0.1296296296296295,108.75925925925917,0)" xlink:href="#v"/><use transform="matrix(0.1296296296296295,0,0,0.1296296296296295,134.68518518518505,0)" xlink:href="#u"/><use transform="matrix(0.1296296296296295,0,0,0.1296296296296295,160.61111111111094,0)" xlink:href="#y"/><use transform="matrix(0.1296296296296295,0,0,0.1296296296296295,186.53703703703684,0)" xlink:href="#B"/><use transform="matrix(0.1296296296296295,0,0,0.1296296296296295,212.46296296296273,0)" xlink:href="#w"/></g><path fill="#3a414a" d="M240 0l2-218c-23 76-54 145-80 218h-23L58-218 59 0H30v-248h44l77 211c21-75 51-140 76-211h43V0h-30" id="I"/><g id="e"><use transform="matrix(0.1296296296296295,0,0,0.1296296296296295,0,0)" xlink:href="#I"/><use transform="matrix(0.1296296296296295,0,0,0.1296296296296295,38.759259259259224,0)" xlink:href="#u"/><use transform="matrix(0.1296296296296295,0,0,0.1296296296296295,64.68518518518513,0)" xlink:href="#C"/><use transform="matrix(0.1296296296296295,0,0,0.1296296296296295,90.61111111111103,0)" xlink:href="#u"/></g><path fill="#3a414a" d="M101-234c-31-9-42 10-38 44h38v23H63V0H32v-167H5v-23h27c-7-52 17-82 69-68v24" id="J"/><path fill="#3a414a" d="M24 0v-261h32V0H24" id="K"/><path fill="#3a414a" d="M84 4C-5 8 30-112 23-190h32v120c0 31 7 50 39 49 72-2 45-101 50-169h31l1 190h-30c-1-10 1-25-2-33-11 22-28 36-60 37" id="L"/><g id="f"><use transform="matrix(0.1296296296296295,0,0,0.1296296296296295,0,0)" xlink:href="#J"/><use transform="matrix(0.1296296296296295,0,0,0.1296296296296295,12.962962962962951,0)" xlink:href="#K"/><use transform="matrix(0.1296296296296295,0,0,0.1296296296296295,23.20370370370368,0)" xlink:href="#L"/><use transform="matrix(0.1296296296296295,0,0,0.1296296296296295,49.129629629629584,0)" xlink:href="#E"/><use transform="matrix(0.1296296296296295,0,0,0.1296296296296295,62.09259259259254,0)" xlink:href="#E"/><use transform="matrix(0.1296296296296295,0,0,0.1296296296296295,75.05555555555549,0)" xlink:href="#z"/><use transform="matrix(0.1296296296296295,0,0,0.1296296296296295,100.98148148148138,0)" xlink:href="#w"/></g><path fill="#3a414a" d="M205 0l-28-72H64L36 0H1l101-248h38L239 0h-34zm-38-99l-47-123c-12 45-31 82-46 123h93" id="M"/><g id="g"><use transform="matrix(0.1296296296296295,0,0,0.1296296296296295,0,0)" xlink:href="#M"/><use transform="matrix(0.1296296296296295,0,0,0.1296296296296295,31.111111111111082,0)" xlink:href="#C"/><use transform="matrix(0.1296296296296295,0,0,0.1296296296296295,57.037037037036974,0)" xlink:href="#t"/></g><path fill="#3a414a" d="M143 0L79-87 56-68V0H24v-261h32v163l83-92h37l-77 82L181 0h-38" id="N"/><g id="h"><use transform="matrix(0.1296296296296295,0,0,0.1296296296296295,0,0)" xlink:href="#J"/><use transform="matrix(0.1296296296296295,0,0,0.1296296296296295,12.962962962962951,0)" xlink:href="#K"/><use transform="matrix(0.1296296296296295,0,0,0.1296296296296295,23.20370370370368,0)" xlink:href="#u"/><use transform="matrix(0.1296296296296295,0,0,0.1296296296296295,49.129629629629584,0)" xlink:href="#F"/><use transform="matrix(0.1296296296296295,0,0,0.1296296296296295,72.46296296296289,0)" xlink:href="#N"/></g><path fill="#3a414a" d="M240-174c0 40-23 61-54 70L253 0h-59l-57-94H76V0H24v-248c93 4 217-23 216 74zM76-134c48-2 112 12 112-38 0-48-66-32-112-35v73" id="O"/><path fill="#3a414a" d="M24 0v-248h195v40H76v63h132v40H76v65h150V0H24" id="P"/><path fill="#3a414a" d="M169-182c-1-43-94-46-97-3 18 66 151 10 154 114 3 95-165 93-204 36-6-8-10-19-12-30l50-8c3 46 112 56 116 5-17-69-150-10-154-114-4-87 153-88 188-35 5 8 8 18 10 28" id="Q"/><path fill="#3a414a" d="M136-208V0H84v-208H4v-40h212v40h-80" id="R"/><path fill="#3a414a" d="M121-226c-27-7-43 5-38 36h38v33H83V0H34v-157H6v-33h28c-9-59 32-81 87-68v32" id="S"/><path fill="#3a414a" d="M85 4C-2 5 27-109 22-190h50c7 57-23 150 33 157 60-5 35-97 40-157h50l1 190h-47c-2-12 1-28-3-38-12 25-28 42-61 42" id="T"/><path fill="#3a414a" d="M25 0v-261h50V0H25" id="U"/><g id="i"><use transform="matrix(0.1234567901234567,0,0,0.1234567901234567,0,0)" xlink:href="#O"/><use transform="matrix(0.1234567901234567,0,0,0.1234567901234567,31.975308641975285,0)" xlink:href="#P"/><use transform="matrix(0.1234567901234567,0,0,0.1234567901234567,61.604938271604894,0)" xlink:href="#Q"/><use transform="matrix(0.1234567901234567,0,0,0.1234567901234567,91.2345679012345,0)" xlink:href="#R"/><use transform="matrix(0.1234567901234567,0,0,0.1234567901234567,118.27160493827151,0)" xlink:href="#S"/><use transform="matrix(0.1234567901234567,0,0,0.1234567901234567,132.96296296296285,0)" xlink:href="#T"/><use transform="matrix(0.1234567901234567,0,0,0.1234567901234567,159.99999999999986,0)" xlink:href="#U"/></g><path fill="#3a414a" d="M199 0l-22-63H83L61 0H9l90-248h61L250 0h-51zm-33-102l-36-108c-10 38-24 72-36 108h72" id="V"/><path fill="#3a414a" d="M135-194c53 0 70 44 70 98 0 56-19 98-73 100-31 1-45-17-59-34 3 33 2 69 2 105H25l-1-265h48c2 10 0 23 3 31 11-24 29-35 60-35zM114-30c33 0 39-31 40-66 0-38-9-64-40-64-56 0-55 130 0 130" id="W"/><path fill="#3a414a" d="M25-224v-37h50v37H25zM25 0v-190h50V0H25" id="X"/><g id="j"><use transform="matrix(0.1234567901234567,0,0,0.1234567901234567,0,0)" xlink:href="#V"/><use transform="matrix(0.1234567901234567,0,0,0.1234567901234567,31.975308641975285,0)" xlink:href="#W"/><use transform="matrix(0.1234567901234567,0,0,0.1234567901234567,59.0123456790123,0)" xlink:href="#X"/></g><path fill="#3a414a" d="M176-78C186 10 51 31 16-35c-5-9-9-19-11-32l52-8c4 21 12 37 35 38 23 0 32-16 32-40v-130H75v-41h101v170" id="Y"/><path fill="#3a414a" d="M140-251c80 0 125 45 125 126S219 4 139 4C58 4 15-44 15-125s44-126 125-126zm-1 214c52 0 73-35 73-88 0-50-21-86-72-86-52 0-73 35-73 86s22 88 72 88" id="Z"/><path fill="#3a414a" d="M175 0L67-191c6 58 2 128 3 191H24v-248h59L193-55c-6-58-2-129-3-193h46V0h-61" id="aa"/><g id="k"><use transform="matrix(0.1234567901234567,0,0,0.1234567901234567,0,0)" xlink:href="#Y"/><use transform="matrix(0.1234567901234567,0,0,0.1234567901234567,24.69135802469134,0)" xlink:href="#Q"/><use transform="matrix(0.1234567901234567,0,0,0.1234567901234567,54.320987654320945,0)" xlink:href="#Z"/><use transform="matrix(0.1234567901234567,0,0,0.1234567901234567,88.88888888888883,0)" xlink:href="#aa"/></g><g id="l"><use transform="matrix(0.1234567901234567,0,0,0.1234567901234567,0,0)" xlink:href="#I"/><use transform="matrix(0.1234567901234567,0,0,0.1234567901234567,36.913580246913554,0)" xlink:href="#B"/><use transform="matrix(0.1234567901234567,0,0,0.1234567901234567,61.604938271604894,0)" xlink:href="#y"/><use transform="matrix(0.1234567901234567,0,0,0.1234567901234567,86.29629629629623,0)" xlink:href="#z"/><use transform="matrix(0.1234567901234567,0,0,0.1234567901234567,110.98765432098757,0)" xlink:href="#K"/><use transform="matrix(0.1234567901234567,0,0,0.1234567901234567,120.74074074074065,0)" xlink:href="#B"/></g><path fill="#3a414a" d="M194 0L95-120 63-95V0H30v-248h33v124l119-124h40L117-140 236 0h-42" id="ab"/><path fill="#3a414a" d="M30 0v-248h187v28H63v79h144v27H63v87h162V0H30" id="ac"/><path fill="#3a414a" d="M233-177c-1 41-23 64-60 70L243 0h-38l-65-103H63V0H30v-248c88 3 205-21 203 71zM63-129c60-2 137 13 137-47 0-61-80-42-137-45v92" id="ad"/><path fill="#3a414a" d="M185-189c-5-48-123-54-124 2 14 75 158 14 163 119 3 78-121 87-175 55-17-10-28-26-33-46l33-7c5 56 141 63 141-1 0-78-155-14-162-118-5-82 145-84 179-34 5 7 8 16 11 25" id="ae"/><g id="m"><use transform="matrix(0.1234567901234567,0,0,0.1234567901234567,0,0)" xlink:href="#ab"/><use transform="matrix(0.1234567901234567,0,0,0.1234567901234567,29.62962962962961,0)" xlink:href="#ac"/><use transform="matrix(0.1234567901234567,0,0,0.1234567901234567,59.25925925925922,0)" xlink:href="#ad"/><use transform="matrix(0.1234567901234567,0,0,0.1234567901234567,91.2345679012345,0)" xlink:href="#M"/><use transform="matrix(0.1234567901234567,0,0,0.1234567901234567,120.8641975308641,0)" xlink:href="#ae"/></g><path fill="#3a414a" d="M186 0v-106H76V0H24v-248h52v99h110v-99h50V0h-50" id="af"/><path fill="#3a414a" d="M24-248c93 1 206-16 204 79-1 75-69 88-152 82V0H24v-248zm52 121c47 0 100 7 100-41 0-47-54-39-100-39v80" id="ag"/><g id="n"><use transform="matrix(0.1234567901234567,0,0,0.1234567901234567,0,0)" xlink:href="#af"/><use transform="matrix(0.1234567901234567,0,0,0.1234567901234567,31.975308641975285,0)" xlink:href="#R"/><use transform="matrix(0.1234567901234567,0,0,0.1234567901234567,59.0123456790123,0)" xlink:href="#R"/><use transform="matrix(0.1234567901234567,0,0,0.1234567901234567,86.04938271604931,0)" xlink:href="#ag"/><use transform="matrix(0.1234567901234567,0,0,0.1234567901234567,115.67901234567891,0)" xlink:href="#Q"/></g><path fill="#3a414a" d="M185-48c-13 30-37 53-82 52C43 2 14-33 14-96s30-98 90-98c62 0 83 45 84 108H66c0 31 8 55 39 56 18 0 30-7 34-22zm-45-69c5-46-57-63-70-21-2 6-4 13-4 21h74" id="ah"/><path fill="#3a414a" d="M84 4C32 4 15-41 15-95c0-55 18-99 73-99 29 0 47 12 58 34l2-30h48l-1 265h-49V-32C136-9 114 4 84 4zm21-34c32 0 41-29 41-66 0-36-9-64-40-64-33 0-39 30-40 65 0 43 13 65 39 65" id="ai"/><path fill="#3a414a" d="M137-138c1-29-70-34-71-4 15 46 118 7 119 86 1 83-164 76-172 9l43-7c4 19 20 25 44 25 33 8 57-30 24-41C81-84 22-81 20-136c-2-80 154-74 161-7" id="aj"/><path fill="#3a414a" d="M115-3C79 11 28 4 28-45v-112H4v-33h27l15-45h31v45h36v33H77v99c-1 23 16 31 38 25v30" id="ak"/><g id="o"><use transform="matrix(0.1234567901234567,0,0,0.1234567901234567,0,0)" xlink:href="#O"/><use transform="matrix(0.1234567901234567,0,0,0.1234567901234567,31.975308641975285,0)" xlink:href="#ah"/><use transform="matrix(0.1234567901234567,0,0,0.1234567901234567,56.66666666666663,0)" xlink:href="#ai"/><use transform="matrix(0.1234567901234567,0,0,0.1234567901234567,83.70370370370364,0)" xlink:href="#T"/><use transform="matrix(0.1234567901234567,0,0,0.1234567901234567,110.74074074074065,0)" xlink:href="#ah"/><use transform="matrix(0.1234567901234567,0,0,0.1234567901234567,135.432098765432,0)" xlink:href="#aj"/><use transform="matrix(0.1234567901234567,0,0,0.1234567901234567,160.12345679012333,0)" xlink:href="#ak"/></g><g id="p"><use transform="matrix(0.1296296296296295,0,0,0.1296296296296295,0,0)" xlink:href="#ad"/><use transform="matrix(0.1296296296296295,0,0,0.1296296296296295,33.57407407407404,0)" xlink:href="#z"/><use transform="matrix(0.1296296296296295,0,0,0.1296296296296295,59.49999999999994,0)" xlink:href="#y"/></g><g id="q"><use transform="matrix(0.1296296296296295,0,0,0.1296296296296295,0,0)" xlink:href="#D"/><use transform="matrix(0.1296296296296295,0,0,0.1296296296296295,25.925925925925903,0)" xlink:href="#z"/><use transform="matrix(0.1296296296296295,0,0,0.1296296296296295,51.851851851851805,0)" xlink:href="#L"/><use transform="matrix(0.1296296296296295,0,0,0.1296296296296295,77.77777777777771,0)" xlink:href="#w"/><use transform="matrix(0.1296296296296295,0,0,0.1296296296296295,93.20370370370362,0)" xlink:href="#B"/><use transform="matrix(0.1296296296296295,0,0,0.1296296296296295,119.12962962962953,0)" xlink:href="#D"/><use transform="matrix(0.1296296296296295,0,0,0.1296296296296295,145.05555555555543,0)" xlink:href="#u"/><use transform="matrix(0.1296296296296295,0,0,0.1296296296296295,170.98148148148132,0)" xlink:href="#K"/></g><g id="r"><use transform="matrix(0.1296296296296295,0,0,0.1296296296296295,0,0)" xlink:href="#A"/><use transform="matrix(0.1296296296296295,0,0,0.1296296296296295,23.33333333333331,0)" xlink:href="#B"/><use transform="matrix(0.1296296296296295,0,0,0.1296296296296295,49.25925925925921,0)" xlink:href="#D"/><use transform="matrix(0.1296296296296295,0,0,0.1296296296296295,75.1851851851851,0)" xlink:href="#H"/><use transform="matrix(0.1296296296296295,0,0,0.1296296296296295,98.51851851851842,0)" xlink:href="#B"/><use transform="matrix(0.1296296296296295,0,0,0.1296296296296295,124.44444444444431,0)" xlink:href="#K"/><use transform="matrix(0.1296296296296295,0,0,0.1296296296296295,134.68518518518505,0)" xlink:href="#L"/><use transform="matrix(0.1296296296296295,0,0,0.1296296296296295,160.61111111111094,0)" xlink:href="#A"/><use transform="matrix(0.1296296296296295,0,0,0.1296296296296295,183.94444444444426,0)" xlink:href="#t"/><use transform="matrix(0.1296296296296295,0,0,0.1296296296296295,194.185185185185,0)" xlink:href="#B"/><use transform="matrix(0.1296296296296295,0,0,0.1296296296296295,220.1111111111109,0)" xlink:href="#D"/><use transform="matrix(0.1296296296296295,0,0,0.1296296296296295,246.03703703703678,0)" xlink:href="#u"/><use transform="matrix(0.1296296296296295,0,0,0.1296296296296295,271.9629629629627,0)" xlink:href="#K"/></g></defs></g></svg>