<svg xmlns="http://www.w3.org/2000/svg" xmlns:xlink="http://www.w3.org/1999/xlink" xmlns:lucid="lucid" width="3029" height="3401"><g transform="translate(-9191 1530)" lucid:page-tab-id="0_0"><path d="M-2000-2500h14500v5500H-2000z" fill="#fff"/><path d="M10240-1034a6 6 0 0 1 6-6h948a6 6 0 0 1 6 6v2832.06a6 6 0 0 1-6 6h-948a6 6 0 0 1-6-6z" fill="#f2f3f5"/><path d="M11200-1034a6 6 0 0 1 6-6h948a6 6 0 0 1 6 6v2832.06a6 6 0 0 1-6 6h-948a6 6 0 0 1-6-6z" fill="#dfe3e8"/><path d="M10300-1394a6 6 0 0 1 6-6h788a6 6 0 0 1 6 6v174a6 6 0 0 1-6 6h-788a6 6 0 0 1-6-6z" fill="#fff" fill-opacity="0"/><use xlink:href="#a" transform="matrix(1,0,0,1,10305,-1395) translate(185.59259259259292 64.16666666666657)"/><use xlink:href="#b" transform="matrix(1,0,0,1,10305,-1395) translate(522.9259259259258 64.16666666666657)"/><use xlink:href="#c" transform="matrix(1,0,0,1,10305,-1395) translate(211.87037037037067 152.16666666666643)"/><path d="M9280-1034a6 6 0 0 1 6-6h948a6 6 0 0 1 6 6v2832.06a6 6 0 0 1-6 6h-948a6 6 0 0 1-6-6z" fill="#fff"/><path d="M9590-974a6 6 0 0 1 6-6h328a6 6 0 0 1 6 6v168a6 6 0 0 1-6 6h-328a6 6 0 0 1-6-6z" fill="none"/><use xlink:href="#d" transform="matrix(1,0,0,1,9590,-980) translate(40.25000000000023 101.99999999999997)"/><path d="M10550-974a6 6 0 0 1 6-6h328a6 6 0 0 1 6 6v168a6 6 0 0 1-6 6h-328a6 6 0 0 1-6-6z" fill="none"/><use xlink:href="#e" transform="matrix(1,0,0,1,10550,-980) translate(43.41666666666687 101.99999999999997)"/><path d="M11510-974a6 6 0 0 1 6-6h328a6 6 0 0 1 6 6v168a6 6 0 0 1-6 6h-328a6 6 0 0 1-6-6z" fill="none"/><use xlink:href="#f" transform="matrix(1,0,0,1,11510,-980) translate(81.9166666666668 66.00000000000004)"/><use xlink:href="#g" transform="matrix(1,0,0,1,11510,-980) translate(60.25000000000017 137.99999999999991)"/><path d="M11730-710c0 27.6-22.4 50-50 50s-50-22.4-50-50 22.4-50 50-50 50 22.4 50 50z" stroke="#3a414a"/><path d="M11398-540c-26.5 0-48 21.5-48 48v144c0 26.5 21.5 48 48 48h564c26.5 0 48-21.5 48-48v-144c0-26.5-21.5-48-48-48z" stroke="#3a414a" fill="#fff"/><use xlink:href="#h" transform="matrix(1,0,0,1,11358,-532) translate(32.16666666666674 88)"/><use xlink:href="#i" transform="matrix(1,0,0,1,11358,-532) translate(265.33333333333337 88)"/><use xlink:href="#j" transform="matrix(1,0,0,1,11358,-532) translate(217.25 160)"/><path d="M11680-655.5v83.8" stroke="#3a414a" stroke-width="8" fill="none"/><path d="M11680-659.5l3.63-.13.37-.04v4.27h-8v-4.3z" stroke="#3a414a" stroke-width=".05" fill="#3a414a"/><path d="M11680-553.44l-4.64-14.27h9.27z" stroke="#3a414a" stroke-width="8" fill="#3a414a"/><path d="M11398-180.5c-26.5 0-48 21.5-48 48v144c0 26.5 21.5 48 48 48h564c26.5 0 48-21.5 48-48v-144c0-26.5-21.5-48-48-48z" stroke="#3a414a" fill="#fff"/><use xlink:href="#h" transform="matrix(1,0,0,1,11358,-172.50031185874445) translate(22.416666666666686 88)"/><use xlink:href="#k" transform="matrix(1,0,0,1,11358,-172.50031185874445) translate(255.58333333333331 88)"/><use xlink:href="#l" transform="matrix(1,0,0,1,11358,-172.50031185874445) translate(348.5833333333333 88)"/><use xlink:href="#m" transform="matrix(1,0,0,1,11358,-172.50031185874445) translate(395.25 88)"/><use xlink:href="#n" transform="matrix(1,0,0,1,11358,-172.50031185874445) translate(79.00000000000006 160)"/><use xlink:href="#o" transform="matrix(1,0,0,1,11358,-172.50031185874445) translate(162.33333333333337 160)"/><use xlink:href="#p" transform="matrix(1,0,0,1,11358,-172.50031185874445) translate(302 160)"/><use xlink:href="#q" transform="matrix(1,0,0,1,11358,-172.50031185874445) translate(385.3333333333333 160)"/><path d="M11398 179c-26.5 0-48 21.5-48 48v144c0 26.5 21.5 48 48 48h564c26.5 0 48-21.5 48-48V227c0-26.5-21.5-48-48-48z" stroke="#3a414a" fill="#fff"/><use xlink:href="#r" transform="matrix(1,0,0,1,11358,186.9993762825111) translate(69.00000000000006 88)"/><use xlink:href="#s" transform="matrix(1,0,0,1,11358,186.9993762825111) translate(305.33333333333337 88)"/><use xlink:href="#t" transform="matrix(1,0,0,1,11358,186.9993762825111) translate(508.3333333333333 88)"/><use xlink:href="#u" transform="matrix(1,0,0,1,11358,186.9993762825111) translate(223.83333333333337 160)"/><path d="M11398 538.5c-26.5 0-48 21.5-48 48v144c0 26.5 21.5 48 48 48h564c26.5 0 48-21.5 48-48v-144c0-26.5-21.5-48-48-48z" stroke="#3a414a" fill="#fff"/><use xlink:href="#v" transform="matrix(1,0,0,1,11358,546.4990644237666) translate(100.66666666666669 124)"/><use xlink:href="#w" transform="matrix(1,0,0,1,11358,546.4990644237666) translate(347 124)"/><path d="M11398 898c-26.5 0-48 21.5-48 48v144c0 26.5 21.5 48 48 48h564c26.5 0 48-21.5 48-48V946c0-26.5-21.5-48-48-48z" stroke="#3a414a" fill="#fff"/><use xlink:href="#x" transform="matrix(1,0,0,1,11358,905.9987525650222) translate(102.33333333333334 124)"/><use xlink:href="#w" transform="matrix(1,0,0,1,11358,905.9987525650222) translate(345.33333333333337 124)"/><path d="M11680-295.5v83.3" stroke="#3a414a" stroke-width="8" fill="none"/><path d="M11684-295.4h-8v-4.1h8z" stroke="#3a414a" stroke-width=".05" fill="#3a414a"/><path d="M11680-193.94l-4.64-14.27h9.27z" stroke="#3a414a" stroke-width="8" fill="#3a414a"/><path d="M11680 64v83.3" stroke="#3a414a" stroke-width="8" fill="none"/><path d="M11684 64.1h-8V60h8z" stroke="#3a414a" stroke-width=".05" fill="#3a414a"/><path d="M11680 165.56l-4.64-14.27h9.27z" stroke="#3a414a" stroke-width="8" fill="#3a414a"/><path d="M11680 423.5v83.3" stroke="#3a414a" stroke-width="8" fill="none"/><path d="M11684 423.6h-8v-4.1h8z" stroke="#3a414a" stroke-width=".05" fill="#3a414a"/><path d="M11680 525.05l-4.64-14.26h9.27z" stroke="#3a414a" stroke-width="8" fill="#3a414a"/><path d="M11680 783v83.3" stroke="#3a414a" stroke-width="8" fill="none"/><path d="M11684 783.1h-8V779h8z" stroke="#3a414a" stroke-width=".05" fill="#3a414a"/><path d="M11680 884.55l-4.64-14.26h9.27z" stroke="#3a414a" stroke-width="8" fill="#3a414a"/><path d="M9810-710c0 27.6-22.4 50-50 50s-50-22.4-50-50 22.4-50 50-50 50 22.4 50 50z" stroke="#3a414a"/><path d="M9478-540c-26.5 0-48 21.5-48 48v144c0 26.5 21.5 48 48 48h564c26.5 0 48-21.5 48-48v-144c0-26.5-21.5-48-48-48z" stroke="#3a414a" fill="#fff"/><use xlink:href="#y" transform="matrix(1,0,0,1,9438,-532) translate(100.75 88)"/><use xlink:href="#z" transform="matrix(1,0,0,1,9438,-532) translate(300.25 88)"/><use xlink:href="#A" transform="matrix(1,0,0,1,9438,-532) translate(466.75 88)"/><use xlink:href="#B" transform="matrix(1,0,0,1,9438,-532) translate(87.16666666666669 160)"/><use xlink:href="#C" transform="matrix(1,0,0,1,9438,-532) translate(297 160)"/><use xlink:href="#D" transform="matrix(1,0,0,1,9438,-532) translate(460.16666666666663 160)"/><path d="M9760-655.5v83.8" stroke="#3a414a" stroke-width="8" fill="none"/><path d="M9760-659.5l3.63-.13.37-.04v4.27h-8v-4.3z" stroke="#3a414a" stroke-width=".05" fill="#3a414a"/><path d="M9760-553.44l-4.64-14.27h9.27z" stroke="#3a414a" stroke-width="8" fill="#3a414a"/><path d="M9478-180.5c-26.5 0-48 21.5-48 48v144c0 26.5 21.5 48 48 48h564c26.5 0 48-21.5 48-48v-144c0-26.5-21.5-48-48-48z" stroke="#3a414a" fill="#fff"/><use xlink:href="#E" transform="matrix(1,0,0,1,9438,-172.50031185874445) translate(87.58333333333337 52)"/><use xlink:href="#F" transform="matrix(1,0,0,1,9438,-172.50031185874445) translate(310.08333333333337 52)"/><use xlink:href="#G" transform="matrix(1,0,0,1,9438,-172.50031185874445) translate(360.0833333333333 52)"/><use xlink:href="#H" transform="matrix(1,0,0,1,9438,-172.50031185874445) translate(35.75000000000006 124)"/><use xlink:href="#I" transform="matrix(1,0,0,1,9438,-172.50031185874445) translate(355.25 124)"/><use xlink:href="#J" transform="matrix(1,0,0,1,9438,-172.50031185874445) translate(205.41666666666669 196)"/><use xlink:href="#K" transform="matrix(1,0,0,1,9438,-172.50031185874445) translate(288.75 196)"/><path d="M9760-295.5v83.3" stroke="#3a414a" stroke-width="8" fill="none"/><path d="M9764-295.4h-8v-4.1h8z" stroke="#3a414a" stroke-width=".05" fill="#3a414a"/><path d="M9760-193.94l-4.64-14.27h9.27z" stroke="#3a414a" stroke-width="8" fill="#3a414a"/><path d="M10418-180c-26.5 0-48 21.5-48 48V12c0 26.5 21.5 48 48 48h564c26.5 0 48-21.5 48-48v-144c0-26.5-21.5-48-48-48z" stroke="#3a414a" fill="#fff"/><use xlink:href="#L" transform="matrix(1,0,0,1,10378,-172) translate(49.58333333333337 124)"/><use xlink:href="#M" transform="matrix(1,0,0,1,10378,-172) translate(247.91666666666669 124)"/><path d="M10418 179c-26.5 0-48 21.5-48 48v144c0 26.5 21.5 48 48 48h564c26.5 0 48-21.5 48-48V227c0-26.5-21.5-48-48-48z" stroke="#3a414a" fill="#fff"/><use xlink:href="#h" transform="matrix(1,0,0,1,10378,186.9993762825111) translate(22.416666666666686 88)"/><use xlink:href="#k" transform="matrix(1,0,0,1,10378,186.9993762825111) translate(255.58333333333331 88)"/><use xlink:href="#l" transform="matrix(1,0,0,1,10378,186.9993762825111) translate(348.5833333333333 88)"/><use xlink:href="#m" transform="matrix(1,0,0,1,10378,186.9993762825111) translate(395.25 88)"/><use xlink:href="#n" transform="matrix(1,0,0,1,10378,186.9993762825111) translate(79.00000000000006 160)"/><use xlink:href="#o" transform="matrix(1,0,0,1,10378,186.9993762825111) translate(162.33333333333337 160)"/><use xlink:href="#p" transform="matrix(1,0,0,1,10378,186.9993762825111) translate(302 160)"/><use xlink:href="#q" transform="matrix(1,0,0,1,10378,186.9993762825111) translate(385.3333333333333 160)"/><path d="M10418 538c-26.5 0-48 21.5-48 48v144c0 26.5 21.5 48 48 48h564c26.5 0 48-21.5 48-48V586c0-26.5-21.5-48-48-48z" stroke="#3a414a" fill="#fff"/><use xlink:href="#r" transform="matrix(1,0,0,1,10378,545.9987525650222) translate(69.00000000000006 88)"/><use xlink:href="#s" transform="matrix(1,0,0,1,10378,545.9987525650222) translate(305.33333333333337 88)"/><use xlink:href="#t" transform="matrix(1,0,0,1,10378,545.9987525650222) translate(508.3333333333333 88)"/><use xlink:href="#N" transform="matrix(1,0,0,1,10378,545.9987525650222) translate(64.00000000000011 160)"/><use xlink:href="#O" transform="matrix(1,0,0,1,10378,545.9987525650222) translate(277 160)"/><path d="M10700 64.5v82.8" stroke="#3a414a" stroke-width="8" fill="none"/><path d="M10704 64.6h-8v-4.1h8z" stroke="#3a414a" stroke-width=".05" fill="#3a414a"/><path d="M10700 165.56l-4.64-14.27h9.27z" stroke="#3a414a" stroke-width="8" fill="#3a414a"/><path d="M10418-540c-26.5 0-48 21.5-48 48v144c0 26.5 21.5 48 48 48h564c26.5 0 48-21.5 48-48v-144c0-26.5-21.5-48-48-48z" stroke="#3a414a" fill="#fff"/><g><use xlink:href="#P" transform="matrix(1,0,0,1,10378,-532) translate(104.08333333333334 124)"/><use xlink:href="#w" transform="matrix(1,0,0,1,10378,-532) translate(343.58333333333337 124)"/></g><path d="M11345.5 1018h-30a6 6 0 0 1-6-6V-653.5a6 6 0 0 0-6-6H10706a6 6 0 0 0-6 6v81.8" stroke="#3a414a" stroke-width="8" fill="none"/><path d="M11349.5 1022h-4.1v-8h4.1z" stroke="#3a414a" stroke-width=".05" fill="#3a414a"/><path d="M10700-553.44l-4.64-14.27h9.27z" stroke="#3a414a" stroke-width="8" fill="#3a414a"/><path d="M10094.5-60.5h243.8" stroke="#3a414a" stroke-width="8" fill="none"/><path d="M10094.6-56.5h-4.1v-8h4.1z" stroke="#3a414a" stroke-width=".05" fill="#3a414a"/><path d="M10356.56-60.5l-14.27 4.63v-9.27z" stroke="#3a414a" stroke-width="8" fill="#3a414a"/><path d="M10700 423.5v82.8" stroke="#3a414a" stroke-width="8" fill="none"/><path d="M10704 423.6h-8v-4.1h8z" stroke="#3a414a" stroke-width=".05" fill="#3a414a"/><path d="M10700 524.55l-4.64-14.26h9.27z" stroke="#3a414a" stroke-width="8" fill="#3a414a"/><path d="M10418 898c-26.5 0-48 21.5-48 48v144c0 26.5 21.5 48 48 48h564c26.5 0 48-21.5 48-48V946c0-26.5-21.5-48-48-48z" stroke="#3a414a" fill="#fff"/><g><use xlink:href="#Q" transform="matrix(1,0,0,1,10378,905.9987525650222) translate(34.08333333333337 124)"/><use xlink:href="#p" transform="matrix(1,0,0,1,10378,905.9987525650222) translate(330.25 124)"/><use xlink:href="#w" transform="matrix(1,0,0,1,10378,905.9987525650222) translate(413.5833333333333 124)"/></g><path d="M10700-295.5v30a6 6 0 0 0 6 6h418a6 6 0 0 1 6 6V1012a6 6 0 0 1-6 6h-62.3" stroke="#3a414a" stroke-width="8" fill="none"/><path d="M10704-295.4h-8v-4.1h8z" stroke="#3a414a" stroke-width=".05" fill="#3a414a"/><path d="M11043.44 1018l14.27-4.64v9.27z" stroke="#3a414a" stroke-width="8" fill="#3a414a"/><path d="M10700 782.5v83.8" stroke="#3a414a" stroke-width="8" fill="none"/><path d="M10704 782.6h-8v-4.1h8z" stroke="#3a414a" stroke-width=".05" fill="#3a414a"/><path d="M10700 884.55l-4.64-14.26h9.27z" stroke="#3a414a" stroke-width="8" fill="#3a414a"/><path d="M9478 1258c-26.5 0-48 21.5-48 48v144c0 26.5 21.5 48 48 48h564c26.5 0 48-21.5 48-48v-144c0-26.5-21.5-48-48-48z" stroke="#3a414a" fill="#fff"/><g><use xlink:href="#R" transform="matrix(1,0,0,1,9438,1265.9987525650222) translate(75.83333333333337 124)"/><use xlink:href="#S" transform="matrix(1,0,0,1,9438,1265.9987525650222) translate(295.33333333333337 124)"/></g><path d="M10365.5 1378h-243.8" stroke="#3a414a" stroke-width="8" fill="none"/><path d="M10369.5 1382h-4.1v-8h4.1z" stroke="#3a414a" stroke-width=".05" fill="#3a414a"/><path d="M10103.44 1378l14.27-4.64v9.27z" stroke="#3a414a" stroke-width="8" fill="#3a414a"/><path d="M9810 1650c0 27.6-22.4 50-50 50s-50-22.4-50-50 22.4-50 50-50 50 22.4 50 50z" stroke="#3a414a" fill="#fff"/><path d="M9790 1650c0 16.57-13.43 30-30 30s-30-13.43-30-30 13.43-30 30-30 30 13.43 30 30z" stroke="#3a414a"/><path d="M9760 1502.5v65.8" stroke="#3a414a" stroke-width="8" fill="none"/><path d="M9764 1502.6h-8v-4.1h8z" stroke="#3a414a" stroke-width=".05" fill="#3a414a"/><path d="M9760 1586.56l-4.64-14.27h9.27z" stroke="#3a414a" stroke-width="8" fill="#3a414a"/><path d="M9281-752.54h2878" stroke="#3a414a" stroke-width="2" fill="none"/><path d="M9281.03-751.54H9280v-2h1.03zM12160-751.54h-1.03v-2h1.03z" stroke="#3a414a" stroke-width=".05" fill="#3a414a"/><path d="M10418 1258c-26.5 0-48 21.5-48 48v144c0 26.5 21.5 48 48 48h564c26.5 0 48-21.5 48-48v-144c0-26.5-21.5-48-48-48z" stroke="#3a414a" fill="#fff"/><g><use xlink:href="#T" transform="matrix(1,0,0,1,10378,1265.9987525650222) translate(85.58333333333337 88)"/><use xlink:href="#U" transform="matrix(1,0,0,1,10378,1265.9987525650222) translate(315.25 88)"/><use xlink:href="#V" transform="matrix(1,0,0,1,10378,1265.9987525650222) translate(57.33333333333337 160)"/><use xlink:href="#J" transform="matrix(1,0,0,1,10378,1265.9987525650222) translate(257 160)"/><use xlink:href="#W" transform="matrix(1,0,0,1,10378,1265.9987525650222) translate(340.3333333333333 160)"/></g><path d="M10700 1142.5v83.8" stroke="#3a414a" stroke-width="8" fill="none"/><path d="M10704 1142.6h-8v-4.1h8z" stroke="#3a414a" stroke-width=".05" fill="#3a414a"/><path d="M10700 1244.55l-4.64-14.26h9.27z" stroke="#3a414a" stroke-width="8" fill="#3a414a"/><defs><path fill="#3a414a" d="M30-248c118-7 216 8 213 122C240-48 200 0 122 0H30v-248zM63-27c89 8 146-16 146-99s-60-101-146-95v194" id="X"/><path fill="#3a414a" d="M24-231v-30h32v30H24zM24 0v-190h32V0H24" id="Y"/><path fill="#3a414a" d="M141-36C126-15 110 5 73 4 37 3 15-17 15-53c-1-64 63-63 125-63 3-35-9-54-41-54-24 1-41 7-42 31l-33-3c5-37 33-52 76-52 45 0 72 20 72 64v82c-1 20 7 32 28 27v20c-31 9-61-2-59-35zM48-53c0 20 12 33 32 33 41-3 63-29 60-74-43 2-92-5-92 41" id="Z"/><path fill="#3a414a" d="M177-190C167-65 218 103 67 71c-23-6-38-20-44-43l32-5c15 47 100 32 89-28v-30C133-14 115 1 83 1 29 1 15-40 15-95c0-56 16-97 71-98 29-1 48 16 59 35 1-10 0-23 2-32h30zM94-22c36 0 50-32 50-73 0-42-14-75-50-75-39 0-46 34-46 75s6 73 46 73" id="aa"/><path fill="#3a414a" d="M114-163C36-179 61-72 57 0H25l-1-190h30c1 12-1 29 2 39 6-27 23-49 58-41v29" id="ab"/><path fill="#3a414a" d="M210-169c-67 3-38 105-44 169h-31v-121c0-29-5-50-35-48C34-165 62-65 56 0H25l-1-190h30c1 10-1 24 2 32 10-44 99-50 107 0 11-21 27-35 58-36 85-2 47 119 55 194h-31v-121c0-29-5-49-35-48" id="ac"/><g id="a"><use transform="matrix(0.2037037037037034,0,0,0.2037037037037034,0,0)" xlink:href="#X"/><use transform="matrix(0.2037037037037034,0,0,0.2037037037037034,52.759259259259174,0)" xlink:href="#Y"/><use transform="matrix(0.2037037037037034,0,0,0.2037037037037034,68.85185185185173,0)" xlink:href="#Z"/><use transform="matrix(0.2037037037037034,0,0,0.2037037037037034,109.5925925925924,0)" xlink:href="#aa"/><use transform="matrix(0.2037037037037034,0,0,0.2037037037037034,150.3333333333331,0)" xlink:href="#ab"/><use transform="matrix(0.2037037037037034,0,0,0.2037037037037034,174.5740740740738,0)" xlink:href="#Z"/><use transform="matrix(0.2037037037037034,0,0,0.2037037037037034,215.31481481481447,0)" xlink:href="#ac"/><use transform="matrix(0.2037037037037034,0,0,0.2037037037037034,276.2222222222218,0)" xlink:href="#Z"/><path fill="#3a414a" d="M-3.67 5.08H341v5.37H-3.67z"/></g><path fill="#3a414a" d="M85-194c31 0 48 13 60 33l-1-100h32l1 261h-30c-2-10 0-23-3-31C134-8 116 4 85 4 32 4 16-35 15-94c0-66 23-100 70-100zm9 24c-40 0-46 34-46 75 0 40 6 74 45 74 42 0 51-32 51-76 0-42-9-74-50-73" id="ad"/><path fill="#3a414a" d="M100-194c63 0 86 42 84 106H49c0 40 14 67 53 68 26 1 43-12 49-29l28 8c-11 28-37 45-77 45C44 4 14-33 15-96c1-61 26-98 85-98zm52 81c6-60-76-77-97-28-3 7-6 17-6 28h103" id="ae"/><g id="b"><use transform="matrix(0.2037037037037034,0,0,0.2037037037037034,0,0)" xlink:href="#ad"/><use transform="matrix(0.2037037037037034,0,0,0.2037037037037034,40.74074074074068,0)" xlink:href="#ae"/><path fill="#3a414a" d="M-3.67 5.08h88.8v5.37h-88.8z"/></g><path fill="#3a414a" d="M96-169c-40 0-48 33-48 73s9 75 48 75c24 0 41-14 43-38l32 2c-6 37-31 61-74 61-59 0-76-41-82-99-10-93 101-131 147-64 4 7 5 14 7 22l-32 3c-4-21-16-35-41-35" id="af"/><path fill="#3a414a" d="M59-47c-2 24 18 29 38 22v24C64 9 27 4 27-40v-127H5v-23h24l9-43h21v43h35v23H59v120" id="ag"/><path fill="#3a414a" d="M108 0H70L1-190h34L89-25l56-165h34" id="ah"/><path fill="#3a414a" d="M135-143c-3-34-86-38-87 0 15 53 115 12 119 90S17 21 10-45l28-5c4 36 97 45 98 0-10-56-113-15-118-90-4-57 82-63 122-42 12 7 21 19 24 35" id="ai"/><g id="c"><use transform="matrix(0.2037037037037034,0,0,0.2037037037037034,0,0)" xlink:href="#Z"/><use transform="matrix(0.2037037037037034,0,0,0.2037037037037034,40.74074074074068,0)" xlink:href="#af"/><use transform="matrix(0.2037037037037034,0,0,0.2037037037037034,77.40740740740728,0)" xlink:href="#ag"/><use transform="matrix(0.2037037037037034,0,0,0.2037037037037034,97.77777777777762,0)" xlink:href="#Y"/><use transform="matrix(0.2037037037037034,0,0,0.2037037037037034,113.8703703703702,0)" xlink:href="#ah"/><use transform="matrix(0.2037037037037034,0,0,0.2037037037037034,150.53703703703678,0)" xlink:href="#Y"/><use transform="matrix(0.2037037037037034,0,0,0.2037037037037034,166.62962962962933,0)" xlink:href="#ad"/><use transform="matrix(0.2037037037037034,0,0,0.2037037037037034,207.37037037037,0)" xlink:href="#Z"/><use transform="matrix(0.2037037037037034,0,0,0.2037037037037034,248.1111111111107,0)" xlink:href="#ad"/><use transform="matrix(0.2037037037037034,0,0,0.2037037037037034,288.8518518518514,0)" xlink:href="#ae"/><use transform="matrix(0.2037037037037034,0,0,0.2037037037037034,329.59259259259204,0)" xlink:href="#ai"/><path fill="#3a414a" d="M-3.67 5.08h373.6v5.37H-3.68z"/></g><path fill="#3a414a" d="M63-220v92h138v28H63V0H30v-248h175v28H63" id="aj"/><path fill="#3a414a" d="M100-194c62-1 85 37 85 99 1 63-27 99-86 99S16-35 15-95c0-66 28-99 85-99zM99-20c44 1 53-31 53-75 0-43-8-75-51-75s-53 32-53 75 10 74 51 75" id="ak"/><path fill="#3a414a" d="M117-194c89-4 53 116 60 194h-32v-121c0-31-8-49-39-48C34-167 62-67 57 0H25l-1-190h30c1 10-1 24 2 32 11-22 29-35 61-36" id="al"/><path fill="#3a414a" d="M16-82v-28h88v28H16" id="am"/><g id="d"><use transform="matrix(0.16666666666666638,0,0,0.16666666666666638,0,0)" xlink:href="#aj"/><use transform="matrix(0.16666666666666638,0,0,0.16666666666666638,36.499999999999936,0)" xlink:href="#ab"/><use transform="matrix(0.16666666666666638,0,0,0.16666666666666638,56.333333333333236,0)" xlink:href="#ak"/><use transform="matrix(0.16666666666666638,0,0,0.16666666666666638,89.66666666666652,0)" xlink:href="#al"/><use transform="matrix(0.16666666666666638,0,0,0.16666666666666638,122.9999999999998,0)" xlink:href="#ag"/><use transform="matrix(0.16666666666666638,0,0,0.16666666666666638,139.66666666666643,0)" xlink:href="#am"/><use transform="matrix(0.16666666666666638,0,0,0.16666666666666638,159.49999999999972,0)" xlink:href="#ae"/><use transform="matrix(0.16666666666666638,0,0,0.16666666666666638,192.833333333333,0)" xlink:href="#al"/><use transform="matrix(0.16666666666666638,0,0,0.16666666666666638,226.1666666666663,0)" xlink:href="#ad"/></g><path fill="#3a414a" d="M160-131c35 5 61 23 61 61C221 17 115-2 30 0v-248c76 3 177-17 177 60 0 33-19 50-47 57zm-97-11c50-1 110 9 110-42 0-47-63-36-110-37v79zm0 115c55-2 124 14 124-45 0-56-70-42-124-44v89" id="an"/><path fill="#3a414a" d="M143 0L79-87 56-68V0H24v-261h32v163l83-92h37l-77 82L181 0h-38" id="ao"/><g id="e"><use transform="matrix(0.16666666666666638,0,0,0.16666666666666638,0,0)" xlink:href="#an"/><use transform="matrix(0.16666666666666638,0,0,0.16666666666666638,39.99999999999993,0)" xlink:href="#Z"/><use transform="matrix(0.16666666666666638,0,0,0.16666666666666638,73.3333333333332,0)" xlink:href="#af"/><use transform="matrix(0.16666666666666638,0,0,0.16666666666666638,103.33333333333313,0)" xlink:href="#ao"/><use transform="matrix(0.16666666666666638,0,0,0.16666666666666638,133.3333333333331,0)" xlink:href="#am"/><use transform="matrix(0.16666666666666638,0,0,0.16666666666666638,153.1666666666664,0)" xlink:href="#ae"/><use transform="matrix(0.16666666666666638,0,0,0.16666666666666638,186.4999999999997,0)" xlink:href="#al"/><use transform="matrix(0.16666666666666638,0,0,0.16666666666666638,219.83333333333294,0)" xlink:href="#ad"/></g><path fill="#3a414a" d="M190 0L58-211 59 0H30v-248h39L202-35l-2-213h31V0h-41" id="ap"/><path fill="#3a414a" d="M84 4C-5 8 30-112 23-190h32v120c0 31 7 50 39 49 72-2 45-101 50-169h31l1 190h-30c-1-10 1-25-2-33-11 22-28 36-60 37" id="aq"/><path fill="#3a414a" d="M24 0v-261h32V0H24" id="ar"/><g id="f"><use transform="matrix(0.16666666666666638,0,0,0.16666666666666638,0,0)" xlink:href="#ap"/><use transform="matrix(0.16666666666666638,0,0,0.16666666666666638,43.16666666666659,0)" xlink:href="#ae"/><use transform="matrix(0.16666666666666638,0,0,0.16666666666666638,76.49999999999987,0)" xlink:href="#aq"/><use transform="matrix(0.16666666666666638,0,0,0.16666666666666638,109.83333333333314,0)" xlink:href="#ab"/><use transform="matrix(0.16666666666666638,0,0,0.16666666666666638,129.66666666666646,0)" xlink:href="#Z"/><use transform="matrix(0.16666666666666638,0,0,0.16666666666666638,162.99999999999974,0)" xlink:href="#ar"/></g><path fill="#3a414a" d="M206 0h-36l-40-164L89 0H53L-1-190h32L70-26l43-164h34l41 164 42-164h31" id="as"/><g id="g"><use transform="matrix(0.16666666666666638,0,0,0.16666666666666638,0,0)" xlink:href="#ap"/><use transform="matrix(0.16666666666666638,0,0,0.16666666666666638,43.16666666666659,0)" xlink:href="#ae"/><use transform="matrix(0.16666666666666638,0,0,0.16666666666666638,76.49999999999987,0)" xlink:href="#ag"/><use transform="matrix(0.16666666666666638,0,0,0.16666666666666638,93.1666666666665,0)" xlink:href="#as"/><use transform="matrix(0.16666666666666638,0,0,0.16666666666666638,136.33333333333312,0)" xlink:href="#ak"/><use transform="matrix(0.16666666666666638,0,0,0.16666666666666638,169.6666666666664,0)" xlink:href="#ab"/><use transform="matrix(0.16666666666666638,0,0,0.16666666666666638,189.49999999999972,0)" xlink:href="#ao"/></g><path fill="#3a414a" d="M140-251c81 0 123 46 123 126C263-46 219 4 140 4 59 4 17-45 17-125s42-126 123-126zm0 227c63 0 89-41 89-101s-29-99-89-99c-61 0-89 39-89 99S79-25 140-24" id="at"/><path fill="#3a414a" d="M115-194c53 0 69 39 70 98 0 66-23 100-70 100C84 3 66-7 56-30L54 0H23l1-261h32v101c10-23 28-34 59-34zm-8 174c40 0 45-34 45-75 0-40-5-75-45-74-42 0-51 32-51 76 0 43 10 73 51 73" id="au"/><g id="h"><use transform="matrix(0.16666666666666666,0,0,0.16666666666666666,0,0)" xlink:href="#at"/><use transform="matrix(0.16666666666666666,0,0,0.16666666666666666,46.666666666666664,0)" xlink:href="#au"/><use transform="matrix(0.16666666666666666,0,0,0.16666666666666666,80,0)" xlink:href="#ag"/><use transform="matrix(0.16666666666666666,0,0,0.16666666666666666,96.66666666666666,0)" xlink:href="#ae"/><use transform="matrix(0.16666666666666666,0,0,0.16666666666666666,130,0)" xlink:href="#al"/><use transform="matrix(0.16666666666666666,0,0,0.16666666666666666,163.33333333333331,0)" xlink:href="#ae"/><use transform="matrix(0.16666666666666666,0,0,0.16666666666666666,196.66666666666663,0)" xlink:href="#ab"/></g><g id="i"><use transform="matrix(0.16666666666666666,0,0,0.16666666666666666,0,0)" xlink:href="#af"/><use transform="matrix(0.16666666666666666,0,0,0.16666666666666666,30,0)" xlink:href="#ak"/><use transform="matrix(0.16666666666666666,0,0,0.16666666666666666,63.33333333333333,0)" xlink:href="#ak"/><use transform="matrix(0.16666666666666666,0,0,0.16666666666666666,96.66666666666666,0)" xlink:href="#ab"/><use transform="matrix(0.16666666666666666,0,0,0.16666666666666666,116.5,0)" xlink:href="#ad"/><use transform="matrix(0.16666666666666666,0,0,0.16666666666666666,149.83333333333331,0)" xlink:href="#ae"/><use transform="matrix(0.16666666666666666,0,0,0.16666666666666666,183.16666666666663,0)" xlink:href="#al"/><use transform="matrix(0.16666666666666666,0,0,0.16666666666666666,216.49999999999994,0)" xlink:href="#Z"/><use transform="matrix(0.16666666666666666,0,0,0.16666666666666666,249.83333333333326,0)" xlink:href="#ad"/><use transform="matrix(0.16666666666666666,0,0,0.16666666666666666,283.1666666666666,0)" xlink:href="#Z"/><use transform="matrix(0.16666666666666666,0,0,0.16666666666666666,316.4999999999999,0)" xlink:href="#ai"/></g><path fill="#3a414a" d="M30 0v-248h187v28H63v79h144v27H63v87h162V0H30" id="av"/><path fill="#3a414a" d="M232-93c-1 65-40 97-104 97C67 4 28-28 28-90v-158h33c8 89-33 224 67 224 102 0 64-133 71-224h33v155" id="aw"/><g id="j"><use transform="matrix(0.16666666666666666,0,0,0.16666666666666666,0,0)" xlink:href="#X"/><use transform="matrix(0.16666666666666666,0,0,0.16666666666666666,43.166666666666664,0)" xlink:href="#av"/><use transform="matrix(0.16666666666666666,0,0,0.16666666666666666,83.16666666666666,0)" xlink:href="#ap"/><use transform="matrix(0.16666666666666666,0,0,0.16666666666666666,126.33333333333331,0)" xlink:href="#aw"/><use transform="matrix(0.16666666666666666,0,0,0.16666666666666666,169.49999999999997,0)" xlink:href="#av"/></g><path fill="#3a414a" d="M101-234c-31-9-42 10-38 44h38v23H63V0H32v-167H5v-23h27c-7-52 17-82 69-68v24" id="ax"/><g id="k"><use transform="matrix(0.16666666666666666,0,0,0.16666666666666666,0,0)" xlink:href="#ax"/><use transform="matrix(0.16666666666666666,0,0,0.16666666666666666,16.666666666666664,0)" xlink:href="#Y"/><use transform="matrix(0.16666666666666666,0,0,0.16666666666666666,29.83333333333333,0)" xlink:href="#ar"/><use transform="matrix(0.16666666666666666,0,0,0.16666666666666666,43,0)" xlink:href="#Z"/></g><path fill="#3a414a" d="M179-190L93 31C79 59 56 82 12 73V49c39 6 53-20 64-50L1-190h34L92-34l54-156h33" id="ay"/><use transform="matrix(0.16666666666666666,0,0,0.16666666666666666,0,0)" xlink:href="#ay" id="l"/><g id="m"><use transform="matrix(0.16666666666666666,0,0,0.16666666666666666,0,0)" xlink:href="#af"/><use transform="matrix(0.16666666666666666,0,0,0.16666666666666666,30,0)" xlink:href="#ak"/><use transform="matrix(0.16666666666666666,0,0,0.16666666666666666,63.33333333333333,0)" xlink:href="#ar"/><use transform="matrix(0.16666666666666666,0,0,0.16666666666666666,76.5,0)" xlink:href="#aq"/><use transform="matrix(0.16666666666666666,0,0,0.16666666666666666,109.83333333333333,0)" xlink:href="#ac"/><use transform="matrix(0.16666666666666666,0,0,0.16666666666666666,159.66666666666666,0)" xlink:href="#al"/><use transform="matrix(0.16666666666666666,0,0,0.16666666666666666,193,0)" xlink:href="#Z"/></g><g id="n"><use transform="matrix(0.16666666666666666,0,0,0.16666666666666666,0,0)" xlink:href="#ad"/><use transform="matrix(0.16666666666666666,0,0,0.16666666666666666,33.33333333333333,0)" xlink:href="#ae"/></g><path fill="#3a414a" d="M115-194c55 1 70 41 70 98S169 2 115 4C84 4 66-9 55-30l1 105H24l-1-265h31l2 30c10-21 28-34 59-34zm-8 174c40 0 45-34 45-75s-6-73-45-74c-42 0-51 32-51 76 0 43 10 73 51 73" id="az"/><path fill="#3a414a" d="M141 0L90-78 38 0H4l68-98-65-92h35l48 74 47-74h35l-64 92 68 98h-35" id="aA"/><g id="o"><use transform="matrix(0.16666666666666666,0,0,0.16666666666666666,0,0)" xlink:href="#az"/><use transform="matrix(0.16666666666666666,0,0,0.16666666666666666,33.33333333333333,0)" xlink:href="#Y"/><use transform="matrix(0.16666666666666666,0,0,0.16666666666666666,46.5,0)" xlink:href="#aA"/><use transform="matrix(0.16666666666666666,0,0,0.16666666666666666,76.5,0)" xlink:href="#ae"/><use transform="matrix(0.16666666666666666,0,0,0.16666666666666666,109.83333333333333,0)" xlink:href="#ar"/></g><g id="p"><use transform="matrix(0.16666666666666666,0,0,0.16666666666666666,0,0)" xlink:href="#ad"/><use transform="matrix(0.16666666666666666,0,0,0.16666666666666666,33.33333333333333,0)" xlink:href="#ae"/></g><path fill="#3a414a" d="M100-194c63 0 86 42 84 106H49c0 40 14 67 53 68 26 1 43-12 49-29l28 8c-11 28-37 45-77 45C44 4 14-33 15-96c1-61 26-98 85-98zm52 81c6-60-76-77-97-28-3 7-6 17-6 28h103zm-74-98c8-23 27-35 38-54h36v5l-58 49H78" id="aB"/><g id="q"><use transform="matrix(0.16666666666666666,0,0,0.16666666666666666,0,0)" xlink:href="#Y"/><use transform="matrix(0.16666666666666666,0,0,0.16666666666666666,13.166666666666666,0)" xlink:href="#al"/><use transform="matrix(0.16666666666666666,0,0,0.16666666666666666,46.5,0)" xlink:href="#ag"/><use transform="matrix(0.16666666666666666,0,0,0.16666666666666666,63.16666666666666,0)" xlink:href="#ae"/><use transform="matrix(0.16666666666666666,0,0,0.16666666666666666,96.5,0)" xlink:href="#ab"/><use transform="matrix(0.16666666666666666,0,0,0.16666666666666666,116.33333333333331,0)" xlink:href="#aB"/><use transform="matrix(0.16666666666666666,0,0,0.16666666666666666,149.66666666666663,0)" xlink:href="#ai"/></g><path fill="#3a414a" d="M143 4C61 4 22-44 18-125c-5-107 100-154 193-111 17 8 29 25 37 43l-32 9c-13-25-37-40-76-40-61 0-88 39-88 99 0 61 29 100 91 101 35 0 62-11 79-27v-45h-74v-28h105v86C228-13 192 4 143 4" id="aC"/><g id="r"><use transform="matrix(0.16666666666666666,0,0,0.16666666666666666,0,0)" xlink:href="#aC"/><use transform="matrix(0.16666666666666666,0,0,0.16666666666666666,46.666666666666664,0)" xlink:href="#ae"/><use transform="matrix(0.16666666666666666,0,0,0.16666666666666666,80,0)" xlink:href="#al"/><use transform="matrix(0.16666666666666666,0,0,0.16666666666666666,113.33333333333333,0)" xlink:href="#ae"/><use transform="matrix(0.16666666666666666,0,0,0.16666666666666666,146.66666666666666,0)" xlink:href="#ab"/><use transform="matrix(0.16666666666666666,0,0,0.16666666666666666,166.5,0)" xlink:href="#Z"/><use transform="matrix(0.16666666666666666,0,0,0.16666666666666666,199.83333333333331,0)" xlink:href="#ab"/></g><g id="s"><use transform="matrix(0.16666666666666666,0,0,0.16666666666666666,0,0)" xlink:href="#ab"/><use transform="matrix(0.16666666666666666,0,0,0.16666666666666666,19.833333333333332,0)" xlink:href="#ae"/><use transform="matrix(0.16666666666666666,0,0,0.16666666666666666,53.16666666666666,0)" xlink:href="#af"/><use transform="matrix(0.16666666666666666,0,0,0.16666666666666666,83.16666666666666,0)" xlink:href="#ak"/><use transform="matrix(0.16666666666666666,0,0,0.16666666666666666,116.5,0)" xlink:href="#ab"/><use transform="matrix(0.16666666666666666,0,0,0.16666666666666666,136.33333333333331,0)" xlink:href="#ag"/><use transform="matrix(0.16666666666666666,0,0,0.16666666666666666,152.99999999999997,0)" xlink:href="#ae"/></g><g id="t"><use transform="matrix(0.16666666666666666,0,0,0.16666666666666666,0,0)" xlink:href="#ad"/><use transform="matrix(0.16666666666666666,0,0,0.16666666666666666,33.33333333333333,0)" xlink:href="#ae"/></g><path fill="#3a414a" d="M141-36C126-15 110 5 73 4 37 3 15-17 15-53c-1-64 63-63 125-63 3-35-9-54-41-54-24 1-41 7-42 31l-33-3c5-37 33-52 76-52 45 0 72 20 72 64v82c-1 20 7 32 28 27v20c-31 9-61-2-59-35zM48-53c0 20 12 33 32 33 41-3 63-29 60-74-43 2-92-5-92 41zm25-158c8-23 27-35 38-54h36v5l-58 49H73" id="aD"/><g id="u"><use transform="matrix(0.16666666666666666,0,0,0.16666666666666666,0,0)" xlink:href="#Y"/><use transform="matrix(0.16666666666666666,0,0,0.16666666666666666,13.166666666666666,0)" xlink:href="#ac"/><use transform="matrix(0.16666666666666666,0,0,0.16666666666666666,63,0)" xlink:href="#aD"/><use transform="matrix(0.16666666666666666,0,0,0.16666666666666666,96.33333333333331,0)" xlink:href="#aa"/><use transform="matrix(0.16666666666666666,0,0,0.16666666666666666,129.66666666666663,0)" xlink:href="#ae"/><use transform="matrix(0.16666666666666666,0,0,0.16666666666666666,162.99999999999994,0)" xlink:href="#al"/></g><g id="v"><use transform="matrix(0.16666666666666666,0,0,0.16666666666666666,0,0)" xlink:href="#av"/><use transform="matrix(0.16666666666666666,0,0,0.16666666666666666,40,0)" xlink:href="#al"/><use transform="matrix(0.16666666666666666,0,0,0.16666666666666666,73.33333333333333,0)" xlink:href="#ag"/><use transform="matrix(0.16666666666666666,0,0,0.16666666666666666,90,0)" xlink:href="#ab"/><use transform="matrix(0.16666666666666666,0,0,0.16666666666666666,109.83333333333333,0)" xlink:href="#ae"/><use transform="matrix(0.16666666666666666,0,0,0.16666666666666666,143.16666666666666,0)" xlink:href="#al"/><use transform="matrix(0.16666666666666666,0,0,0.16666666666666666,176.5,0)" xlink:href="#Z"/><use transform="matrix(0.16666666666666666,0,0,0.16666666666666666,209.83333333333331,0)" xlink:href="#ab"/></g><g id="w"><use transform="matrix(0.16666666666666666,0,0,0.16666666666666666,0,0)" xlink:href="#ac"/><use transform="matrix(0.16666666666666666,0,0,0.16666666666666666,49.83333333333333,0)" xlink:href="#ak"/><use transform="matrix(0.16666666666666666,0,0,0.16666666666666666,83.16666666666666,0)" xlink:href="#ad"/><use transform="matrix(0.16666666666666666,0,0,0.16666666666666666,116.5,0)" xlink:href="#ae"/><use transform="matrix(0.16666666666666666,0,0,0.16666666666666666,149.83333333333331,0)" xlink:href="#ar"/><use transform="matrix(0.16666666666666666,0,0,0.16666666666666666,162.99999999999997,0)" xlink:href="#ak"/></g><g id="x"><use transform="matrix(0.16666666666666666,0,0,0.16666666666666666,0,0)" xlink:href="#av"/><use transform="matrix(0.16666666666666666,0,0,0.16666666666666666,40,0)" xlink:href="#aA"/><use transform="matrix(0.16666666666666666,0,0,0.16666666666666666,70,0)" xlink:href="#az"/><use transform="matrix(0.16666666666666666,0,0,0.16666666666666666,103.33333333333333,0)" xlink:href="#ak"/><use transform="matrix(0.16666666666666666,0,0,0.16666666666666666,136.66666666666666,0)" xlink:href="#ab"/><use transform="matrix(0.16666666666666666,0,0,0.16666666666666666,156.5,0)" xlink:href="#ag"/><use transform="matrix(0.16666666666666666,0,0,0.16666666666666666,173.16666666666666,0)" xlink:href="#Z"/><use transform="matrix(0.16666666666666666,0,0,0.16666666666666666,206.5,0)" xlink:href="#ab"/></g><path fill="#3a414a" d="M212-179c-10-28-35-45-73-45-59 0-87 40-87 99 0 60 29 101 89 101 43 0 62-24 78-52l27 14C228-24 195 4 139 4 59 4 22-46 18-125c-6-104 99-153 187-111 19 9 31 26 39 46" id="aE"/><g id="y"><use transform="matrix(0.16666666666666666,0,0,0.16666666666666666,0,0)" xlink:href="#aE"/><use transform="matrix(0.16666666666666666,0,0,0.16666666666666666,43.166666666666664,0)" xlink:href="#Z"/><use transform="matrix(0.16666666666666666,0,0,0.16666666666666666,76.5,0)" xlink:href="#ab"/><use transform="matrix(0.16666666666666666,0,0,0.16666666666666666,96.33333333333333,0)" xlink:href="#aa"/><use transform="matrix(0.16666666666666666,0,0,0.16666666666666666,129.66666666666666,0)" xlink:href="#Z"/><use transform="matrix(0.16666666666666666,0,0,0.16666666666666666,163,0)" xlink:href="#ab"/></g><g id="z"><use transform="matrix(0.16666666666666666,0,0,0.16666666666666666,0,0)" xlink:href="#ac"/><use transform="matrix(0.16666666666666666,0,0,0.16666666666666666,49.83333333333333,0)" xlink:href="#Z"/><use transform="matrix(0.16666666666666666,0,0,0.16666666666666666,83.16666666666666,0)" xlink:href="#az"/><use transform="matrix(0.16666666666666666,0,0,0.16666666666666666,116.5,0)" xlink:href="#Z"/></g><g id="A"><use transform="matrix(0.16666666666666666,0,0,0.16666666666666666,0,0)" xlink:href="#ah"/><use transform="matrix(0.16666666666666666,0,0,0.16666666666666666,30,0)" xlink:href="#Y"/><use transform="matrix(0.16666666666666666,0,0,0.16666666666666666,43.166666666666664,0)" xlink:href="#Z"/></g><g id="B"><use transform="matrix(0.16666666666666666,0,0,0.16666666666666666,0,0)" xlink:href="#aC"/><use transform="matrix(0.16666666666666666,0,0,0.16666666666666666,46.666666666666664,0)" xlink:href="#ak"/><use transform="matrix(0.16666666666666666,0,0,0.16666666666666666,80,0)" xlink:href="#ak"/><use transform="matrix(0.16666666666666666,0,0,0.16666666666666666,113.33333333333333,0)" xlink:href="#aa"/><use transform="matrix(0.16666666666666666,0,0,0.16666666666666666,146.66666666666666,0)" xlink:href="#ar"/><use transform="matrix(0.16666666666666666,0,0,0.16666666666666666,159.83333333333331,0)" xlink:href="#ae"/></g><path fill="#3a414a" d="M240 0l2-218c-23 76-54 145-80 218h-23L58-218 59 0H30v-248h44l77 211c21-75 51-140 76-211h43V0h-30" id="aF"/><g id="C"><use transform="matrix(0.16666666666666666,0,0,0.16666666666666666,0,0)" xlink:href="#aF"/><use transform="matrix(0.16666666666666666,0,0,0.16666666666666666,49.83333333333333,0)" xlink:href="#Z"/><use transform="matrix(0.16666666666666666,0,0,0.16666666666666666,83.16666666666666,0)" xlink:href="#az"/><use transform="matrix(0.16666666666666666,0,0,0.16666666666666666,116.5,0)" xlink:href="#ai"/></g><path fill="#3a414a" d="M205 0l-28-72H64L36 0H1l101-248h38L239 0h-34zm-38-99l-47-123c-12 45-31 82-46 123h93" id="aG"/><path fill="#3a414a" d="M30-248c87 1 191-15 191 75 0 78-77 80-158 76V0H30v-248zm33 125c57 0 124 11 124-50 0-59-68-47-124-48v98" id="aH"/><path fill="#3a414a" d="M33 0v-248h34V0H33" id="aI"/><g id="D"><use transform="matrix(0.16666666666666666,0,0,0.16666666666666666,0,0)" xlink:href="#aG"/><use transform="matrix(0.16666666666666666,0,0,0.16666666666666666,40,0)" xlink:href="#aH"/><use transform="matrix(0.16666666666666666,0,0,0.16666666666666666,80,0)" xlink:href="#aI"/></g><g id="E"><use transform="matrix(0.16666666666666666,0,0,0.16666666666666666,0,0)" xlink:href="#aH"/><use transform="matrix(0.16666666666666666,0,0,0.16666666666666666,40,0)" xlink:href="#ae"/><use transform="matrix(0.16666666666666666,0,0,0.16666666666666666,73.33333333333333,0)" xlink:href="#ab"/><use transform="matrix(0.16666666666666666,0,0,0.16666666666666666,93.16666666666666,0)" xlink:href="#ac"/><use transform="matrix(0.16666666666666666,0,0,0.16666666666666666,143,0)" xlink:href="#Y"/><use transform="matrix(0.16666666666666666,0,0,0.16666666666666666,156.16666666666666,0)" xlink:href="#ag"/><use transform="matrix(0.16666666666666666,0,0,0.16666666666666666,172.83333333333331,0)" xlink:href="#Y"/><use transform="matrix(0.16666666666666666,0,0,0.16666666666666666,186,0)" xlink:href="#ab"/></g><use transform="matrix(0.16666666666666666,0,0,0.16666666666666666,0,0)" xlink:href="#Z" id="F"/><g id="G"><use transform="matrix(0.16666666666666666,0,0,0.16666666666666666,0,0)" xlink:href="#aq"/><use transform="matrix(0.16666666666666666,0,0,0.16666666666666666,33.33333333333333,0)" xlink:href="#ai"/><use transform="matrix(0.16666666666666666,0,0,0.16666666666666666,63.33333333333333,0)" xlink:href="#aq"/><use transform="matrix(0.16666666666666666,0,0,0.16666666666666666,96.66666666666666,0)" xlink:href="#Z"/><use transform="matrix(0.16666666666666666,0,0,0.16666666666666666,130,0)" xlink:href="#ab"/><use transform="matrix(0.16666666666666666,0,0,0.16666666666666666,149.83333333333334,0)" xlink:href="#Y"/><use transform="matrix(0.16666666666666666,0,0,0.16666666666666666,163,0)" xlink:href="#ak"/></g><g id="H"><use transform="matrix(0.16666666666666666,0,0,0.16666666666666666,0,0)" xlink:href="#ai"/><use transform="matrix(0.16666666666666666,0,0,0.16666666666666666,30,0)" xlink:href="#ae"/><use transform="matrix(0.16666666666666666,0,0,0.16666666666666666,63.33333333333333,0)" xlink:href="#ar"/><use transform="matrix(0.16666666666666666,0,0,0.16666666666666666,76.5,0)" xlink:href="#ae"/><use transform="matrix(0.16666666666666666,0,0,0.16666666666666666,109.83333333333333,0)" xlink:href="#af"/><use transform="matrix(0.16666666666666666,0,0,0.16666666666666666,139.83333333333331,0)" xlink:href="#af"/><use transform="matrix(0.16666666666666666,0,0,0.16666666666666666,169.83333333333331,0)" xlink:href="#Y"/><use transform="matrix(0.16666666666666666,0,0,0.16666666666666666,183,0)" xlink:href="#ak"/><use transform="matrix(0.16666666666666666,0,0,0.16666666666666666,216.33333333333331,0)" xlink:href="#al"/><use transform="matrix(0.16666666666666666,0,0,0.16666666666666666,249.66666666666663,0)" xlink:href="#Z"/><use transform="matrix(0.16666666666666666,0,0,0.16666666666666666,282.99999999999994,0)" xlink:href="#ab"/></g><path fill="#3a414a" d="M100-194c62-1 85 37 85 99 1 63-27 99-86 99S16-35 15-95c0-66 28-99 85-99zM99-20c44 1 53-31 53-75 0-43-8-75-51-75s-53 32-53 75 10 74 51 75zM76-211c8-23 27-35 38-54h36v5l-58 49H76" id="aJ"/><g id="I"><use transform="matrix(0.16666666666666666,0,0,0.16666666666666666,0,0)" xlink:href="#aq"/><use transform="matrix(0.16666666666666666,0,0,0.16666666666666666,33.33333333333333,0)" xlink:href="#au"/><use transform="matrix(0.16666666666666666,0,0,0.16666666666666666,66.66666666666666,0)" xlink:href="#Y"/><use transform="matrix(0.16666666666666666,0,0,0.16666666666666666,79.83333333333333,0)" xlink:href="#af"/><use transform="matrix(0.16666666666666666,0,0,0.16666666666666666,109.83333333333333,0)" xlink:href="#Z"/><use transform="matrix(0.16666666666666666,0,0,0.16666666666666666,143.16666666666666,0)" xlink:href="#af"/><use transform="matrix(0.16666666666666666,0,0,0.16666666666666666,173.16666666666666,0)" xlink:href="#Y"/><use transform="matrix(0.16666666666666666,0,0,0.16666666666666666,186.33333333333331,0)" xlink:href="#aJ"/><use transform="matrix(0.16666666666666666,0,0,0.16666666666666666,219.66666666666663,0)" xlink:href="#al"/></g><g id="J"><use transform="matrix(0.16666666666666666,0,0,0.16666666666666666,0,0)" xlink:href="#ae"/><use transform="matrix(0.16666666666666666,0,0,0.16666666666666666,33.33333333333333,0)" xlink:href="#al"/></g><g id="K"><use transform="matrix(0.16666666666666666,0,0,0.16666666666666666,0,0)" xlink:href="#ac"/><use transform="matrix(0.16666666666666666,0,0,0.16666666666666666,49.83333333333333,0)" xlink:href="#Z"/><use transform="matrix(0.16666666666666666,0,0,0.16666666666666666,83.16666666666666,0)" xlink:href="#az"/><use transform="matrix(0.16666666666666666,0,0,0.16666666666666666,116.5,0)" xlink:href="#Z"/></g><path fill="#3a414a" d="M137 0h-34L2-248h35l83 218 83-218h36" id="aK"/><g id="L"><use transform="matrix(0.16666666666666666,0,0,0.16666666666666666,0,0)" xlink:href="#aK"/><use transform="matrix(0.16666666666666666,0,0,0.16666666666666666,35.5,0)" xlink:href="#Z"/><use transform="matrix(0.16666666666666666,0,0,0.16666666666666666,68.83333333333333,0)" xlink:href="#ar"/><use transform="matrix(0.16666666666666666,0,0,0.16666666666666666,82,0)" xlink:href="#Y"/><use transform="matrix(0.16666666666666666,0,0,0.16666666666666666,95.16666666666669,0)" xlink:href="#ad"/><use transform="matrix(0.16666666666666666,0,0,0.16666666666666666,128.5,0)" xlink:href="#Z"/><use transform="matrix(0.16666666666666666,0,0,0.16666666666666666,161.83333333333331,0)" xlink:href="#ab"/></g><g id="M"><use transform="matrix(0.16666666666666666,0,0,0.16666666666666666,0,0)" xlink:href="#af"/><use transform="matrix(0.16666666666666666,0,0,0.16666666666666666,30,0)" xlink:href="#ak"/><use transform="matrix(0.16666666666666666,0,0,0.16666666666666666,63.33333333333333,0)" xlink:href="#ak"/><use transform="matrix(0.16666666666666666,0,0,0.16666666666666666,96.66666666666666,0)" xlink:href="#ab"/><use transform="matrix(0.16666666666666666,0,0,0.16666666666666666,116.5,0)" xlink:href="#ad"/><use transform="matrix(0.16666666666666666,0,0,0.16666666666666666,149.83333333333331,0)" xlink:href="#ae"/><use transform="matrix(0.16666666666666666,0,0,0.16666666666666666,183.16666666666663,0)" xlink:href="#al"/><use transform="matrix(0.16666666666666666,0,0,0.16666666666666666,216.49999999999994,0)" xlink:href="#Z"/><use transform="matrix(0.16666666666666666,0,0,0.16666666666666666,249.83333333333326,0)" xlink:href="#ad"/><use transform="matrix(0.16666666666666666,0,0,0.16666666666666666,283.1666666666666,0)" xlink:href="#Z"/><use transform="matrix(0.16666666666666666,0,0,0.16666666666666666,316.4999999999999,0)" xlink:href="#ai"/></g><g id="N"><use transform="matrix(0.16666666666666666,0,0,0.16666666666666666,0,0)" xlink:href="#Y"/><use transform="matrix(0.16666666666666666,0,0,0.16666666666666666,13.166666666666666,0)" xlink:href="#ac"/><use transform="matrix(0.16666666666666666,0,0,0.16666666666666666,63,0)" xlink:href="#aD"/><use transform="matrix(0.16666666666666666,0,0,0.16666666666666666,96.33333333333331,0)" xlink:href="#aa"/><use transform="matrix(0.16666666666666666,0,0,0.16666666666666666,129.66666666666663,0)" xlink:href="#ae"/><use transform="matrix(0.16666666666666666,0,0,0.16666666666666666,162.99999999999994,0)" xlink:href="#al"/></g><g id="O"><use transform="matrix(0.16666666666666666,0,0,0.16666666666666666,0,0)" xlink:href="#ak"/><use transform="matrix(0.16666666666666666,0,0,0.16666666666666666,33.33333333333333,0)" xlink:href="#al"/><use transform="matrix(0.16666666666666666,0,0,0.16666666666666666,66.66666666666666,0)" xlink:href="#am"/><use transform="matrix(0.16666666666666666,0,0,0.16666666666666666,86.5,0)" xlink:href="#ad"/><use transform="matrix(0.16666666666666666,0,0,0.16666666666666666,119.83333333333331,0)" xlink:href="#ae"/><use transform="matrix(0.16666666666666666,0,0,0.16666666666666666,153.16666666666663,0)" xlink:href="#ac"/><use transform="matrix(0.16666666666666666,0,0,0.16666666666666666,202.99999999999994,0)" xlink:href="#Z"/><use transform="matrix(0.16666666666666666,0,0,0.16666666666666666,236.33333333333326,0)" xlink:href="#al"/><use transform="matrix(0.16666666666666666,0,0,0.16666666666666666,269.6666666666666,0)" xlink:href="#ad"/></g><g id="P"><use transform="matrix(0.16666666666666666,0,0,0.16666666666666666,0,0)" xlink:href="#aI"/><use transform="matrix(0.16666666666666666,0,0,0.16666666666666666,16.666666666666664,0)" xlink:href="#ac"/><use transform="matrix(0.16666666666666666,0,0,0.16666666666666666,66.5,0)" xlink:href="#az"/><use transform="matrix(0.16666666666666666,0,0,0.16666666666666666,99.83333333333333,0)" xlink:href="#ak"/><use transform="matrix(0.16666666666666666,0,0,0.16666666666666666,133.16666666666666,0)" xlink:href="#ab"/><use transform="matrix(0.16666666666666666,0,0,0.16666666666666666,153,0)" xlink:href="#ag"/><use transform="matrix(0.16666666666666666,0,0,0.16666666666666666,169.66666666666666,0)" xlink:href="#Z"/><use transform="matrix(0.16666666666666666,0,0,0.16666666666666666,203,0)" xlink:href="#ab"/></g><g id="Q"><use transform="matrix(0.16666666666666666,0,0,0.16666666666666666,0,0)" xlink:href="#aH"/><use transform="matrix(0.16666666666666666,0,0,0.16666666666666666,40,0)" xlink:href="#ab"/><use transform="matrix(0.16666666666666666,0,0,0.16666666666666666,59.83333333333333,0)" xlink:href="#ae"/><use transform="matrix(0.16666666666666666,0,0,0.16666666666666666,93.16666666666666,0)" xlink:href="#ad"/><use transform="matrix(0.16666666666666666,0,0,0.16666666666666666,126.5,0)" xlink:href="#Y"/><use transform="matrix(0.16666666666666666,0,0,0.16666666666666666,139.66666666666666,0)" xlink:href="#af"/><use transform="matrix(0.16666666666666666,0,0,0.16666666666666666,169.66666666666666,0)" xlink:href="#af"/><use transform="matrix(0.16666666666666666,0,0,0.16666666666666666,199.66666666666666,0)" xlink:href="#Y"/><use transform="matrix(0.16666666666666666,0,0,0.16666666666666666,212.83333333333331,0)" xlink:href="#aJ"/><use transform="matrix(0.16666666666666666,0,0,0.16666666666666666,246.16666666666663,0)" xlink:href="#al"/></g><g id="R"><use transform="matrix(0.16666666666666666,0,0,0.16666666666666666,0,0)" xlink:href="#aF"/><use transform="matrix(0.16666666666666666,0,0,0.16666666666666666,49.83333333333333,0)" xlink:href="#ak"/><use transform="matrix(0.16666666666666666,0,0,0.16666666666666666,83.16666666666666,0)" xlink:href="#ai"/><use transform="matrix(0.16666666666666666,0,0,0.16666666666666666,113.16666666666666,0)" xlink:href="#ag"/><use transform="matrix(0.16666666666666666,0,0,0.16666666666666666,129.83333333333331,0)" xlink:href="#ab"/><use transform="matrix(0.16666666666666666,0,0,0.16666666666666666,149.66666666666666,0)" xlink:href="#Z"/><use transform="matrix(0.16666666666666666,0,0,0.16666666666666666,183,0)" xlink:href="#ab"/></g><g id="S"><use transform="matrix(0.16666666666666666,0,0,0.16666666666666666,0,0)" xlink:href="#az"/><use transform="matrix(0.16666666666666666,0,0,0.16666666666666666,33.33333333333333,0)" xlink:href="#ab"/><use transform="matrix(0.16666666666666666,0,0,0.16666666666666666,53.16666666666666,0)" xlink:href="#ae"/><use transform="matrix(0.16666666666666666,0,0,0.16666666666666666,86.5,0)" xlink:href="#ad"/><use transform="matrix(0.16666666666666666,0,0,0.16666666666666666,119.83333333333331,0)" xlink:href="#Y"/><use transform="matrix(0.16666666666666666,0,0,0.16666666666666666,132.99999999999997,0)" xlink:href="#af"/><use transform="matrix(0.16666666666666666,0,0,0.16666666666666666,162.99999999999997,0)" xlink:href="#af"/><use transform="matrix(0.16666666666666666,0,0,0.16666666666666666,193,0)" xlink:href="#Y"/><use transform="matrix(0.16666666666666666,0,0,0.16666666666666666,206.16666666666663,0)" xlink:href="#aJ"/><use transform="matrix(0.16666666666666666,0,0,0.16666666666666666,239.49999999999994,0)" xlink:href="#al"/></g><g id="T"><use transform="matrix(0.16666666666666666,0,0,0.16666666666666666,0,0)" xlink:href="#aG"/><use transform="matrix(0.16666666666666666,0,0,0.16666666666666666,40,0)" xlink:href="#aa"/><use transform="matrix(0.16666666666666666,0,0,0.16666666666666666,73.33333333333333,0)" xlink:href="#ab"/><use transform="matrix(0.16666666666666666,0,0,0.16666666666666666,93.16666666666666,0)" xlink:href="#ae"/><use transform="matrix(0.16666666666666666,0,0,0.16666666666666666,126.5,0)" xlink:href="#aa"/><use transform="matrix(0.16666666666666666,0,0,0.16666666666666666,159.83333333333331,0)" xlink:href="#Z"/><use transform="matrix(0.16666666666666666,0,0,0.16666666666666666,193.16666666666663,0)" xlink:href="#ab"/></g><path fill="#3a414a" d="M145-31C134-9 116 4 85 4 32 4 16-35 15-94c0-59 17-99 70-100 32-1 48 14 60 33 0-11-1-24 2-32h30l-1 268h-32zM93-21c41 0 51-33 51-76s-8-73-50-73c-40 0-46 35-46 75s5 74 45 74" id="aL"/><g id="U"><use transform="matrix(0.16666666666666666,0,0,0.16666666666666666,0,0)" xlink:href="#ae"/><use transform="matrix(0.16666666666666666,0,0,0.16666666666666666,33.33333333333333,0)" xlink:href="#ag"/><use transform="matrix(0.16666666666666666,0,0,0.16666666666666666,50,0)" xlink:href="#Y"/><use transform="matrix(0.16666666666666666,0,0,0.16666666666666666,63.16666666666666,0)" xlink:href="#aL"/><use transform="matrix(0.16666666666666666,0,0,0.16666666666666666,96.5,0)" xlink:href="#aq"/><use transform="matrix(0.16666666666666666,0,0,0.16666666666666666,129.83333333333331,0)" xlink:href="#ae"/><use transform="matrix(0.16666666666666666,0,0,0.16666666666666666,163.16666666666663,0)" xlink:href="#ag"/><use transform="matrix(0.16666666666666666,0,0,0.16666666666666666,179.8333333333333,0)" xlink:href="#Z"/><use transform="matrix(0.16666666666666666,0,0,0.16666666666666666,213.16666666666663,0)" xlink:href="#ai"/></g><path fill="#3a414a" d="M185-189c-5-48-123-54-124 2 14 75 158 14 163 119 3 78-121 87-175 55-17-10-28-26-33-46l33-7c5 56 141 63 141-1 0-78-155-14-162-118-5-82 145-84 179-34 5 7 8 16 11 25" id="aM"/><g id="V"><use transform="matrix(0.16666666666666666,0,0,0.16666666666666666,0,0)" xlink:href="#aM"/><use transform="matrix(0.16666666666666666,0,0,0.16666666666666666,40,0)" xlink:href="#aE"/><use transform="matrix(0.16666666666666666,0,0,0.16666666666666666,83.16666666666666,0)" xlink:href="#aI"/><use transform="matrix(0.16666666666666666,0,0,0.16666666666666666,99.83333333333331,0)" xlink:href="#aG"/><use transform="matrix(0.16666666666666666,0,0,0.16666666666666666,139.83333333333331,0)" xlink:href="#ap"/></g><g id="W"><use transform="matrix(0.16666666666666666,0,0,0.16666666666666666,0,0)" xlink:href="#ab"/><use transform="matrix(0.16666666666666666,0,0,0.16666666666666666,19.833333333333332,0)" xlink:href="#ae"/><use transform="matrix(0.16666666666666666,0,0,0.16666666666666666,53.16666666666666,0)" xlink:href="#ai"/><use transform="matrix(0.16666666666666666,0,0,0.16666666666666666,83.16666666666666,0)" xlink:href="#aq"/><use transform="matrix(0.16666666666666666,0,0,0.16666666666666666,116.5,0)" xlink:href="#ar"/><use transform="matrix(0.16666666666666666,0,0,0.16666666666666666,129.66666666666666,0)" xlink:href="#ag"/><use transform="matrix(0.16666666666666666,0,0,0.16666666666666666,146.33333333333331,0)" xlink:href="#Z"/><use transform="matrix(0.16666666666666666,0,0,0.16666666666666666,179.66666666666663,0)" xlink:href="#ad"/><use transform="matrix(0.16666666666666666,0,0,0.16666666666666666,212.99999999999994,0)" xlink:href="#ak"/></g></defs></g></svg>