<svg xmlns="http://www.w3.org/2000/svg" xmlns:xlink="http://www.w3.org/1999/xlink" xmlns:lucid="lucid" width="3246" height="2679"><g transform="translate(-375 -168)" lucid:page-tab-id="0_0"><path d="M-2000-2500h14500v5500H-2000z" fill="#fff"/><path d="M540 644a12.8 12.8 0 0 1 4.6-9.84l60.4-50.32a16.57 16.57 0 0 1 10.6-3.84H1234a6 6 0 0 1 6 6v498.4a16.57 16.57 0 0 1-3.84 10.6l-50.32 60.4a12.8 12.8 0 0 1-9.84 4.6H546a6 6 0 0 1-6-6z" stroke="#3a414a" fill="#fff"/><path d="M546 638a2.17 2.17 0 0 1-1.4-3.84l60.4-50.32a16.57 16.57 0 0 1 10.6-3.84H1234a2.48 2.48 0 0 1 1.76 4.24l-49.52 49.52A14.48 14.48 0 0 1 1176 638z" stroke="#3a414a" fill="#e6e6e6"/><path d="M1182 644a14.48 14.48 0 0 1 4.24-10.24l49.52-49.52A2.48 2.48 0 0 1 1240 586v498.4a16.57 16.57 0 0 1-3.84 10.6l-50.32 60.4a2.17 2.17 0 0 1-3.84-1.4z" stroke="#3a414a" fill="#ccc"/><use xlink:href="#a" transform="matrix(1,0,0,1,548,646) translate(0 44.44444444444445)"/><use xlink:href="#b" transform="matrix(1,0,0,1,548,646) translate(156.94444444444446 44.44444444444445)"/><path d="M1420 302a6 6 0 0 1 6-6h788a6 6 0 0 1 6 6v174a6 6 0 0 1-6 6h-788a6 6 0 0 1-6-6z" fill="#fff" fill-opacity="0"/><use xlink:href="#c" transform="matrix(1,0,0,1,1425,301) translate(185.59259259259255 64.16666666666669)"/><use xlink:href="#d" transform="matrix(1,0,0,1,1425,301) translate(522.9259259259259 64.16666666666669)"/><use xlink:href="#e" transform="matrix(1,0,0,1,1425,301) translate(138.84259259259255 152.16666666666669)"/><path d="M680 766a6 6 0 0 1 6-6h428a6 6 0 0 1 6 6v188a6 6 0 0 1-6 6H686a6 6 0 0 1-6-6z" stroke="#3a414a" stroke-width="3" fill="#fff"/><path d="M660 806a6 6 0 0 1 6-6h28a6 6 0 0 1 6 6v8a6 6 0 0 1-6 6h-28a6 6 0 0 1-6-6zM660 906a6 6 0 0 1 6-6h28a6 6 0 0 1 6 6v8a6 6 0 0 1-6 6h-28a6 6 0 0 1-6-6z" stroke="#3a414a" stroke-width="3" fill="#fff"/><use xlink:href="#f" transform="matrix(1,0,0,1,752,780) translate(36.20370370370381 90.22222222222221)"/><path d="M1500 868.06a12.8 12.8 0 0 1 4.6-9.84l60.4-50.32a16.57 16.57 0 0 1 10.6-3.84H2194a6 6 0 0 1 6 6v498.4a16.57 16.57 0 0 1-3.84 10.6l-50.32 60.4a12.8 12.8 0 0 1-9.84 4.6h-630a6 6 0 0 1-6-6z" stroke="#3a414a" fill="#fff"/><path d="M1506 862.06a2.17 2.17 0 0 1-1.4-3.84l60.4-50.32a16.57 16.57 0 0 1 10.6-3.84H2194a2.48 2.48 0 0 1 1.76 4.25l-49.52 49.52a14.48 14.48 0 0 1-10.24 4.24z" stroke="#3a414a" fill="#e6e6e6"/><path d="M2142 868.06a14.48 14.48 0 0 1 4.24-10.24l49.52-49.5a2.48 2.48 0 0 1 4.24 1.74v498.4a16.57 16.57 0 0 1-3.84 10.6l-50.32 60.4a2.17 2.17 0 0 1-3.84-1.4z" stroke="#3a414a" fill="#ccc"/><use xlink:href="#g" transform="matrix(1,0,0,1,1508,870.0631229935709) translate(0 44.44444444444445)"/><use xlink:href="#b" transform="matrix(1,0,0,1,1508,870.0631229935709) translate(128.39506172839506 44.44444444444445)"/><path d="M1640 990.06a6 6 0 0 1 6-6h428a6 6 0 0 1 6 6V1274a6 6 0 0 1-6 6h-428a6 6 0 0 1-6-6z" stroke="#3a414a" stroke-width="3" fill="#fff"/><path d="M1620 1054.05a6 6 0 0 1 6-6h28a6 6 0 0 1 6 6v8a6 6 0 0 1-6 6h-28a6 6 0 0 1-6-6zM1620 1202.02a6 6 0 0 1 6-6h28a6 6 0 0 1 6 6v8a6 6 0 0 1-6 6h-28a6 6 0 0 1-6-6z" stroke="#3a414a" stroke-width="3" fill="#fff"/><use xlink:href="#h" transform="matrix(1,0,0,1,1712,1013.6568106942138) translate(75.88580246913587 40.88888888888886)"/><use xlink:href="#i" transform="matrix(1,0,0,1,1712,1013.6568106942138) translate(36.20370370370381 102.22222222222214)"/><use xlink:href="#j" transform="matrix(1,0,0,1,1712,1013.6568106942138) translate(203.45061728395058 102.22222222222214)"/><use xlink:href="#k" transform="matrix(1,0,0,1,1712,1013.6568106942138) translate(36.27469135802478 163.55555555555543)"/><use xlink:href="#l" transform="matrix(1,0,0,1,1712,1013.6568106942138) translate(9.22839506172852 224.88888888888872)"/><use xlink:href="#m" transform="matrix(1,0,0,1,1712,1013.6568106942138) translate(187.9753086419753 224.88888888888872)"/><path d="M2460 1069.66a12.8 12.8 0 0 1 4.6-9.84l86.3-71.92a16.57 16.57 0 0 1 10.6-3.84H3414a6 6 0 0 1 6 6v688.43a16.57 16.57 0 0 1-3.84 10.6l-71.9 86.3a12.8 12.8 0 0 1-9.85 4.6H2466a6 6 0 0 1-6-6z" stroke="#3a414a" fill="#fff"/><path d="M2466 1063.66a2.17 2.17 0 0 1-1.4-3.84l86.3-71.92a16.57 16.57 0 0 1 10.6-3.84H3414a2.48 2.48 0 0 1 1.76 4.25l-71.1 71.1a14.48 14.48 0 0 1-10.25 4.26z" stroke="#3a414a" fill="#e6e6e6"/><path d="M3340.4 1069.66a14.48 14.48 0 0 1 4.25-10.25l71.1-71.1a2.48 2.48 0 0 1 4.25 1.76v688.43a16.57 16.57 0 0 1-3.84 10.6l-71.9 86.3a2.17 2.17 0 0 1-3.85-1.4z" stroke="#3a414a" fill="#ccc"/><use xlink:href="#n" transform="matrix(1,0,0,1,2468,1071.6568106942136) translate(0 44.44444444444445)"/><use xlink:href="#b" transform="matrix(1,0,0,1,2468,1071.6568106942136) translate(286.5740740740741 44.44444444444445)"/><path d="M2627.7 1170.06a6 6 0 0 1 6-6h534.15a6 6 0 0 1 6 6v188a6 6 0 0 1-6 6H2633.7a6 6 0 0 1-6-6z" stroke="#3a414a" stroke-width="3" fill="#fff"/><path d="M2607.7 1210.06a6 6 0 0 1 6-6h28a6 6 0 0 1 6 6v8a6 6 0 0 1-6 6h-28a6 6 0 0 1-6-6zM2607.7 1310.06a6 6 0 0 1 6-6h28a6 6 0 0 1 6 6v8a6 6 0 0 1-6 6h-28a6 6 0 0 1-6-6z" stroke="#3a414a" stroke-width="3" fill="#fff"/><use xlink:href="#o" transform="matrix(1,0,0,1,2720.9230769230767,1184.0631229935707) translate(87.83024691358034 59.55555555555557)"/><use xlink:href="#p" transform="matrix(1,0,0,1,2720.9230769230767,1184.0631229935707) translate(252.3796296296296 59.55555555555557)"/><use xlink:href="#q" transform="matrix(1,0,0,1,2720.9230769230767,1184.0631229935707) translate(109.12654320987662 120.88888888888886)"/><path d="M1360 1668a12.8 12.8 0 0 1 4.6-9.84l89.2-74.32a16.57 16.57 0 0 1 10.6-3.84H2174a6 6 0 0 1 6 6v969.6a16.57 16.57 0 0 1-3.84 10.6l-74.32 89.2a12.8 12.8 0 0 1-9.84 4.6h-726a6 6 0 0 1-6-6z" stroke="#3a414a" fill="#fff"/><path d="M1366 1662a2.17 2.17 0 0 1-1.4-3.84l89.2-74.32a16.57 16.57 0 0 1 10.6-3.84H2174a2.48 2.48 0 0 1 1.76 4.24l-73.52 73.52A14.48 14.48 0 0 1 2092 1662z" stroke="#3a414a" fill="#e6e6e6"/><path d="M2098 1668a14.48 14.48 0 0 1 4.24-10.24l73.52-73.52a2.48 2.48 0 0 1 4.24 1.76v969.6a16.57 16.57 0 0 1-3.84 10.6l-74.32 89.2a2.17 2.17 0 0 1-3.84-1.4z" stroke="#3a414a" fill="#ccc"/><use xlink:href="#r" transform="matrix(1,0,0,1,1368,1670) translate(0 44.44444444444445)"/><use xlink:href="#s" transform="matrix(1,0,0,1,1368,1670) translate(178.5493827160494 44.44444444444445)"/><use xlink:href="#b" transform="matrix(1,0,0,1,1368,1670) translate(397.22222222222223 44.44444444444445)"/><path d="M1500 1810.06a6 6 0 0 1 6-6h488a6 6 0 0 1 6 6v188a6 6 0 0 1-6 6h-488a6 6 0 0 1-6-6z" stroke="#3a414a" stroke-width="3" fill="#fff"/><path d="M1480 1850.06a6 6 0 0 1 6-6h28a6 6 0 0 1 6 6v8a6 6 0 0 1-6 6h-28a6 6 0 0 1-6-6zM1480 1950.06a6 6 0 0 1 6-6h28a6 6 0 0 1 6 6v8a6 6 0 0 1-6 6h-28a6 6 0 0 1-6-6z" stroke="#3a414a" stroke-width="3" fill="#fff"/><use xlink:href="#t" transform="matrix(1,0,0,1,1584,1824.063122993571) translate(-24.99999999999983 90.22222222222221)"/><path d="M2003.85 2452.7l584.05-807.15" stroke="#3a414a" stroke-width="8" fill="none"/><path d="M2007.15 2454.96l-4.17 5.75-1.48-1.06v-8.77z" stroke="#3a414a" stroke-width=".05" fill="#3a414a"/><path d="M2598.6 1630.75l-4.6 14.28-7.5-5.44z" stroke="#3a414a" stroke-width="8" fill="#3a414a"/><path d="M1500 2361.94a6 6 0 0 1 6-6h488a6 6 0 0 1 6 6v188a6 6 0 0 1-6 6h-488a6 6 0 0 1-6-6z" stroke="#3a414a" stroke-width="3" fill="#fff"/><path d="M1480 2401.94a6 6 0 0 1 6-6h28a6 6 0 0 1 6 6v8a6 6 0 0 1-6 6h-28a6 6 0 0 1-6-6zM1480 2501.94a6 6 0 0 1 6-6h28a6 6 0 0 1 6 6v8a6 6 0 0 1-6 6h-28a6 6 0 0 1-6-6z" stroke="#3a414a" stroke-width="3" fill="#fff"/><use xlink:href="#u" transform="matrix(1,0,0,1,1584,2375.9368770064293) translate(85.59876543209884 59.55555555555557)"/><use xlink:href="#v" transform="matrix(1,0,0,1,1584,2375.9368770064293) translate(98.37654320987662 120.88888888888886)"/><path d="M1125.2 861.55l484.54 204.3" stroke="#3a414a" stroke-width="8" fill="none"/><path d="M1126.83 857.9l-3.1 7.38-2.23-.94v-8.68z" stroke="#3a414a" stroke-width=".05" fill="#3a414a"/><path d="M1626.57 1072.96l-14.94-1.27 3.6-8.56z" stroke="#3a414a" stroke-width="8" fill="#3a414a"/><path d="M2085.33 1058.7l490.95 146.2" stroke="#3a414a" stroke-width="8" fill="none"/><path d="M2086.57 1054.9l-2.28 7.67-2.8-.83v-8.35z" stroke="#3a414a" stroke-width=".05" fill="#3a414a"/><path d="M2593.8 1210.1l-15 .38 2.64-8.9z" stroke="#3a414a" stroke-width="8" fill="#3a414a"/><path d="M2890.77 1368.56v96.94" stroke="#3a414a" stroke-width="6" fill="none"/><path d="M2893.77 1368.64h-6v-3.08h6zM2893.77 1468.5h-6v-3.08h6z" stroke="#3a414a" stroke-width=".05" fill="#3a414a"/><path d="M1740 2008.56v342.88" stroke="#3a414a" stroke-width="6" fill="none"/><path d="M1743 2008.64h-6v-3.08h6zM1743 2354.44h-6v-3.08h6z" stroke="#3a414a" stroke-width=".05" fill="#3a414a"/><path d="M2627.7 1476a6 6 0 0 1 6-6h534.15a6 6 0 0 1 6 6v188a6 6 0 0 1-6 6H2633.7a6 6 0 0 1-6-6z" stroke="#3a414a" stroke-width="3" fill="#fff"/><path d="M2607.7 1516a6 6 0 0 1 6-6h28a6 6 0 0 1 6 6v8a6 6 0 0 1-6 6h-28a6 6 0 0 1-6-6zM2607.7 1616a6 6 0 0 1 6-6h28a6 6 0 0 1 6 6v8a6 6 0 0 1-6 6h-28a6 6 0 0 1-6-6z" stroke="#3a414a" stroke-width="3" fill="#fff"/><g><use xlink:href="#w" transform="matrix(1,0,0,1,2720.9230769230767,1490) translate(43.95987654320999 59.55555555555557)"/><use xlink:href="#p" transform="matrix(1,0,0,1,2720.9230769230767,1490) translate(296.2499999999999 59.55555555555557)"/><use xlink:href="#v" transform="matrix(1,0,0,1,2720.9230769230767,1490) translate(114.87654320987662 120.88888888888886)"/></g><path d="M1500 2086a6 6 0 0 1 6-6h488a6 6 0 0 1 6 6v188a6 6 0 0 1-6 6h-488a6 6 0 0 1-6-6z" stroke="#3a414a" stroke-width="3" fill="#fff"/><path d="M1480 2126a6 6 0 0 1 6-6h28a6 6 0 0 1 6 6v8a6 6 0 0 1-6 6h-28a6 6 0 0 1-6-6zM1480 2226a6 6 0 0 1 6-6h28a6 6 0 0 1 6 6v8a6 6 0 0 1-6 6h-28a6 6 0 0 1-6-6z" stroke="#3a414a" stroke-width="3" fill="#fff"/><g><use xlink:href="#x" transform="matrix(1,0,0,1,1584,2100) translate(16.10185185185199 90.22222222222221)"/></g><defs><path fill="#3a414a" d="M212-179c-10-28-35-45-73-45-59 0-87 40-87 99 0 60 29 101 89 101 43 0 62-24 78-52l27 14C228-24 195 4 139 4 59 4 22-46 18-125c-6-104 99-153 187-111 19 9 31 26 39 46" id="y"/><path fill="#3a414a" d="M24 0v-261h32V0H24" id="z"/><path fill="#3a414a" d="M24-231v-30h32v30H24zM24 0v-190h32V0H24" id="A"/><path fill="#3a414a" d="M100-194c63 0 86 42 84 106H49c0 40 14 67 53 68 26 1 43-12 49-29l28 8c-11 28-37 45-77 45C44 4 14-33 15-96c1-61 26-98 85-98zm52 81c6-60-76-77-97-28-3 7-6 17-6 28h103" id="B"/><path fill="#3a414a" d="M117-194c89-4 53 116 60 194h-32v-121c0-31-8-49-39-48C34-167 62-67 57 0H25l-1-190h30c1 10-1 24 2 32 11-22 29-35 61-36" id="C"/><path fill="#3a414a" d="M59-47c-2 24 18 29 38 22v24C64 9 27 4 27-40v-127H5v-23h24l9-43h21v43h35v23H59v120" id="D"/><g id="a"><use transform="matrix(0.15432098765432098,0,0,0.15432098765432098,0,0)" xlink:href="#y"/><use transform="matrix(0.15432098765432098,0,0,0.15432098765432098,39.96913580246913,0)" xlink:href="#z"/><use transform="matrix(0.15432098765432098,0,0,0.15432098765432098,52.160493827160494,0)" xlink:href="#A"/><use transform="matrix(0.15432098765432098,0,0,0.15432098765432098,64.35185185185185,0)" xlink:href="#B"/><use transform="matrix(0.15432098765432098,0,0,0.15432098765432098,95.21604938271605,0)" xlink:href="#C"/><use transform="matrix(0.15432098765432098,0,0,0.15432098765432098,126.08024691358025,0)" xlink:href="#D"/></g><path fill="#3a414a" d="M114-163C36-179 61-72 57 0H25l-1-190h30c1 12-1 29 2 39 6-27 23-49 58-41v29" id="E"/><g id="b"><use transform="matrix(0.15432098765432098,0,0,0.15432098765432098,0,0)" xlink:href="#D"/><use transform="matrix(0.15432098765432098,0,0,0.15432098765432098,15.432098765432098,0)" xlink:href="#A"/><use transform="matrix(0.15432098765432098,0,0,0.15432098765432098,27.623456790123456,0)" xlink:href="#B"/><use transform="matrix(0.15432098765432098,0,0,0.15432098765432098,58.48765432098765,0)" xlink:href="#E"/></g><path fill="#3a414a" d="M30-248c118-7 216 8 213 122C240-48 200 0 122 0H30v-248zM63-27c89 8 146-16 146-99s-60-101-146-95v194" id="F"/><path fill="#3a414a" d="M141-36C126-15 110 5 73 4 37 3 15-17 15-53c-1-64 63-63 125-63 3-35-9-54-41-54-24 1-41 7-42 31l-33-3c5-37 33-52 76-52 45 0 72 20 72 64v82c-1 20 7 32 28 27v20c-31 9-61-2-59-35zM48-53c0 20 12 33 32 33 41-3 63-29 60-74-43 2-92-5-92 41" id="G"/><path fill="#3a414a" d="M177-190C167-65 218 103 67 71c-23-6-38-20-44-43l32-5c15 47 100 32 89-28v-30C133-14 115 1 83 1 29 1 15-40 15-95c0-56 16-97 71-98 29-1 48 16 59 35 1-10 0-23 2-32h30zM94-22c36 0 50-32 50-73 0-42-14-75-50-75-39 0-46 34-46 75s6 73 46 73" id="H"/><path fill="#3a414a" d="M210-169c-67 3-38 105-44 169h-31v-121c0-29-5-50-35-48C34-165 62-65 56 0H25l-1-190h30c1 10-1 24 2 32 10-44 99-50 107 0 11-21 27-35 58-36 85-2 47 119 55 194h-31v-121c0-29-5-49-35-48" id="I"/><g id="c"><use transform="matrix(0.20370370370370372,0,0,0.20370370370370372,0,0)" xlink:href="#F"/><use transform="matrix(0.20370370370370372,0,0,0.20370370370370372,52.75925925925927,0)" xlink:href="#A"/><use transform="matrix(0.20370370370370372,0,0,0.20370370370370372,68.85185185185186,0)" xlink:href="#G"/><use transform="matrix(0.20370370370370372,0,0,0.20370370370370372,109.5925925925926,0)" xlink:href="#H"/><use transform="matrix(0.20370370370370372,0,0,0.20370370370370372,150.33333333333337,0)" xlink:href="#E"/><use transform="matrix(0.20370370370370372,0,0,0.20370370370370372,174.5740740740741,0)" xlink:href="#G"/><use transform="matrix(0.20370370370370372,0,0,0.20370370370370372,215.31481481481484,0)" xlink:href="#I"/><use transform="matrix(0.20370370370370372,0,0,0.20370370370370372,276.22222222222223,0)" xlink:href="#G"/><path fill="#3a414a" d="M-3.67 5.08H341v5.37H-3.67z"/></g><path fill="#3a414a" d="M85-194c31 0 48 13 60 33l-1-100h32l1 261h-30c-2-10 0-23-3-31C134-8 116 4 85 4 32 4 16-35 15-94c0-66 23-100 70-100zm9 24c-40 0-46 34-46 75 0 40 6 74 45 74 42 0 51-32 51-76 0-42-9-74-50-73" id="J"/><g id="d"><use transform="matrix(0.20370370370370372,0,0,0.20370370370370372,0,0)" xlink:href="#J"/><use transform="matrix(0.20370370370370372,0,0,0.20370370370370372,40.74074074074075,0)" xlink:href="#B"/><path fill="#3a414a" d="M-3.67 5.08h88.8v5.37h-88.8z"/></g><path fill="#3a414a" d="M115-194c55 1 70 41 70 98S169 2 115 4C84 4 66-9 55-30l1 105H24l-1-265h31l2 30c10-21 28-34 59-34zm-8 174c40 0 45-34 45-75s-6-73-45-74c-42 0-51 32-51 76 0 43 10 73 51 73" id="K"/><path fill="#3a414a" d="M96-169c-40 0-48 33-48 73s9 75 48 75c24 0 41-14 43-38l32 2c-6 37-31 61-74 61-59 0-76-41-82-99-10-93 101-131 147-64 4 7 5 14 7 22l-32 3c-4-21-16-35-41-35" id="L"/><path fill="#3a414a" d="M100-194c62-1 85 37 85 99 1 63-27 99-86 99S16-35 15-95c0-66 28-99 85-99zM99-20c44 1 53-31 53-75 0-43-8-75-51-75s-53 32-53 75 10 74 51 75zM76-211c8-23 27-35 38-54h36v5l-58 49H76" id="M"/><g id="e"><use transform="matrix(0.20370370370370372,0,0,0.20370370370370372,0,0)" xlink:href="#A"/><use transform="matrix(0.20370370370370372,0,0,0.20370370370370372,16.092592592592595,0)" xlink:href="#I"/><use transform="matrix(0.20370370370370372,0,0,0.20370370370370372,77,0)" xlink:href="#K"/><use transform="matrix(0.20370370370370372,0,0,0.20370370370370372,117.74074074074075,0)" xlink:href="#z"/><use transform="matrix(0.20370370370370372,0,0,0.20370370370370372,133.83333333333334,0)" xlink:href="#B"/><use transform="matrix(0.20370370370370372,0,0,0.20370370370370372,174.57407407407408,0)" xlink:href="#I"/><use transform="matrix(0.20370370370370372,0,0,0.20370370370370372,235.4814814814815,0)" xlink:href="#B"/><use transform="matrix(0.20370370370370372,0,0,0.20370370370370372,276.22222222222223,0)" xlink:href="#C"/><use transform="matrix(0.20370370370370372,0,0,0.20370370370370372,316.962962962963,0)" xlink:href="#D"/><use transform="matrix(0.20370370370370372,0,0,0.20370370370370372,337.33333333333337,0)" xlink:href="#G"/><use transform="matrix(0.20370370370370372,0,0,0.20370370370370372,378.07407407407413,0)" xlink:href="#L"/><use transform="matrix(0.20370370370370372,0,0,0.20370370370370372,414.7407407407408,0)" xlink:href="#A"/><use transform="matrix(0.20370370370370372,0,0,0.20370370370370372,430.8333333333335,0)" xlink:href="#M"/><use transform="matrix(0.20370370370370372,0,0,0.20370370370370372,471.5740740740742,0)" xlink:href="#C"/><path fill="#3a414a" d="M-3.67 5.08h519.65v5.37H-3.67z"/></g><path fill="#3a414a" d="M190 0L58-211 59 0H30v-248h39L202-35l-2-213h31V0h-41" id="N"/><path fill="#3a414a" d="M108 0H70L1-190h34L89-25l56-165h34" id="O"/><path fill="#3a414a" d="M100-194c62-1 85 37 85 99 1 63-27 99-86 99S16-35 15-95c0-66 28-99 85-99zM99-20c44 1 53-31 53-75 0-43-8-75-51-75s-53 32-53 75 10 74 51 75" id="P"/><g id="f"><use transform="matrix(0.1419753086419752,0,0,0.1419753086419752,0,0)" xlink:href="#N"/><use transform="matrix(0.1419753086419752,0,0,0.1419753086419752,36.77160493827157,0)" xlink:href="#G"/><use transform="matrix(0.1419753086419752,0,0,0.1419753086419752,65.16666666666661,0)" xlink:href="#O"/><use transform="matrix(0.1419753086419752,0,0,0.1419753086419752,90.72222222222214,0)" xlink:href="#B"/><use transform="matrix(0.1419753086419752,0,0,0.1419753086419752,119.11728395061718,0)" xlink:href="#H"/><use transform="matrix(0.1419753086419752,0,0,0.1419753086419752,147.5123456790122,0)" xlink:href="#G"/><use transform="matrix(0.1419753086419752,0,0,0.1419753086419752,175.90740740740725,0)" xlink:href="#J"/><use transform="matrix(0.1419753086419752,0,0,0.1419753086419752,204.3024691358023,0)" xlink:href="#P"/><use transform="matrix(0.1419753086419752,0,0,0.1419753086419752,232.6975308641973,0)" xlink:href="#E"/></g><path fill="#3a414a" d="M266 0h-40l-56-210L115 0H75L2-248h35L96-30l15-64 43-154h32l59 218 59-218h35" id="Q"/><path fill="#3a414a" d="M115-194c53 0 69 39 70 98 0 66-23 100-70 100C84 3 66-7 56-30L54 0H23l1-261h32v101c10-23 28-34 59-34zm-8 174c40 0 45-34 45-75 0-40-5-75-45-74-42 0-51 32-51 76 0 43 10 73 51 73" id="R"/><g id="g"><use transform="matrix(0.15432098765432098,0,0,0.15432098765432098,0,0)" xlink:href="#Q"/><use transform="matrix(0.15432098765432098,0,0,0.15432098765432098,51.23456790123456,0)" xlink:href="#B"/><use transform="matrix(0.15432098765432098,0,0,0.15432098765432098,82.09876543209876,0)" xlink:href="#R"/></g><path fill="#3a414a" d="M33 0v-248h34V0H33" id="S"/><path fill="#3a414a" d="M101-234c-31-9-42 10-38 44h38v23H63V0H32v-167H5v-23h27c-7-52 17-82 69-68v24" id="T"/><path fill="#3a414a" d="M9 0v-24l116-142H16v-24h144v24L44-24h123V0H9" id="U"/><g id="h"><use transform="matrix(0.1419753086419752,0,0,0.1419753086419752,0,0)" xlink:href="#S"/><use transform="matrix(0.1419753086419752,0,0,0.1419753086419752,14.19753086419752,0)" xlink:href="#C"/><use transform="matrix(0.1419753086419752,0,0,0.1419753086419752,42.59259259259256,0)" xlink:href="#D"/><use transform="matrix(0.1419753086419752,0,0,0.1419753086419752,56.79012345679008,0)" xlink:href="#B"/><use transform="matrix(0.1419753086419752,0,0,0.1419753086419752,85.18518518518512,0)" xlink:href="#E"/><use transform="matrix(0.1419753086419752,0,0,0.1419753086419752,102.08024691358015,0)" xlink:href="#T"/><use transform="matrix(0.1419753086419752,0,0,0.1419753086419752,116.27777777777769,0)" xlink:href="#G"/><use transform="matrix(0.1419753086419752,0,0,0.1419753086419752,144.67283950617272,0)" xlink:href="#U"/></g><path fill="#3a414a" d="M141-36C126-15 110 5 73 4 37 3 15-17 15-53c-1-64 63-63 125-63 3-35-9-54-41-54-24 1-41 7-42 31l-33-3c5-37 33-52 76-52 45 0 72 20 72 64v82c-1 20 7 32 28 27v20c-31 9-61-2-59-35zM48-53c0 20 12 33 32 33 41-3 63-29 60-74-43 2-92-5-92 41zm25-158c8-23 27-35 38-54h36v5l-58 49H73" id="V"/><g id="i"><use transform="matrix(0.1419753086419752,0,0,0.1419753086419752,0,0)" xlink:href="#H"/><use transform="matrix(0.1419753086419752,0,0,0.1419753086419752,28.39506172839504,0)" xlink:href="#E"/><use transform="matrix(0.1419753086419752,0,0,0.1419753086419752,45.290123456790084,0)" xlink:href="#V"/><use transform="matrix(0.1419753086419752,0,0,0.1419753086419752,73.68518518518512,0)" xlink:href="#T"/><use transform="matrix(0.1419753086419752,0,0,0.1419753086419752,87.88271604938264,0)" xlink:href="#A"/><use transform="matrix(0.1419753086419752,0,0,0.1419753086419752,99.09876543209866,0)" xlink:href="#L"/><use transform="matrix(0.1419753086419752,0,0,0.1419753086419752,124.65432098765422,0)" xlink:href="#G"/></g><g id="j"><use transform="matrix(0.1419753086419752,0,0,0.1419753086419752,0,0)" xlink:href="#L"/><use transform="matrix(0.1419753086419752,0,0,0.1419753086419752,25.555555555555536,0)" xlink:href="#P"/><use transform="matrix(0.1419753086419752,0,0,0.1419753086419752,53.95061728395058,0)" xlink:href="#C"/></g><g id="k"><use transform="matrix(0.1419753086419752,0,0,0.1419753086419752,0,0)" xlink:href="#A"/><use transform="matrix(0.1419753086419752,0,0,0.1419753086419752,11.21604938271604,0)" xlink:href="#C"/><use transform="matrix(0.1419753086419752,0,0,0.1419753086419752,39.61111111111108,0)" xlink:href="#D"/><use transform="matrix(0.1419753086419752,0,0,0.1419753086419752,53.808641975308596,0)" xlink:href="#B"/><use transform="matrix(0.1419753086419752,0,0,0.1419753086419752,82.20370370370364,0)" xlink:href="#H"/><use transform="matrix(0.1419753086419752,0,0,0.1419753086419752,110.59876543209867,0)" xlink:href="#E"/><use transform="matrix(0.1419753086419752,0,0,0.1419753086419752,127.49382716049372,0)" xlink:href="#G"/><use transform="matrix(0.1419753086419752,0,0,0.1419753086419752,155.88888888888877,0)" xlink:href="#L"/><use transform="matrix(0.1419753086419752,0,0,0.1419753086419752,181.44444444444431,0)" xlink:href="#A"/><use transform="matrix(0.1419753086419752,0,0,0.1419753086419752,192.66049382716037,0)" xlink:href="#M"/><use transform="matrix(0.1419753086419752,0,0,0.1419753086419752,221.0555555555554,0)" xlink:href="#C"/></g><path fill="#3a414a" d="M143 4C61 4 22-44 18-125c-5-107 100-154 193-111 17 8 29 25 37 43l-32 9c-13-25-37-40-76-40-61 0-88 39-88 99 0 61 29 100 91 101 35 0 62-11 79-27v-45h-74v-28h105v86C228-13 192 4 143 4" id="W"/><g id="l"><use transform="matrix(0.1419753086419752,0,0,0.1419753086419752,0,0)" xlink:href="#W"/><use transform="matrix(0.1419753086419752,0,0,0.1419753086419752,39.75308641975305,0)" xlink:href="#P"/><use transform="matrix(0.1419753086419752,0,0,0.1419753086419752,68.1481481481481,0)" xlink:href="#P"/><use transform="matrix(0.1419753086419752,0,0,0.1419753086419752,96.54320987654313,0)" xlink:href="#H"/><use transform="matrix(0.1419753086419752,0,0,0.1419753086419752,124.93827160493817,0)" xlink:href="#z"/><use transform="matrix(0.1419753086419752,0,0,0.1419753086419752,136.15432098765422,0)" xlink:href="#B"/></g><path fill="#3a414a" d="M135-143c-3-34-86-38-87 0 15 53 115 12 119 90S17 21 10-45l28-5c4 36 97 45 98 0-10-56-113-15-118-90-4-57 82-63 122-42 12 7 21 19 24 35" id="X"/><g id="m"><use transform="matrix(0.1419753086419752,0,0,0.1419753086419752,0,0)" xlink:href="#I"/><use transform="matrix(0.1419753086419752,0,0,0.1419753086419752,42.450617283950585,0)" xlink:href="#G"/><use transform="matrix(0.1419753086419752,0,0,0.1419753086419752,70.84567901234563,0)" xlink:href="#K"/><use transform="matrix(0.1419753086419752,0,0,0.1419753086419752,99.24074074074066,0)" xlink:href="#X"/></g><path fill="#3a414a" d="M205 0l-28-72H64L36 0H1l101-248h38L239 0h-34zm-38-99l-47-123c-12 45-31 82-46 123h93" id="Y"/><g id="n"><use transform="matrix(0.15432098765432098,0,0,0.15432098765432098,0,0)" xlink:href="#Y"/><use transform="matrix(0.15432098765432098,0,0,0.15432098765432098,37.03703703703704,0)" xlink:href="#K"/><use transform="matrix(0.15432098765432098,0,0,0.15432098765432098,67.90123456790124,0)" xlink:href="#K"/><use transform="matrix(0.15432098765432098,0,0,0.15432098765432098,98.76543209876544,0)" xlink:href="#z"/><use transform="matrix(0.15432098765432098,0,0,0.15432098765432098,110.9567901234568,0)" xlink:href="#A"/><use transform="matrix(0.15432098765432098,0,0,0.15432098765432098,123.14814814814815,0)" xlink:href="#L"/><use transform="matrix(0.15432098765432098,0,0,0.15432098765432098,150.92592592592592,0)" xlink:href="#G"/><use transform="matrix(0.15432098765432098,0,0,0.15432098765432098,181.79012345679013,0)" xlink:href="#D"/><use transform="matrix(0.15432098765432098,0,0,0.15432098765432098,197.2222222222222,0)" xlink:href="#A"/><use transform="matrix(0.15432098765432098,0,0,0.15432098765432098,209.4135802469136,0)" xlink:href="#P"/><use transform="matrix(0.15432098765432098,0,0,0.15432098765432098,240.2777777777778,0)" xlink:href="#C"/></g><path fill="#3a414a" d="M30 0v-248h33v221h125V0H30" id="Z"/><g id="o"><use transform="matrix(0.1419753086419752,0,0,0.1419753086419752,0,0)" xlink:href="#Z"/><use transform="matrix(0.1419753086419752,0,0,0.1419753086419752,28.39506172839504,0)" xlink:href="#M"/><use transform="matrix(0.1419753086419752,0,0,0.1419753086419752,56.79012345679008,0)" xlink:href="#H"/><use transform="matrix(0.1419753086419752,0,0,0.1419753086419752,85.18518518518512,0)" xlink:href="#A"/><use transform="matrix(0.1419753086419752,0,0,0.1419753086419752,96.40123456790116,0)" xlink:href="#L"/><use transform="matrix(0.1419753086419752,0,0,0.1419753086419752,121.9567901234567,0)" xlink:href="#G"/></g><g id="p"><use transform="matrix(0.1419753086419752,0,0,0.1419753086419752,0,0)" xlink:href="#J"/><use transform="matrix(0.1419753086419752,0,0,0.1419753086419752,28.39506172839504,0)" xlink:href="#B"/></g><g id="q"><use transform="matrix(0.1419753086419752,0,0,0.1419753086419752,0,0)" xlink:href="#C"/><use transform="matrix(0.1419753086419752,0,0,0.1419753086419752,28.39506172839504,0)" xlink:href="#B"/><use transform="matrix(0.1419753086419752,0,0,0.1419753086419752,56.79012345679008,0)" xlink:href="#H"/><use transform="matrix(0.1419753086419752,0,0,0.1419753086419752,85.18518518518512,0)" xlink:href="#P"/><use transform="matrix(0.1419753086419752,0,0,0.1419753086419752,113.58024691358015,0)" xlink:href="#L"/><use transform="matrix(0.1419753086419752,0,0,0.1419753086419752,139.13580246913568,0)" xlink:href="#A"/><use transform="matrix(0.1419753086419752,0,0,0.1419753086419752,150.35185185185173,0)" xlink:href="#P"/></g><path fill="#3a414a" d="M84 4C-5 8 30-112 23-190h32v120c0 31 7 50 39 49 72-2 45-101 50-169h31l1 190h-30c-1-10 1-25-2-33-11 22-28 36-60 37" id="aa"/><g id="r"><use transform="matrix(0.15432098765432098,0,0,0.15432098765432098,0,0)" xlink:href="#N"/><use transform="matrix(0.15432098765432098,0,0,0.15432098765432098,39.96913580246913,0)" xlink:href="#B"/><use transform="matrix(0.15432098765432098,0,0,0.15432098765432098,70.83333333333333,0)" xlink:href="#aa"/><use transform="matrix(0.15432098765432098,0,0,0.15432098765432098,101.69753086419753,0)" xlink:href="#E"/><use transform="matrix(0.15432098765432098,0,0,0.15432098765432098,120.06172839506172,0)" xlink:href="#G"/><use transform="matrix(0.15432098765432098,0,0,0.15432098765432098,150.92592592592592,0)" xlink:href="#z"/></g><path fill="#3a414a" d="M206 0h-36l-40-164L89 0H53L-1-190h32L70-26l43-164h34l41 164 42-164h31" id="ab"/><path fill="#3a414a" d="M143 0L79-87 56-68V0H24v-261h32v163l83-92h37l-77 82L181 0h-38" id="ac"/><g id="s"><use transform="matrix(0.15432098765432098,0,0,0.15432098765432098,0,0)" xlink:href="#N"/><use transform="matrix(0.15432098765432098,0,0,0.15432098765432098,39.96913580246913,0)" xlink:href="#B"/><use transform="matrix(0.15432098765432098,0,0,0.15432098765432098,70.83333333333333,0)" xlink:href="#D"/><use transform="matrix(0.15432098765432098,0,0,0.15432098765432098,86.26543209876543,0)" xlink:href="#ab"/><use transform="matrix(0.15432098765432098,0,0,0.15432098765432098,126.23456790123456,0)" xlink:href="#P"/><use transform="matrix(0.15432098765432098,0,0,0.15432098765432098,157.09876543209876,0)" xlink:href="#E"/><use transform="matrix(0.15432098765432098,0,0,0.15432098765432098,175.46296296296296,0)" xlink:href="#ac"/></g><path fill="#3a414a" d="M30-248c87 1 191-15 191 75 0 78-77 80-158 76V0H30v-248zm33 125c57 0 124 11 124-50 0-59-68-47-124-48v98" id="ad"/><g id="t"><use transform="matrix(0.1419753086419752,0,0,0.1419753086419752,0,0)" xlink:href="#ad"/><use transform="matrix(0.1419753086419752,0,0,0.1419753086419752,34.07407407407405,0)" xlink:href="#E"/><use transform="matrix(0.1419753086419752,0,0,0.1419753086419752,50.96913580246909,0)" xlink:href="#B"/><use transform="matrix(0.1419753086419752,0,0,0.1419753086419752,79.36419753086413,0)" xlink:href="#K"/><use transform="matrix(0.1419753086419752,0,0,0.1419753086419752,107.75925925925917,0)" xlink:href="#E"/><use transform="matrix(0.1419753086419752,0,0,0.1419753086419752,124.65432098765422,0)" xlink:href="#P"/><use transform="matrix(0.1419753086419752,0,0,0.1419753086419752,153.04938271604925,0)" xlink:href="#L"/><use transform="matrix(0.1419753086419752,0,0,0.1419753086419752,178.6049382716048,0)" xlink:href="#B"/><use transform="matrix(0.1419753086419752,0,0,0.1419753086419752,206.99999999999983,0)" xlink:href="#X"/><use transform="matrix(0.1419753086419752,0,0,0.1419753086419752,232.55555555555537,0)" xlink:href="#G"/><use transform="matrix(0.1419753086419752,0,0,0.1419753086419752,260.9506172839504,0)" xlink:href="#I"/><use transform="matrix(0.1419753086419752,0,0,0.1419753086419752,303.401234567901,0)" xlink:href="#A"/><use transform="matrix(0.1419753086419752,0,0,0.1419753086419752,314.61728395061704,0)" xlink:href="#B"/><use transform="matrix(0.1419753086419752,0,0,0.1419753086419752,343.01234567901207,0)" xlink:href="#C"/><use transform="matrix(0.1419753086419752,0,0,0.1419753086419752,371.4074074074071,0)" xlink:href="#D"/><use transform="matrix(0.1419753086419752,0,0,0.1419753086419752,385.6049382716046,0)" xlink:href="#P"/></g><path fill="#3a414a" d="M30 0v-248h187v28H63v79h144v27H63v87h162V0H30" id="ae"/><path fill="#3a414a" d="M141 0L90-78 38 0H4l68-98-65-92h35l48 74 47-74h35l-64 92 68 98h-35" id="af"/><g id="u"><use transform="matrix(0.1419753086419752,0,0,0.1419753086419752,0,0)" xlink:href="#ae"/><use transform="matrix(0.1419753086419752,0,0,0.1419753086419752,34.07407407407405,0)" xlink:href="#af"/><use transform="matrix(0.1419753086419752,0,0,0.1419753086419752,59.62962962962958,0)" xlink:href="#K"/><use transform="matrix(0.1419753086419752,0,0,0.1419753086419752,88.02469135802464,0)" xlink:href="#P"/><use transform="matrix(0.1419753086419752,0,0,0.1419753086419752,116.41975308641966,0)" xlink:href="#E"/><use transform="matrix(0.1419753086419752,0,0,0.1419753086419752,133.31481481481472,0)" xlink:href="#D"/><use transform="matrix(0.1419753086419752,0,0,0.1419753086419752,147.51234567901224,0)" xlink:href="#G"/><use transform="matrix(0.1419753086419752,0,0,0.1419753086419752,175.9074074074073,0)" xlink:href="#E"/></g><g id="v"><use transform="matrix(0.1419753086419752,0,0,0.1419753086419752,0,0)" xlink:href="#I"/><use transform="matrix(0.1419753086419752,0,0,0.1419753086419752,42.450617283950585,0)" xlink:href="#P"/><use transform="matrix(0.1419753086419752,0,0,0.1419753086419752,70.84567901234563,0)" xlink:href="#J"/><use transform="matrix(0.1419753086419752,0,0,0.1419753086419752,99.24074074074066,0)" xlink:href="#B"/><use transform="matrix(0.1419753086419752,0,0,0.1419753086419752,127.6358024691357,0)" xlink:href="#z"/><use transform="matrix(0.1419753086419752,0,0,0.1419753086419752,138.85185185185173,0)" xlink:href="#P"/></g><g id="w"><use transform="matrix(0.1419753086419752,0,0,0.1419753086419752,0,0)" xlink:href="#ad"/><use transform="matrix(0.1419753086419752,0,0,0.1419753086419752,34.07407407407405,0)" xlink:href="#E"/><use transform="matrix(0.1419753086419752,0,0,0.1419753086419752,50.96913580246909,0)" xlink:href="#B"/><use transform="matrix(0.1419753086419752,0,0,0.1419753086419752,79.36419753086413,0)" xlink:href="#J"/><use transform="matrix(0.1419753086419752,0,0,0.1419753086419752,107.75925925925917,0)" xlink:href="#A"/><use transform="matrix(0.1419753086419752,0,0,0.1419753086419752,118.9753086419752,0)" xlink:href="#L"/><use transform="matrix(0.1419753086419752,0,0,0.1419753086419752,144.53086419753075,0)" xlink:href="#L"/><use transform="matrix(0.1419753086419752,0,0,0.1419753086419752,170.0864197530863,0)" xlink:href="#A"/><use transform="matrix(0.1419753086419752,0,0,0.1419753086419752,181.30246913580234,0)" xlink:href="#M"/><use transform="matrix(0.1419753086419752,0,0,0.1419753086419752,209.69753086419738,0)" xlink:href="#C"/></g><g id="x"><use transform="matrix(0.1419753086419752,0,0,0.1419753086419752,0,0)" xlink:href="#ae"/><use transform="matrix(0.1419753086419752,0,0,0.1419753086419752,34.07407407407405,0)" xlink:href="#C"/><use transform="matrix(0.1419753086419752,0,0,0.1419753086419752,62.46913580246908,0)" xlink:href="#D"/><use transform="matrix(0.1419753086419752,0,0,0.1419753086419752,76.6666666666666,0)" xlink:href="#E"/><use transform="matrix(0.1419753086419752,0,0,0.1419753086419752,93.56172839506165,0)" xlink:href="#B"/><use transform="matrix(0.1419753086419752,0,0,0.1419753086419752,121.95679012345668,0)" xlink:href="#C"/><use transform="matrix(0.1419753086419752,0,0,0.1419753086419752,150.35185185185173,0)" xlink:href="#G"/><use transform="matrix(0.1419753086419752,0,0,0.1419753086419752,178.74691358024677,0)" xlink:href="#I"/><use transform="matrix(0.1419753086419752,0,0,0.1419753086419752,221.19753086419735,0)" xlink:href="#A"/><use transform="matrix(0.1419753086419752,0,0,0.1419753086419752,232.4135802469134,0)" xlink:href="#B"/><use transform="matrix(0.1419753086419752,0,0,0.1419753086419752,260.80864197530843,0)" xlink:href="#C"/><use transform="matrix(0.1419753086419752,0,0,0.1419753086419752,289.20370370370347,0)" xlink:href="#D"/><use transform="matrix(0.1419753086419752,0,0,0.1419753086419752,303.401234567901,0)" xlink:href="#P"/></g></defs></g></svg>