<svg xmlns="http://www.w3.org/2000/svg" xmlns:xlink="http://www.w3.org/1999/xlink" xmlns:lucid="lucid" width="1945" height="2063"><g transform="translate(-4548 2522)" lucid:page-tab-id="0_0"><path d="M-2000-2500h14500v5500H-2000z" fill="#fff"/><path d="M4927.72-2474a6 6 0 0 1 6-6H5992.6a6 6 0 0 1 6 6v202.24a6 6 0 0 1-6 6H4933.72a6 6 0 0 1-6-6z" fill="#fff" fill-opacity="0"/><use xlink:href="#a" transform="matrix(1,0,0,1,4932.719848409341,-2475) translate(121.37654320987713 119.17361111111103)"/><use xlink:href="#b" transform="matrix(1,0,0,1,4932.719848409341,-2475) translate(438.26543209876553 119.17361111111103)"/><use xlink:href="#c" transform="matrix(1,0,0,1,4932.719848409341,-2475) translate(533.9444444444443 119.17361111111103)"/><use xlink:href="#d" transform="matrix(1,0,0,1,4932.719848409341,-2475) translate(732.9567901234565 119.17361111111103)"/><use xlink:href="#e" transform="matrix(1,0,0,1,4932.719848409341,-2475) translate(828.6358024691353 119.17361111111103)"/><path d="M4740.32-1652.52c0 14.8-12 26.78-26.78 26.78-14.78 0-26.77-12-26.77-26.78 0-14.78 12-26.77 26.77-26.77 14.8 0 26.78 12 26.78 26.78z" stroke="#3a414a" stroke-width="4" fill="#fff"/><path d="M4713.54-1625.74v71.86a21.32 21.32 0 0 0 3.13 11.12l50.42 82.5m-53.56-87.62l-53.54 87.6m0-138.7h107.1" stroke="#3a414a" stroke-width="4" fill="none"/><path d="M4660-1673.3a6 6 0 0 1 6-6h95.1a6 6 0 0 1 6 6v229.03a6 6 0 0 1-6 6H4666a6 6 0 0 1-6-6z" fill="none"/><use xlink:href="#f" transform="matrix(1,0,0,1,4580,-1460.271186440678) translate(46.188271604938336 40.88888888888886)"/><path d="M5088.35-2211.56a6 6 0 0 1 6-6h737.62a6 6 0 0 1 6 6V-586a6 6 0 0 1-6 6h-737.62a6 6 0 0 1-6-6z" stroke="#3a414a" stroke-width="4" fill-opacity="0"/><use xlink:href="#g" transform="matrix(1,0,0,1,5096.351757454945,-2209.5593220338983) translate(270.85185185185196 42.66666666666663)"/><path d="M6239.55-2024.75c0 14.78-12 26.77-26.78 26.77-14.78 0-26.77-12-26.77-26.77 0-14.8 12-26.78 26.77-26.78 14.8 0 26.78 12 26.78 26.78z" stroke="#3a414a" stroke-width="4" fill="#fff"/><path d="M6212.77-1997.98v71.87a21.32 21.32 0 0 0 3.13 11.1l50.42 82.5m-53.55-87.62l-53.54 87.6m0-138.7h107.1" stroke="#3a414a" stroke-width="4" fill="none"/><path d="M6159.23-2045.53a6 6 0 0 1 6-6h95.1a6 6 0 0 1 6 6v229.02a6 6 0 0 1-6 6h-95.1a6 6 0 0 1-6-6z" fill="none"/><use xlink:href="#h" transform="matrix(1,0,0,1,6079.231151092308,-1832.5084745762713) translate(3.453703703703809 40.88888888888886)"/><use xlink:href="#i" transform="matrix(1,0,0,1,6079.231151092308,-1832.5084745762713) translate(99.99691358024694 40.88888888888886)"/><path d="M5677.34-2006.22c0 64.83-95.9 117.38-214.18 117.38-118.3 0-214.18-52.55-214.18-117.38s95.9-117.4 214.18-117.4c118.3 0 214.18 52.57 214.18 117.4z" stroke="#3a414a" stroke-width="3" fill="#fff"/><use xlink:href="#j" transform="matrix(1,0,0,1,5248.98366650055,-2123.6073446327687) translate(41.87537037037047 97.86111111111109)"/><use xlink:href="#k" transform="matrix(1,0,0,1,5248.98366650055,-2123.6073446327687) translate(179.9864814814815 97.86111111111109)"/><use xlink:href="#l" transform="matrix(1,0,0,1,5248.98366650055,-2123.6073446327687) translate(119.0111728395062 156.52777777777774)"/><use xlink:href="#m" transform="matrix(1,0,0,1,5248.98366650055,-2123.6073446327687) translate(186.91240740740741 156.52777777777774)"/><path d="M5677.34-1711.65c0 64.83-95.9 117.4-214.18 117.4-118.3 0-214.18-52.57-214.18-117.4 0-64.83 95.9-117.38 214.18-117.38 118.3 0 214.18 52.55 214.18 117.38z" stroke="#3a414a" stroke-width="3" fill="#fff"/><use xlink:href="#n" transform="matrix(1,0,0,1,5248.98366650055,-1829.0310734463278) translate(125.80129629629633 97.86111111111109)"/><use xlink:href="#o" transform="matrix(1,0,0,1,5248.98366650055,-1829.0310734463278) translate(72.8383333333334 156.52777777777774)"/><path d="M5677.34-1122.5c0 64.84-95.9 117.4-214.18 117.4-118.3 0-214.18-52.56-214.18-117.4 0-64.82 95.9-117.38 214.18-117.38 118.3 0 214.18 52.56 214.18 117.4z" stroke="#3a414a" stroke-width="3" fill="#fff"/><use xlink:href="#p" transform="matrix(1,0,0,1,5248.98366650055,-1239.878531073446) translate(49.887716049382796 97.86111111111109)"/><use xlink:href="#q" transform="matrix(1,0,0,1,5248.98366650055,-1239.878531073446) translate(245.03586419753083 97.86111111111109)"/><use xlink:href="#r" transform="matrix(1,0,0,1,5248.98366650055,-1239.878531073446) translate(134.01734567901238 156.52777777777774)"/><path d="M5677.34-827.92c0 64.83-95.9 117.4-214.18 117.4-118.3 0-214.18-52.57-214.18-117.4 0-64.83 95.9-117.38 214.18-117.38 118.3 0 214.18 52.55 214.18 117.38z" stroke="#3a414a" stroke-width="3" fill="#fff"/><use xlink:href="#s" transform="matrix(1,0,0,1,5248.98366650055,-945.3022598870056) translate(131.36919753086426 97.86111111111109)"/><use xlink:href="#t" transform="matrix(1,0,0,1,5248.98366650055,-945.3022598870056) translate(101.4247530864198 156.52777777777774)"/><path d="M6239.55-1113.23c0 14.8-12 26.77-26.78 26.77-14.78 0-26.77-11.98-26.77-26.77 0-14.78 12-26.77 26.77-26.77 14.8 0 26.78 12 26.78 26.77z" stroke="#3a414a" stroke-width="4" fill="#fff"/><path d="M6212.77-1086.46v71.87a21.32 21.32 0 0 0 3.13 11.13l50.42 82.5m-53.55-87.62l-53.54 87.62m0-138.7h107.1" stroke="#3a414a" stroke-width="4" fill="none"/><path d="M6159.23-1134a6 6 0 0 1 6-6h95.1a6 6 0 0 1 6 6v229.02a6 6 0 0 1-6 6h-95.1a6 6 0 0 1-6-6z" fill="none"/><use xlink:href="#u" transform="matrix(1,0,0,1,6079.231151092308,-920.9830508474577) translate(73.09259259259264 40.88888888888886)"/><use xlink:href="#v" transform="matrix(1,0,0,1,6079.231151092308,-920.9830508474577) translate(16.302469135802568 102.22222222222214)"/><use xlink:href="#w" transform="matrix(1,0,0,1,6079.231151092308,-920.9830508474577) translate(169.35185185185182 102.22222222222214)"/><path d="M4766.2-1601.94l480.14-403.32M4766.24-1601.96l-3.47 2.92" stroke="#3a414a" stroke-width="3" fill="none"/><path d="M5247.48-2006.23l.02 1.42.02.5-.25.2-1.93-2.28 2.18-1.84z" stroke="#3a414a" stroke-width=".05" fill="#3a414a"/><path d="M5680.32-2006l423.88 61.38" stroke="#3a414a" stroke-width="3" fill="none"/><path d="M5680.57-2007.5l-.43 2.98-1.34-.2.04-1.5-.02-1.42v-.1z" stroke="#3a414a" stroke-width=".05" fill="#3a414a"/><path d="M6104.16-1944.63l1.53.22M6104.37-1943.7l-424.22 231.34M6104.34-1943.67l1.35-.74" stroke="#3a414a" stroke-width="3" fill="none"/><path d="M5680.9-1711.07l-2.1 1.15.04-1.72-.02-1.42v-.28l.65-.36z" stroke="#3a414a" stroke-width=".05" fill="#3a414a"/><path d="M5463.16-1591.26v15.5a6 6 0 0 1-6 6H5196a6 6 0 0 0-6 6v293.38a6 6 0 0 0 6 6h261.16a6 6 0 0 1 6 6v15.5" stroke="#3a414a" stroke-width="3" fill="none"/><path d="M5463.15-1592.76l1.5-.02v1.56h-3v-1.57zM5464.66-1241.35l-1.5-.03-1.5.02v-1.56h3z" stroke="#3a414a" stroke-width=".05" fill="#3a414a"/><path d="M5680.32-1122.3l477.42 60.43" stroke="#3a414a" stroke-width="3" fill="none"/><path d="M5680.55-1123.8l-.38 3-1.37-.2.04-1.5-.02-1.4v-.1zM6162.4-1062.8l-.14 1.12h-3.03v1.5l-1.7-.2.36-2.98z" stroke="#3a414a" stroke-width=".05" fill="#3a414a"/><path d="M6157.88-1061.03l-477.7 232.46" stroke="#3a414a" stroke-width="3" fill="none"/><path d="M6162.57-1061.68h-3.34v1.66l-.73.36-1.3-2.7 4.07-2zM5680.88-827.24l-2.08 1 .04-1.67-.02-1.43v-.24l.74-.37z" stroke="#3a414a" stroke-width=".05" fill="#3a414a"/><path d="M5246.7-829.2l-472.66-777.38" stroke="#3a414a" stroke-width="3" fill="none"/><path d="M5247.48-827.93l.02 1.43.07 1.6-2.17-3.55 2.12-1.3z" stroke="#3a414a" stroke-width=".05" fill="#3a414a"/><path d="M4774.06-1606.54l-.8-1.32" stroke="#3a414a" stroke-width="3" fill="none"/><path d="M5788.35-1417.07c0 64.83-95.9 117.38-214.17 117.38-118.3 0-214.18-52.54-214.18-117.37 0-64.83 95.9-117.38 214.18-117.38s214.17 52.55 214.17 117.38z" stroke="#3a414a" stroke-width="3" fill="#fff"/><g><use xlink:href="#x" transform="matrix(1,0,0,1,5360,-1534.4548022598867) translate(37.733395061728494 127.23611111111109)"/><use xlink:href="#r" transform="matrix(1,0,0,1,5360,-1534.4548022598867) translate(230.30129629629627 127.23611111111109)"/></g><path d="M5574.18-1296.7v20.92a6 6 0 0 1-6 6h-99.02a6 6 0 0 0-6 6v20.9" stroke="#3a414a" stroke-width="3" fill="none"/><path d="M5574.17-1298.2h1.5v1.55h-3v-1.57zM5464.66-1241.35l-1.5-.03-1.5.02v-1.56h3z" stroke="#3a414a" stroke-width=".05" fill="#3a414a"/><path d="M6239.55-1518.24c0 14.78-12 26.77-26.78 26.77-14.78 0-26.77-12-26.77-26.77 0-14.8 12-26.78 26.77-26.78 14.8 0 26.78 12 26.78 26.78z" stroke="#3a414a" stroke-width="4" fill="#fff"/><path d="M6212.77-1491.47v71.86a21.32 21.32 0 0 0 3.13 11.1l50.42 82.5m-53.55-87.6l-53.54 87.6m0-138.7h107.1" stroke="#3a414a" stroke-width="4" fill="none"/><path d="M6159.23-1539.02a6 6 0 0 1 6-6h95.1a6 6 0 0 1 6 6V-1310a6 6 0 0 1-6 6h-95.1a6 6 0 0 1-6-6z" fill="none"/><g><use xlink:href="#y" transform="matrix(1,0,0,1,6079.231151092308,-1326) translate(58.96604938271611 40.88888888888886)"/><use xlink:href="#z" transform="matrix(1,0,0,1,6079.231151092308,-1326) translate(40.50925925925932 102.22222222222214)"/></g><path d="M5791.34-1417.27l366.4-49.23" stroke="#3a414a" stroke-width="3" fill="none"/><path d="M5791.58-1415.8l-1.76.25.03-1.5v-1.43l-.02-.1 1.35-.18zM6162.26-1466.7h-3.03v1.5l-1.32.2-.4-2.98 4.5-.6z" stroke="#3a414a" stroke-width=".05" fill="#3a414a"/><defs><path fill="#3a414a" d="M30-248c118-7 216 8 213 122C240-48 200 0 122 0H30v-248zM63-27c89 8 146-16 146-99s-60-101-146-95v194" id="A"/><path fill="#3a414a" d="M24-231v-30h32v30H24zM24 0v-190h32V0H24" id="B"/><path fill="#3a414a" d="M141-36C126-15 110 5 73 4 37 3 15-17 15-53c-1-64 63-63 125-63 3-35-9-54-41-54-24 1-41 7-42 31l-33-3c5-37 33-52 76-52 45 0 72 20 72 64v82c-1 20 7 32 28 27v20c-31 9-61-2-59-35zM48-53c0 20 12 33 32 33 41-3 63-29 60-74-43 2-92-5-92 41" id="C"/><path fill="#3a414a" d="M177-190C167-65 218 103 67 71c-23-6-38-20-44-43l32-5c15 47 100 32 89-28v-30C133-14 115 1 83 1 29 1 15-40 15-95c0-56 16-97 71-98 29-1 48 16 59 35 1-10 0-23 2-32h30zM94-22c36 0 50-32 50-73 0-42-14-75-50-75-39 0-46 34-46 75s6 73 46 73" id="D"/><path fill="#3a414a" d="M114-163C36-179 61-72 57 0H25l-1-190h30c1 12-1 29 2 39 6-27 23-49 58-41v29" id="E"/><path fill="#3a414a" d="M210-169c-67 3-38 105-44 169h-31v-121c0-29-5-50-35-48C34-165 62-65 56 0H25l-1-190h30c1 10-1 24 2 32 10-44 99-50 107 0 11-21 27-35 58-36 85-2 47 119 55 194h-31v-121c0-29-5-49-35-48" id="F"/><g id="a"><use transform="matrix(0.1913580246913577,0,0,0.1913580246913577,0,0)" xlink:href="#A"/><use transform="matrix(0.1913580246913577,0,0,0.1913580246913577,49.56172839506165,0)" xlink:href="#B"/><use transform="matrix(0.1913580246913577,0,0,0.1913580246913577,64.67901234567891,0)" xlink:href="#C"/><use transform="matrix(0.1913580246913577,0,0,0.1913580246913577,102.95061728395046,0)" xlink:href="#D"/><use transform="matrix(0.1913580246913577,0,0,0.1913580246913577,141.222222222222,0)" xlink:href="#E"/><use transform="matrix(0.1913580246913577,0,0,0.1913580246913577,163.99382716049357,0)" xlink:href="#C"/><use transform="matrix(0.1913580246913577,0,0,0.1913580246913577,202.2654320987651,0)" xlink:href="#F"/><use transform="matrix(0.1913580246913577,0,0,0.1913580246913577,259.48148148148107,0)" xlink:href="#C"/><path fill="#3a414a" d="M-3.44 4.78h323.78v5.05H-3.44z"/></g><path fill="#3a414a" d="M85-194c31 0 48 13 60 33l-1-100h32l1 261h-30c-2-10 0-23-3-31C134-8 116 4 85 4 32 4 16-35 15-94c0-66 23-100 70-100zm9 24c-40 0-46 34-46 75 0 40 6 74 45 74 42 0 51-32 51-76 0-42-9-74-50-73" id="G"/><path fill="#3a414a" d="M100-194c63 0 86 42 84 106H49c0 40 14 67 53 68 26 1 43-12 49-29l28 8c-11 28-37 45-77 45C44 4 14-33 15-96c1-61 26-98 85-98zm52 81c6-60-76-77-97-28-3 7-6 17-6 28h103" id="H"/><g id="b"><use transform="matrix(0.1913580246913577,0,0,0.1913580246913577,0,0)" xlink:href="#G"/><use transform="matrix(0.1913580246913577,0,0,0.1913580246913577,38.271604938271544,0)" xlink:href="#H"/><path fill="#3a414a" d="M-3.44 4.78H99.13v5.05H-3.44z"/></g><path fill="#3a414a" d="M96-169c-40 0-48 33-48 73s9 75 48 75c24 0 41-14 43-38l32 2c-6 37-31 61-74 61-59 0-76-41-82-99-10-93 101-131 147-64 4 7 5 14 7 22l-32 3c-4-21-16-35-41-35" id="I"/><path fill="#3a414a" d="M135-143c-3-34-86-38-87 0 15 53 115 12 119 90S17 21 10-45l28-5c4 36 97 45 98 0-10-56-113-15-118-90-4-57 82-63 122-42 12 7 21 19 24 35" id="J"/><path fill="#3a414a" d="M100-194c62-1 85 37 85 99 1 63-27 99-86 99S16-35 15-95c0-66 28-99 85-99zM99-20c44 1 53-31 53-75 0-43-8-75-51-75s-53 32-53 75 10 74 51 75" id="K"/><g id="c"><use transform="matrix(0.1913580246913577,0,0,0.1913580246913577,0,0)" xlink:href="#I"/><use transform="matrix(0.1913580246913577,0,0,0.1913580246913577,34.444444444444386,0)" xlink:href="#C"/><use transform="matrix(0.1913580246913577,0,0,0.1913580246913577,72.71604938271594,0)" xlink:href="#J"/><use transform="matrix(0.1913580246913577,0,0,0.1913580246913577,107.16049382716032,0)" xlink:href="#K"/><use transform="matrix(0.1913580246913577,0,0,0.1913580246913577,145.43209876543187,0)" xlink:href="#J"/><path fill="#3a414a" d="M-3.44 4.78h205.9v5.05H-3.44z"/></g><g id="d"><use transform="matrix(0.1913580246913577,0,0,0.1913580246913577,0,0)" xlink:href="#G"/><use transform="matrix(0.1913580246913577,0,0,0.1913580246913577,38.271604938271544,0)" xlink:href="#H"/><path fill="#3a414a" d="M-3.44 4.78H99.13v5.05H-3.44z"/></g><path fill="#3a414a" d="M84 4C-5 8 30-112 23-190h32v120c0 31 7 50 39 49 72-2 45-101 50-169h31l1 190h-30c-1-10 1-25-2-33-11 22-28 36-60 37" id="L"/><g id="e"><use transform="matrix(0.1913580246913577,0,0,0.1913580246913577,0,0)" xlink:href="#L"/><use transform="matrix(0.1913580246913577,0,0,0.1913580246913577,38.271604938271544,0)" xlink:href="#J"/><use transform="matrix(0.1913580246913577,0,0,0.1913580246913577,72.71604938271594,0)" xlink:href="#K"/><path fill="#3a414a" d="M-3.44 4.78h117.88v5.05H-3.44z"/></g><path fill="#3a414a" d="M232-93c-1 65-40 97-104 97C67 4 28-28 28-90v-158h33c8 89-33 224 67 224 102 0 64-133 71-224h33v155" id="M"/><g id="f"><use transform="matrix(0.1419753086419752,0,0,0.1419753086419752,0,0)" xlink:href="#M"/><use transform="matrix(0.1419753086419752,0,0,0.1419753086419752,36.77160493827157,0)" xlink:href="#J"/><use transform="matrix(0.1419753086419752,0,0,0.1419753086419752,62.32716049382711,0)" xlink:href="#L"/><use transform="matrix(0.1419753086419752,0,0,0.1419753086419752,90.72222222222214,0)" xlink:href="#C"/><use transform="matrix(0.1419753086419752,0,0,0.1419753086419752,119.11728395061718,0)" xlink:href="#E"/><use transform="matrix(0.1419753086419752,0,0,0.1419753086419752,136.01234567901224,0)" xlink:href="#B"/><use transform="matrix(0.1419753086419752,0,0,0.1419753086419752,147.2283950617283,0)" xlink:href="#K"/></g><path fill="#3a414a" d="M185-189c-5-48-123-54-124 2 14 75 158 14 163 119 3 78-121 87-175 55-17-10-28-26-33-46l33-7c5 56 141 63 141-1 0-78-155-14-162-118-5-82 145-84 179-34 5 7 8 16 11 25" id="N"/><path fill="#3a414a" d="M59-47c-2 24 18 29 38 22v24C64 9 27 4 27-40v-127H5v-23h24l9-43h21v43h35v23H59v120" id="O"/><g id="g"><use transform="matrix(0.14814814814814803,0,0,0.14814814814814803,0,0)" xlink:href="#N"/><use transform="matrix(0.14814814814814803,0,0,0.14814814814814803,35.55555555555553,0)" xlink:href="#B"/><use transform="matrix(0.14814814814814803,0,0,0.14814814814814803,47.259259259259224,0)" xlink:href="#J"/><use transform="matrix(0.14814814814814803,0,0,0.14814814814814803,73.92592592592587,0)" xlink:href="#O"/><use transform="matrix(0.14814814814814803,0,0,0.14814814814814803,88.74074074074066,0)" xlink:href="#H"/><use transform="matrix(0.14814814814814803,0,0,0.14814814814814803,118.37037037037028,0)" xlink:href="#F"/><use transform="matrix(0.14814814814814803,0,0,0.14814814814814803,162.66666666666654,0)" xlink:href="#C"/></g><path fill="#3a414a" d="M205 0l-28-72H64L36 0H1l101-248h38L239 0h-34zm-38-99l-47-123c-12 45-31 82-46 123h93" id="P"/><path fill="#3a414a" d="M30-248c87 1 191-15 191 75 0 78-77 80-158 76V0H30v-248zm33 125c57 0 124 11 124-50 0-59-68-47-124-48v98" id="Q"/><path fill="#3a414a" d="M33 0v-248h34V0H33" id="R"/><g id="h"><use transform="matrix(0.1419753086419752,0,0,0.1419753086419752,0,0)" xlink:href="#P"/><use transform="matrix(0.1419753086419752,0,0,0.1419753086419752,34.07407407407405,0)" xlink:href="#Q"/><use transform="matrix(0.1419753086419752,0,0,0.1419753086419752,68.1481481481481,0)" xlink:href="#R"/></g><path fill="#3a414a" d="M143 4C61 4 22-44 18-125c-5-107 100-154 193-111 17 8 29 25 37 43l-32 9c-13-25-37-40-76-40-61 0-88 39-88 99 0 61 29 100 91 101 35 0 62-11 79-27v-45h-74v-28h105v86C228-13 192 4 143 4" id="S"/><path fill="#3a414a" d="M24 0v-261h32V0H24" id="T"/><g id="i"><use transform="matrix(0.1419753086419752,0,0,0.1419753086419752,0,0)" xlink:href="#S"/><use transform="matrix(0.1419753086419752,0,0,0.1419753086419752,39.75308641975305,0)" xlink:href="#K"/><use transform="matrix(0.1419753086419752,0,0,0.1419753086419752,68.1481481481481,0)" xlink:href="#K"/><use transform="matrix(0.1419753086419752,0,0,0.1419753086419752,96.54320987654313,0)" xlink:href="#D"/><use transform="matrix(0.1419753086419752,0,0,0.1419753086419752,124.93827160493817,0)" xlink:href="#T"/><use transform="matrix(0.1419753086419752,0,0,0.1419753086419752,136.15432098765422,0)" xlink:href="#H"/></g><path d="M30 0v-248h187v28H63v79h144v27H63v87h162V0H30" id="U"/><path d="M24 0v-261h32V0H24" id="V"/><path d="M100-194c63 0 86 42 84 106H49c0 40 14 67 53 68 26 1 43-12 49-29l28 8c-11 28-37 45-77 45C44 4 14-33 15-96c1-61 26-98 85-98zm52 81c6-60-76-77-97-28-3 7-6 17-6 28h103" id="W"/><path d="M177-190C167-65 218 103 67 71c-23-6-38-20-44-43l32-5c15 47 100 32 89-28v-30C133-14 115 1 83 1 29 1 15-40 15-95c0-56 16-97 71-98 29-1 48 16 59 35 1-10 0-23 2-32h30zM94-22c36 0 50-32 50-73 0-42-14-75-50-75-39 0-46 34-46 75s6 73 46 73" id="X"/><path d="M24-231v-30h32v30H24zM24 0v-190h32V0H24" id="Y"/><path d="M114-163C36-179 61-72 57 0H25l-1-190h30c1 12-1 29 2 39 6-27 23-49 58-41v29" id="Z"/><g id="j"><use transform="matrix(0.1358024691358024,0,0,0.1358024691358024,0,0)" xlink:href="#U"/><use transform="matrix(0.1358024691358024,0,0,0.1358024691358024,32.59259259259258,0)" xlink:href="#V"/><use transform="matrix(0.1358024691358024,0,0,0.1358024691358024,43.32098765432097,0)" xlink:href="#W"/><use transform="matrix(0.1358024691358024,0,0,0.1358024691358024,70.48148148148145,0)" xlink:href="#X"/><use transform="matrix(0.1358024691358024,0,0,0.1358024691358024,97.64197530864193,0)" xlink:href="#Y"/><use transform="matrix(0.1358024691358024,0,0,0.1358024691358024,108.37037037037032,0)" xlink:href="#Z"/></g><path d="M84 4C-5 8 30-112 23-190h32v120c0 31 7 50 39 49 72-2 45-101 50-169h31l1 190h-30c-1-10 1-25-2-33-11 22-28 36-60 37" id="aa"/><path d="M115-194c53 0 69 39 70 98 0 66-23 100-70 100C84 3 66-7 56-30L54 0H23l1-261h32v101c10-23 28-34 59-34zm-8 174c40 0 45-34 45-75 0-40-5-75-45-74-42 0-51 32-51 76 0 43 10 73 51 73" id="ab"/><path d="M96-169c-40 0-48 33-48 73s9 75 48 75c24 0 41-14 43-38l32 2c-6 37-31 61-74 61-59 0-76-41-82-99-10-93 101-131 147-64 4 7 5 14 7 22l-32 3c-4-21-16-35-41-35" id="ac"/><path d="M141-36C126-15 110 5 73 4 37 3 15-17 15-53c-1-64 63-63 125-63 3-35-9-54-41-54-24 1-41 7-42 31l-33-3c5-37 33-52 76-52 45 0 72 20 72 64v82c-1 20 7 32 28 27v20c-31 9-61-2-59-35zM48-53c0 20 12 33 32 33 41-3 63-29 60-74-43 2-92-5-92 41" id="ad"/><path d="M100-194c62-1 85 37 85 99 1 63-27 99-86 99S16-35 15-95c0-66 28-99 85-99zM99-20c44 1 53-31 53-75 0-43-8-75-51-75s-53 32-53 75 10 74 51 75zM76-211c8-23 27-35 38-54h36v5l-58 49H76" id="ae"/><path d="M117-194c89-4 53 116 60 194h-32v-121c0-31-8-49-39-48C34-167 62-67 57 0H25l-1-190h30c1 10-1 24 2 32 11-22 29-35 61-36" id="af"/><g id="k"><use transform="matrix(0.1358024691358024,0,0,0.1358024691358024,0,0)" xlink:href="#aa"/><use transform="matrix(0.1358024691358024,0,0,0.1358024691358024,27.16049382716048,0)" xlink:href="#ab"/><use transform="matrix(0.1358024691358024,0,0,0.1358024691358024,54.32098765432096,0)" xlink:href="#Y"/><use transform="matrix(0.1358024691358024,0,0,0.1358024691358024,65.04938271604935,0)" xlink:href="#ac"/><use transform="matrix(0.1358024691358024,0,0,0.1358024691358024,89.49382716049378,0)" xlink:href="#ad"/><use transform="matrix(0.1358024691358024,0,0,0.1358024691358024,116.65432098765424,0)" xlink:href="#ac"/><use transform="matrix(0.1358024691358024,0,0,0.1358024691358024,141.0987654320987,0)" xlink:href="#Y"/><use transform="matrix(0.1358024691358024,0,0,0.1358024691358024,151.82716049382708,0)" xlink:href="#ae"/><use transform="matrix(0.1358024691358024,0,0,0.1358024691358024,178.98765432098756,0)" xlink:href="#af"/></g><g id="l"><use transform="matrix(0.1358024691358024,0,0,0.1358024691358024,0,0)" xlink:href="#W"/><use transform="matrix(0.1358024691358024,0,0,0.1358024691358024,27.16049382716048,0)" xlink:href="#af"/></g><path d="M210-169c-67 3-38 105-44 169h-31v-121c0-29-5-50-35-48C34-165 62-65 56 0H25l-1-190h30c1 10-1 24 2 32 10-44 99-50 107 0 11-21 27-35 58-36 85-2 47 119 55 194h-31v-121c0-29-5-49-35-48" id="ag"/><path d="M115-194c55 1 70 41 70 98S169 2 115 4C84 4 66-9 55-30l1 105H24l-1-265h31l2 30c10-21 28-34 59-34zm-8 174c40 0 45-34 45-75s-6-73-45-74c-42 0-51 32-51 76 0 43 10 73 51 73" id="ah"/><g id="m"><use transform="matrix(0.1358024691358024,0,0,0.1358024691358024,0,0)" xlink:href="#ag"/><use transform="matrix(0.1358024691358024,0,0,0.1358024691358024,40.60493827160492,0)" xlink:href="#ad"/><use transform="matrix(0.1358024691358024,0,0,0.1358024691358024,67.7654320987654,0)" xlink:href="#ah"/><use transform="matrix(0.1358024691358024,0,0,0.1358024691358024,94.92592592592588,0)" xlink:href="#ad"/></g><path d="M140-251c81 0 123 46 123 126C263-46 219 4 140 4 59 4 17-45 17-125s42-126 123-126zm0 227c63 0 89-41 89-101s-29-99-89-99c-61 0-89 39-89 99S79-25 140-24" id="ai"/><path d="M59-47c-2 24 18 29 38 22v24C64 9 27 4 27-40v-127H5v-23h24l9-43h21v43h35v23H59v120" id="aj"/><g id="n"><use transform="matrix(0.1358024691358024,0,0,0.1358024691358024,0,0)" xlink:href="#ai"/><use transform="matrix(0.1358024691358024,0,0,0.1358024691358024,38.024691358024675,0)" xlink:href="#ab"/><use transform="matrix(0.1358024691358024,0,0,0.1358024691358024,65.18518518518516,0)" xlink:href="#aj"/><use transform="matrix(0.1358024691358024,0,0,0.1358024691358024,78.7654320987654,0)" xlink:href="#W"/><use transform="matrix(0.1358024691358024,0,0,0.1358024691358024,105.92592592592588,0)" xlink:href="#af"/><use transform="matrix(0.1358024691358024,0,0,0.1358024691358024,133.08641975308637,0)" xlink:href="#W"/><use transform="matrix(0.1358024691358024,0,0,0.1358024691358024,160.24691358024683,0)" xlink:href="#Z"/></g><path d="M100-194c62-1 85 37 85 99 1 63-27 99-86 99S16-35 15-95c0-66 28-99 85-99zM99-20c44 1 53-31 53-75 0-43-8-75-51-75s-53 32-53 75 10 74 51 75" id="ak"/><path d="M85-194c31 0 48 13 60 33l-1-100h32l1 261h-30c-2-10 0-23-3-31C134-8 116 4 85 4 32 4 16-35 15-94c0-66 23-100 70-100zm9 24c-40 0-46 34-46 75 0 40 6 74 45 74 42 0 51-32 51-76 0-42-9-74-50-73" id="al"/><path d="M135-143c-3-34-86-38-87 0 15 53 115 12 119 90S17 21 10-45l28-5c4 36 97 45 98 0-10-56-113-15-118-90-4-57 82-63 122-42 12 7 21 19 24 35" id="am"/><g id="o"><use transform="matrix(0.1358024691358024,0,0,0.1358024691358024,0,0)" xlink:href="#ac"/><use transform="matrix(0.1358024691358024,0,0,0.1358024691358024,24.444444444444432,0)" xlink:href="#ak"/><use transform="matrix(0.1358024691358024,0,0,0.1358024691358024,51.60493827160491,0)" xlink:href="#ak"/><use transform="matrix(0.1358024691358024,0,0,0.1358024691358024,78.76543209876537,0)" xlink:href="#Z"/><use transform="matrix(0.1358024691358024,0,0,0.1358024691358024,94.92592592592587,0)" xlink:href="#al"/><use transform="matrix(0.1358024691358024,0,0,0.1358024691358024,122.08641975308635,0)" xlink:href="#W"/><use transform="matrix(0.1358024691358024,0,0,0.1358024691358024,149.24691358024683,0)" xlink:href="#af"/><use transform="matrix(0.1358024691358024,0,0,0.1358024691358024,176.4074074074073,0)" xlink:href="#ad"/><use transform="matrix(0.1358024691358024,0,0,0.1358024691358024,203.56790123456778,0)" xlink:href="#al"/><use transform="matrix(0.1358024691358024,0,0,0.1358024691358024,230.72839506172826,0)" xlink:href="#ad"/><use transform="matrix(0.1358024691358024,0,0,0.1358024691358024,257.88888888888874,0)" xlink:href="#am"/></g><path d="M30-248c87 1 191-15 191 75 0 78-77 80-158 76V0H30v-248zm33 125c57 0 124 11 124-50 0-59-68-47-124-48v98" id="an"/><g id="p"><use transform="matrix(0.1358024691358024,0,0,0.1358024691358024,0,0)" xlink:href="#an"/><use transform="matrix(0.1358024691358024,0,0,0.1358024691358024,32.59259259259258,0)" xlink:href="#Z"/><use transform="matrix(0.1358024691358024,0,0,0.1358024691358024,48.75308641975306,0)" xlink:href="#W"/><use transform="matrix(0.1358024691358024,0,0,0.1358024691358024,75.91358024691354,0)" xlink:href="#al"/><use transform="matrix(0.1358024691358024,0,0,0.1358024691358024,103.07407407407402,0)" xlink:href="#W"/><use transform="matrix(0.1358024691358024,0,0,0.1358024691358024,130.2345679012345,0)" xlink:href="#ac"/><use transform="matrix(0.1358024691358024,0,0,0.1358024691358024,154.67901234567893,0)" xlink:href="#Y"/><use transform="matrix(0.1358024691358024,0,0,0.1358024691358024,165.4074074074073,0)" xlink:href="#Z"/></g><path d="M85 4C-4 8 31-112 24-190h32v120c0 31 7 50 39 49 72-2 45-101 50-169h31l1 190h-30c-1-10 1-25-2-33-11 22-28 36-60 37zM73-211c8-23 27-35 38-54h36v5l-58 49H73" id="ao"/><g id="q"><use transform="matrix(0.1358024691358024,0,0,0.1358024691358024,0,0)" xlink:href="#am"/><use transform="matrix(0.1358024691358024,0,0,0.1358024691358024,24.444444444444432,0)" xlink:href="#W"/><use transform="matrix(0.1358024691358024,0,0,0.1358024691358024,51.60493827160491,0)" xlink:href="#X"/><use transform="matrix(0.1358024691358024,0,0,0.1358024691358024,78.76543209876537,0)" xlink:href="#ao"/><use transform="matrix(0.1358024691358024,0,0,0.1358024691358024,105.92592592592587,0)" xlink:href="#af"/></g><g id="r"><use transform="matrix(0.1358024691358024,0,0,0.1358024691358024,0,0)" xlink:href="#ag"/><use transform="matrix(0.1358024691358024,0,0,0.1358024691358024,40.60493827160492,0)" xlink:href="#ak"/><use transform="matrix(0.1358024691358024,0,0,0.1358024691358024,67.7654320987654,0)" xlink:href="#al"/><use transform="matrix(0.1358024691358024,0,0,0.1358024691358024,94.92592592592588,0)" xlink:href="#W"/><use transform="matrix(0.1358024691358024,0,0,0.1358024691358024,122.08641975308636,0)" xlink:href="#V"/><use transform="matrix(0.1358024691358024,0,0,0.1358024691358024,132.81481481481475,0)" xlink:href="#ak"/></g><path d="M240 0l2-218c-23 76-54 145-80 218h-23L58-218 59 0H30v-248h44l77 211c21-75 51-140 76-211h43V0h-30" id="ap"/><g id="s"><use transform="matrix(0.1358024691358024,0,0,0.1358024691358024,0,0)" xlink:href="#ap"/><use transform="matrix(0.1358024691358024,0,0,0.1358024691358024,40.60493827160492,0)" xlink:href="#ak"/><use transform="matrix(0.1358024691358024,0,0,0.1358024691358024,67.7654320987654,0)" xlink:href="#am"/><use transform="matrix(0.1358024691358024,0,0,0.1358024691358024,92.20987654320983,0)" xlink:href="#aj"/><use transform="matrix(0.1358024691358024,0,0,0.1358024691358024,105.79012345679007,0)" xlink:href="#Z"/><use transform="matrix(0.1358024691358024,0,0,0.1358024691358024,121.95061728395055,0)" xlink:href="#ad"/><use transform="matrix(0.1358024691358024,0,0,0.1358024691358024,149.11111111111103,0)" xlink:href="#Z"/></g><g id="t"><use transform="matrix(0.1358024691358024,0,0,0.1358024691358024,0,0)" xlink:href="#Z"/><use transform="matrix(0.1358024691358024,0,0,0.1358024691358024,16.160493827160487,0)" xlink:href="#W"/><use transform="matrix(0.1358024691358024,0,0,0.1358024691358024,43.320987654320966,0)" xlink:href="#am"/><use transform="matrix(0.1358024691358024,0,0,0.1358024691358024,67.7654320987654,0)" xlink:href="#aa"/><use transform="matrix(0.1358024691358024,0,0,0.1358024691358024,94.92592592592588,0)" xlink:href="#V"/><use transform="matrix(0.1358024691358024,0,0,0.1358024691358024,105.65432098765427,0)" xlink:href="#aj"/><use transform="matrix(0.1358024691358024,0,0,0.1358024691358024,119.23456790123451,0)" xlink:href="#ad"/><use transform="matrix(0.1358024691358024,0,0,0.1358024691358024,146.39506172839495,0)" xlink:href="#al"/><use transform="matrix(0.1358024691358024,0,0,0.1358024691358024,173.55555555555546,0)" xlink:href="#ak"/><use transform="matrix(0.1358024691358024,0,0,0.1358024691358024,200.71604938271594,0)" xlink:href="#am"/></g><path fill="#3a414a" d="M63-220v92h138v28H63V0H30v-248h175v28H63" id="aq"/><path fill="#3a414a" d="M143 0L79-87 56-68V0H24v-261h32v163l83-92h37l-77 82L181 0h-38" id="ar"/><g id="u"><use transform="matrix(0.1419753086419752,0,0,0.1419753086419752,0,0)" xlink:href="#aq"/><use transform="matrix(0.1419753086419752,0,0,0.1419753086419752,31.092592592592567,0)" xlink:href="#T"/><use transform="matrix(0.1419753086419752,0,0,0.1419753086419752,42.3086419753086,0)" xlink:href="#C"/><use transform="matrix(0.1419753086419752,0,0,0.1419753086419752,70.70370370370364,0)" xlink:href="#J"/><use transform="matrix(0.1419753086419752,0,0,0.1419753086419752,96.25925925925918,0)" xlink:href="#ar"/></g><g id="v"><use transform="matrix(0.1419753086419752,0,0,0.1419753086419752,0,0)" xlink:href="#F"/><use transform="matrix(0.1419753086419752,0,0,0.1419753086419752,42.450617283950585,0)" xlink:href="#K"/><use transform="matrix(0.1419753086419752,0,0,0.1419753086419752,70.84567901234563,0)" xlink:href="#G"/><use transform="matrix(0.1419753086419752,0,0,0.1419753086419752,99.24074074074066,0)" xlink:href="#H"/><use transform="matrix(0.1419753086419752,0,0,0.1419753086419752,127.6358024691357,0)" xlink:href="#T"/></g><g id="w"><use transform="matrix(0.1419753086419752,0,0,0.1419753086419752,0,0)" xlink:href="#P"/><use transform="matrix(0.1419753086419752,0,0,0.1419753086419752,34.07407407407405,0)" xlink:href="#Q"/><use transform="matrix(0.1419753086419752,0,0,0.1419753086419752,68.1481481481481,0)" xlink:href="#R"/></g><path d="M143 4C61 4 22-44 18-125c-5-107 100-154 193-111 17 8 29 25 37 43l-32 9c-13-25-37-40-76-40-61 0-88 39-88 99 0 61 29 100 91 101 35 0 62-11 79-27v-45h-74v-28h105v86C228-13 192 4 143 4" id="as"/><g id="x"><use transform="matrix(0.1358024691358024,0,0,0.1358024691358024,0,0)" xlink:href="#as"/><use transform="matrix(0.1358024691358024,0,0,0.1358024691358024,38.024691358024675,0)" xlink:href="#W"/><use transform="matrix(0.1358024691358024,0,0,0.1358024691358024,65.18518518518516,0)" xlink:href="#af"/><use transform="matrix(0.1358024691358024,0,0,0.1358024691358024,92.34567901234564,0)" xlink:href="#W"/><use transform="matrix(0.1358024691358024,0,0,0.1358024691358024,119.50617283950612,0)" xlink:href="#Z"/><use transform="matrix(0.1358024691358024,0,0,0.1358024691358024,135.6666666666666,0)" xlink:href="#ad"/><use transform="matrix(0.1358024691358024,0,0,0.1358024691358024,162.82716049382708,0)" xlink:href="#Z"/></g><path fill="#3a414a" d="M190 0L58-211 59 0H30v-248h39L202-35l-2-213h31V0h-41" id="at"/><g id="y"><use transform="matrix(0.1419753086419752,0,0,0.1419753086419752,0,0)" xlink:href="#at"/><use transform="matrix(0.1419753086419752,0,0,0.1419753086419752,36.77160493827157,0)" xlink:href="#H"/><use transform="matrix(0.1419753086419752,0,0,0.1419753086419752,65.16666666666661,0)" xlink:href="#L"/><use transform="matrix(0.1419753086419752,0,0,0.1419753086419752,93.56172839506165,0)" xlink:href="#E"/><use transform="matrix(0.1419753086419752,0,0,0.1419753086419752,110.4567901234567,0)" xlink:href="#C"/><use transform="matrix(0.1419753086419752,0,0,0.1419753086419752,138.85185185185173,0)" xlink:href="#T"/></g><path fill="#3a414a" d="M206 0h-36l-40-164L89 0H53L-1-190h32L70-26l43-164h34l41 164 42-164h31" id="au"/><g id="z"><use transform="matrix(0.1419753086419752,0,0,0.1419753086419752,0,0)" xlink:href="#at"/><use transform="matrix(0.1419753086419752,0,0,0.1419753086419752,36.77160493827157,0)" xlink:href="#H"/><use transform="matrix(0.1419753086419752,0,0,0.1419753086419752,65.16666666666661,0)" xlink:href="#O"/><use transform="matrix(0.1419753086419752,0,0,0.1419753086419752,79.36419753086413,0)" xlink:href="#au"/><use transform="matrix(0.1419753086419752,0,0,0.1419753086419752,116.13580246913571,0)" xlink:href="#K"/><use transform="matrix(0.1419753086419752,0,0,0.1419753086419752,144.53086419753075,0)" xlink:href="#E"/><use transform="matrix(0.1419753086419752,0,0,0.1419753086419752,161.4259259259258,0)" xlink:href="#ar"/></g></defs></g></svg>